<svg xmlns="http://www.w3.org/2000/svg" viewBox="0 0 58.69 58.69"><g id="Capa_2" data-name="Capa 2"><g id="Layer_1" data-name="Layer 1"><path d="M29.35,3.76A25.59,25.59,0,1,1,3.76,29.35,25.59,25.59,0,0,1,29.35,3.76m0-3.76A29.35,29.35,0,1,0,58.69,29.35,29.38,29.38,0,0,0,29.35,0Z"/><polygon points="29.33 29.82 17.81 20.97 40.87 20.97 29.33 29.82"/><polygon points="25.34 29.07 16.02 36.68 16.02 21.92 25.34 29.07"/><polygon points="26.86 30.23 29.33 32.17 31.95 30.15 41.03 37.72 17.71 37.72 26.86 30.23"/><polygon points="33.44 28.99 42.67 21.92 42.67 36.66 33.44 28.99"/></g></g></svg>