<svg xmlns="http://www.w3.org/2000/svg" viewBox="0 0 58.69 58.69"><g id="Capa_2" data-name="Capa 2"><g id="Layer_1" data-name="Layer 1"><path d="M29.35,3.76A25.59,25.59,0,1,1,3.76,29.35,25.59,25.59,0,0,1,29.35,3.76m0-3.76A29.35,29.35,0,1,0,58.69,29.35,29.38,29.38,0,0,0,29.35,0Z"/><path d="M42.76,29.92v9.45H37.28V30.56c0-2.22-.79-3.73-2.78-3.73a3,3,0,0,0-2.81,2,3.82,3.82,0,0,0-.18,1.33v9.2H26s.08-14.93,0-16.47h5.48v2.33l0,.05h0v-.05a5.45,5.45,0,0,1,4.94-2.72c3.61,0,6.31,2.35,6.31,7.41ZM17.53,39.37H23V22.9H17.53ZM23.17,17.3a2.82,2.82,0,1,1-2.82-2.82A2.82,2.82,0,0,1,23.17,17.3Z"/></g></g></svg>