<svg xmlns="http://www.w3.org/2000/svg" viewBox="0 0 58.69 58.69"><g id="Capa_2" data-name="Capa 2"><g id="Layer_1" data-name="Layer 1"><path d="M30.38,12.23A14.92,14.92,0,0,0,17.64,34L16,41.46a.48.48,0,0,0,.56.57L24,40.36h0A14.75,14.75,0,0,0,31.59,42a14.91,14.91,0,0,0-1.21-29.79ZM30.88,39a11.68,11.68,0,0,1-5.95-1.61,5.55,5.55,0,0,1-.48-.29l-4.77,1.27L21,33.55A11.82,11.82,0,1,1,30.88,39Z"/><path d="M37.89,32.33a6,6,0,0,1-.77,1,3.58,3.58,0,0,1-2.88,1,12.18,12.18,0,0,1-7-3.59,12.07,12.07,0,0,1-3.58-7,3.55,3.55,0,0,1,1-2.88,6,6,0,0,1,.94-.77,1,1,0,0,1,1.57.52L28,23a1.18,1.18,0,0,1-.16,1.33l-.62.63a.92.92,0,0,0-.12,1.16,15.71,15.71,0,0,0,2.19,2.6,16.36,16.36,0,0,0,2.6,2.19.92.92,0,0,0,1.16-.12l.63-.63A1.18,1.18,0,0,1,35,30l2.35.79A1,1,0,0,1,37.89,32.33Z"/><path d="M29.35,3.76A25.59,25.59,0,1,1,3.76,29.35,25.59,25.59,0,0,1,29.35,3.76m0-3.76A29.35,29.35,0,1,0,58.69,29.35,29.38,29.38,0,0,0,29.35,0Z"/></g></g></svg>