<svg xmlns="http://www.w3.org/2000/svg" viewBox="0 0 395.57 26.41"><defs><style>.cls-1{fill:#231f20;}</style></defs><g id="Capa_2" data-name="Capa 2"><g id="Capa_1-2" data-name="Capa 1"><path class="cls-1" d="M13.71,3.2a4.63,4.63,0,0,1-.65,2.6,3.31,3.31,0,0,1-1.82,1.31,4.35,4.35,0,0,1,.91,1.55,6,6,0,0,1,.31,2,5.79,5.79,0,0,1-.37,2.14A4.43,4.43,0,0,1,11,14.43a4.83,4.83,0,0,1-1.78,1.05,7.4,7.4,0,0,1-2.46.37H5.32a1.07,1.07,0,0,0-.77.28.92.92,0,0,0,0,1.31.89.89,0,0,0,.64.24h5.32a3.49,3.49,0,0,1,1.37.28,3.35,3.35,0,0,1,1.11.8A3.77,3.77,0,0,1,13.71,20,4.59,4.59,0,0,1,14,21.68a4.74,4.74,0,0,1-.39,1.94,4.49,4.49,0,0,1-1.06,1.5,5,5,0,0,1-1.58,1A5.59,5.59,0,0,1,9,26.41H3.38a3.37,3.37,0,0,1-1.31-.26A3,3,0,0,1,1,25.42a3.18,3.18,0,0,1-.72-1.11A3.51,3.51,0,0,1,0,22.9,3.19,3.19,0,0,1,.55,21,4.22,4.22,0,0,1,2,19.78a3.07,3.07,0,0,1-.9-.93,2.74,2.74,0,0,1-.33-1.38,2.36,2.36,0,0,1,.18-.92,2.54,2.54,0,0,1,.49-.76,3.28,3.28,0,0,1,.72-.6A5.75,5.75,0,0,1,3,14.78a4.14,4.14,0,0,1-1.4-1.73,5.85,5.85,0,0,1-.47-2.41A5.79,5.79,0,0,1,1.48,8.5,4.44,4.44,0,0,1,2.55,6.84,5.35,5.35,0,0,1,4.33,5.77,7.54,7.54,0,0,1,6.77,5.4a7.57,7.57,0,0,1,1.38.11,4.84,4.84,0,0,1,1.19.33,3.17,3.17,0,0,0,.72-.69,3.73,3.73,0,0,0,.46-.74,3.36,3.36,0,0,0,.24-.69,2,2,0,0,0,.08-.52ZM4.93,21a1.16,1.16,0,0,0-.54.11,1.35,1.35,0,0,0-.45.31,1.28,1.28,0,0,0-.3.43,1.57,1.57,0,0,0-.11.54,1.4,1.4,0,0,0,.4,1.05,1.42,1.42,0,0,0,1,.39H8.86A1.69,1.69,0,0,0,10,23.39a1.31,1.31,0,0,0,.46-1.05,1.29,1.29,0,0,0-.41-1A1.5,1.5,0,0,0,9,21ZM6.77,8a1.93,1.93,0,0,0-1.62.7,3.09,3.09,0,0,0-.54,1.94,3,3,0,0,0,.54,1.92,1.93,1.93,0,0,0,1.62.7,2,2,0,0,0,1.65-.7A3.08,3.08,0,0,0,9,10.64,3.17,3.17,0,0,0,8.42,8.7,2,2,0,0,0,6.77,8"/><path class="cls-1" d="M22.81,5.41a3.7,3.7,0,0,1,.6,0l.47.09c.15,0,.27.08.39.11V9H23a3.32,3.32,0,0,0-1.09.17,2.3,2.3,0,0,0-.91.57,3.1,3.1,0,0,0-.63,1.09,5.19,5.19,0,0,0-.24,1.7v8.55H16.65V5.76h2.91L20,8h.16a9.85,9.85,0,0,1,.37-1A3.36,3.36,0,0,1,21,6.22a2.88,2.88,0,0,1,.75-.59,2.37,2.37,0,0,1,1-.22"/><path class="cls-1" d="M38.24,21.11H35.33L35,19.21H34.8a7.87,7.87,0,0,1-.68.87,4.23,4.23,0,0,1-.87.71,4.55,4.55,0,0,1-1.07.49,4.26,4.26,0,0,1-1.26.19,4.82,4.82,0,0,1-1.64-.27A3.14,3.14,0,0,1,28,20.36a3.86,3.86,0,0,1-.85-1.54,7.64,7.64,0,0,1-.31-2.29V5.76h3.5v9.81a3.32,3.32,0,0,0,.52,2.1,1.86,1.86,0,0,0,1.5.61,2,2,0,0,0,1-.23,2.65,2.65,0,0,0,.75-.63,3.18,3.18,0,0,0,.51-1,4,4,0,0,0,.19-1.2V5.76h3.5V21.11Z"/><path class="cls-1" d="M49.23,5.41a4.29,4.29,0,0,1,2.06.48,4.14,4.14,0,0,1,1.55,1.46,7.91,7.91,0,0,1,1,2.5,16.46,16.46,0,0,1,.34,3.61,15.77,15.77,0,0,1-.36,3.61,8.41,8.41,0,0,1-1,2.5A4.18,4.18,0,0,1,51.31,21a4,4,0,0,1-1.9.47,4.32,4.32,0,0,1-2.08-.5A3.11,3.11,0,0,1,46,19.55h-.16v6.63h-3.5V5.76h2.91l.36,1.9h.14A4.34,4.34,0,0,1,47.24,6a3.69,3.69,0,0,1,2-.56m-1,3.17a1.83,1.83,0,0,0-1.8,1.12,7.41,7.41,0,0,0-.54,3.17v1.06a7.73,7.73,0,0,0,.54,3.22,2,2,0,0,0,3.59,0A7.45,7.45,0,0,0,50.51,14V12.87A7.38,7.38,0,0,0,50,9.7a1.83,1.83,0,0,0-1.79-1.12"/><path class="cls-1" d="M63.56,5.41a5.47,5.47,0,0,1,4.59,1.94c1,1.3,1.54,3.32,1.54,6.09s-.51,4.78-1.54,6.08a5.45,5.45,0,0,1-4.59,2,5.46,5.46,0,0,1-4.6-2q-1.53-1.95-1.53-6.08T59,7.35a5.48,5.48,0,0,1,4.6-1.94m0,2.94a2,2,0,0,0-1.92,1.17,8.06,8.06,0,0,0-.56,3.36V14a7.92,7.92,0,0,0,.57,3.38,2.16,2.16,0,0,0,3.84,0A7.94,7.94,0,0,0,66.05,14V12.88a7.82,7.82,0,0,0-.56-3.35,2,2,0,0,0-1.93-1.18"/><path class="cls-1" d="M84.59,5.76H86.8v3H84.59v8.55a1.09,1.09,0,0,0,1.22,1.25h1v2.59a2.87,2.87,0,0,1-.44.14l-.55.11-.56.08a3.48,3.48,0,0,1-.55,0A3.78,3.78,0,0,1,83,21.12a2.91,2.91,0,0,1-1.11-.93,3.76,3.76,0,0,1-.59-1.32,6.92,6.92,0,0,1-.17-1.51V8.72H79.53v-3h1.55l.53-4.32h3Z"/><path class="cls-1" d="M94.92,5.41a4.76,4.76,0,0,1,4.16,1.94c.92,1.3,1.39,3.32,1.39,6.09v.89H92.68a11,11,0,0,0,.15,1.82,5,5,0,0,0,.41,1.35,1.86,1.86,0,0,0,1.81,1.12,1.65,1.65,0,0,0,1.43-.76A3.71,3.71,0,0,0,97,15.7h3.46a7.2,7.2,0,0,1-.41,2.58,4.94,4.94,0,0,1-1.13,1.81,4.42,4.42,0,0,1-1.72,1.05,6.37,6.37,0,0,1-2.17.36,5.36,5.36,0,0,1-4.49-1.95c-1-1.3-1.53-3.34-1.53-6.09s.51-4.79,1.52-6.09a5.16,5.16,0,0,1,4.37-2m0,2.86a1.71,1.71,0,0,0-1.62.91,5.87,5.87,0,0,0-.59,2.6h4.07a5.92,5.92,0,0,0-.45-2.6,1.47,1.47,0,0,0-1.41-.91"/><path class="cls-1" d="M111.25,5.41a5.37,5.37,0,0,1,1.64.25,3.31,3.31,0,0,1,1.29.85A4,4,0,0,1,115,8a7.61,7.61,0,0,1,.31,2.3V21.12h-3.5v-9.8a3.19,3.19,0,0,0-.54-2.1,1.9,1.9,0,0,0-1.49-.62,2,2,0,0,0-1,.23,2.35,2.35,0,0,0-.76.65,3.35,3.35,0,0,0-.5,1,4,4,0,0,0-.18,1.2v9.47h-3.5V5.76h2.91l.36,1.9h.16a7.56,7.56,0,0,1,.69-.85,4.23,4.23,0,0,1,.87-.71A4.69,4.69,0,0,1,110,5.6a3.93,3.93,0,0,1,1.3-.19"/><path class="cls-1" d="M130.83,21.11h-2.91l-.35-1.9h-.15A4.06,4.06,0,0,1,126,20.89a3.67,3.67,0,0,1-2,.57,4.5,4.5,0,0,1-2.06-.48,4.09,4.09,0,0,1-1.55-1.47,7.65,7.65,0,0,1-1-2.51,16.46,16.46,0,0,1-.34-3.61,15.77,15.77,0,0,1,.36-3.61,8.16,8.16,0,0,1,1-2.48,4.14,4.14,0,0,1,1.5-1.45,4,4,0,0,1,1.9-.46,4.21,4.21,0,0,1,2.08.5,3,3,0,0,1,1.33,1.42h.16V0h3.49ZM125,8.58a1.85,1.85,0,0,0-1.8,1.12,7.59,7.59,0,0,0-.53,3.17V14a7.63,7.63,0,0,0,.53,3.19,1.87,1.87,0,0,0,1.8,1.11,1.84,1.84,0,0,0,1.8-1.11,7.45,7.45,0,0,0,.54-3.19v-1a11.55,11.55,0,0,0-.14-1.86,4.56,4.56,0,0,0-.41-1.36,2.1,2.1,0,0,0-.72-.85A1.85,1.85,0,0,0,125,8.58"/><path class="cls-1" d="M140.13,5.41a4.76,4.76,0,0,1,4.16,1.94c.93,1.3,1.39,3.32,1.39,6.09v.89h-7.79a11,11,0,0,0,.15,1.82,5,5,0,0,0,.41,1.35,1.86,1.86,0,0,0,1.81,1.12,1.67,1.67,0,0,0,1.44-.76,3.79,3.79,0,0,0,.53-2.16h3.46a7.2,7.2,0,0,1-.41,2.58,4.94,4.94,0,0,1-1.13,1.81,4.42,4.42,0,0,1-1.72,1.05,6.37,6.37,0,0,1-2.17.36,5.33,5.33,0,0,1-4.48-1.95c-1-1.3-1.54-3.34-1.54-6.09s.51-4.79,1.52-6.09a5.14,5.14,0,0,1,4.37-2m0,2.86a1.72,1.72,0,0,0-1.62.91,5.87,5.87,0,0,0-.59,2.6H142a6.09,6.09,0,0,0-.44-2.6,1.5,1.5,0,0,0-1.42-.91"/><path class="cls-1" d="M156.45,5.41a5.37,5.37,0,0,1,1.64.25,3.2,3.2,0,0,1,1.28.85A3.89,3.89,0,0,1,160.22,8a7.64,7.64,0,0,1,.3,2.3V21.12H157v-9.8a3.25,3.25,0,0,0-.54-2.1A1.9,1.9,0,0,0,155,8.6a2,2,0,0,0-1,.23,2.25,2.25,0,0,0-.76.65,3.35,3.35,0,0,0-.5,1,4,4,0,0,0-.18,1.2v9.47h-3.5V5.76H152l.36,1.9h.16a8.86,8.86,0,0,1,.69-.85,4.23,4.23,0,0,1,.87-.71,4.69,4.69,0,0,1,1.06-.5,4.09,4.09,0,0,1,1.3-.19"/><polygon class="cls-1" points="174.26 7.22 168.28 18.17 174.47 18.17 174.47 21.12 163.54 21.12 163.54 19.64 169.5 8.72 163.88 8.72 163.88 5.76 174.26 5.76 174.26 7.22"/><path class="cls-1" d="M182.67,5.41a4.76,4.76,0,0,1,4.17,1.94c.92,1.3,1.39,3.32,1.39,6.09v.89h-7.8a12.17,12.17,0,0,0,.15,1.82A4.67,4.67,0,0,0,181,17.5a2,2,0,0,0,.72.84,2.05,2.05,0,0,0,1.09.28,1.66,1.66,0,0,0,1.43-.76,3.79,3.79,0,0,0,.53-2.16h3.47a7.43,7.43,0,0,1-.41,2.58,5,5,0,0,1-1.14,1.81A4.38,4.38,0,0,1,185,21.14a6.36,6.36,0,0,1-2.16.36,5.34,5.34,0,0,1-4.49-1.95c-1-1.3-1.53-3.34-1.53-6.09s.51-4.79,1.52-6.09a5.2,5.2,0,0,1,4.38-2m0,2.86a1.7,1.7,0,0,0-1.61.91,6,6,0,0,0-.58,2.6h4.07a5.92,5.92,0,0,0-.45-2.6,1.49,1.49,0,0,0-1.43-.91"/><path class="cls-1" d="M204.5,5.41a6.8,6.8,0,0,1,2.22.35,4.54,4.54,0,0,1,1.7,1.1,5.12,5.12,0,0,1,1.07,1.91,8.7,8.7,0,0,1,.38,2.77h-3.6a5,5,0,0,0-.44-2.4,1.44,1.44,0,0,0-1.33-.78,1.62,1.62,0,0,0-1.58,1.16,9.34,9.34,0,0,0-.47,3.36V14a9.21,9.21,0,0,0,.49,3.38,1.72,1.72,0,0,0,1.68,1.17,1.41,1.41,0,0,0,1.35-.8,5.39,5.39,0,0,0,.41-2.4h3.48a9,9,0,0,1-.37,2.76A5,5,0,0,1,208.44,20a4.07,4.07,0,0,1-1.66,1.1,5.9,5.9,0,0,1-2.16.36A6.63,6.63,0,0,1,202,21a4.39,4.39,0,0,1-1.82-1.47A6.9,6.9,0,0,1,199.13,17a16.36,16.36,0,0,1-.34-3.58c0-2.76.48-4.79,1.42-6.09a5,5,0,0,1,4.29-1.93"/><path class="cls-1" d="M219.12,5.41a5.48,5.48,0,0,1,4.6,1.94c1,1.3,1.53,3.32,1.53,6.09s-.51,4.78-1.53,6.08a6.38,6.38,0,0,1-9.2,0Q213,17.57,213,13.44t1.53-6.09a5.5,5.5,0,0,1,4.6-1.94m0,2.94a2,2,0,0,0-1.92,1.17,7.86,7.86,0,0,0-.57,3.35V14a7.92,7.92,0,0,0,.57,3.38,2.17,2.17,0,0,0,3.84,0,7.92,7.92,0,0,0,.57-3.38V12.87A7.77,7.77,0,0,0,221,9.52a2,2,0,0,0-1.92-1.17"/><path class="cls-1" d="M243.27,5.41a4.66,4.66,0,0,1,1.52.24,2.92,2.92,0,0,1,1.2.84A3.82,3.82,0,0,1,246.78,8a8.58,8.58,0,0,1,.28,2.33V21.12h-3.49v-9.8a3.87,3.87,0,0,0-.43-2.1,1.49,1.49,0,0,0-1.3-.62,1.58,1.58,0,0,0-.81.21,2.47,2.47,0,0,0-.69.57,3,3,0,0,0-.47.89,3.87,3.87,0,0,0-.17,1.16v9.69h-3.44v-9.8a3.67,3.67,0,0,0-.45-2.1,1.52,1.52,0,0,0-1.31-.62,1.65,1.65,0,0,0-.84.22,2.19,2.19,0,0,0-.67.62,3.45,3.45,0,0,0-.44,1,4.32,4.32,0,0,0-.17,1.24v9.47h-3.5V5.76h2.91l.36,1.9h.17a4.85,4.85,0,0,1,.64-.85,4,4,0,0,1,.82-.71,4.32,4.32,0,0,1,1-.5A3.52,3.52,0,0,1,236,5.41a3.62,3.62,0,0,1,2,.52,3.31,3.31,0,0,1,1.31,1.73,7.56,7.56,0,0,1,.69-.85,3.86,3.86,0,0,1,.89-.71,4.8,4.8,0,0,1,1.1-.5,4.12,4.12,0,0,1,1.31-.19"/><path class="cls-1" d="M262.48,21.11h-2.91l-.36-1.9h-.16a8,8,0,0,1-.69.87,4.23,4.23,0,0,1-.87.71,4.67,4.67,0,0,1-1.06.49,4.28,4.28,0,0,1-1.27.19,4.76,4.76,0,0,1-1.63-.27,3.11,3.11,0,0,1-1.29-.84,3.73,3.73,0,0,1-.84-1.54,7.62,7.62,0,0,1-.32-2.29V5.76h3.5v9.81a3.32,3.32,0,0,0,.52,2.1,1.87,1.87,0,0,0,1.51.61,2,2,0,0,0,.95-.23,2.52,2.52,0,0,0,.75-.63,3.18,3.18,0,0,0,.51-1,3.68,3.68,0,0,0,.19-1.2V5.76h3.49V21.11Z"/><path class="cls-1" d="M273.91,5.41a5.35,5.35,0,0,1,1.63.25,3.31,3.31,0,0,1,1.29.85A4,4,0,0,1,277.67,8a7.64,7.64,0,0,1,.3,2.3V21.12h-3.49v-9.8a3.13,3.13,0,0,0-.54-2.1,2.09,2.09,0,0,0-2.44-.39,2.29,2.29,0,0,0-.77.65,3.35,3.35,0,0,0-.5,1,4,4,0,0,0-.18,1.2v9.47h-3.5V5.76h2.91l.36,1.9H270a8.73,8.73,0,0,1,.68-.85,4.23,4.23,0,0,1,.87-.71,4.57,4.57,0,0,1,1.07-.5,4,4,0,0,1,1.3-.19"/><path class="cls-1" d="M285.56,3.2h-3.49V0h3.49Zm0,17.91h-3.49V5.76h3.49Z"/><path class="cls-1" d="M294.9,5.41a6.8,6.8,0,0,1,2.22.35,4.54,4.54,0,0,1,1.7,1.1,5.12,5.12,0,0,1,1.07,1.91,8.7,8.7,0,0,1,.38,2.77h-3.6a5,5,0,0,0-.44-2.4,1.45,1.45,0,0,0-1.33-.78,1.62,1.62,0,0,0-1.58,1.16,9.34,9.34,0,0,0-.47,3.36V14a9.21,9.21,0,0,0,.49,3.38A1.72,1.72,0,0,0,295,18.54a1.42,1.42,0,0,0,1.35-.8,5.39,5.39,0,0,0,.41-2.4h3.48a9,9,0,0,1-.37,2.76A5,5,0,0,1,298.84,20a4.07,4.07,0,0,1-1.66,1.1,5.9,5.9,0,0,1-2.16.36,6.63,6.63,0,0,1-2.6-.48,4.39,4.39,0,0,1-1.82-1.47A6.73,6.73,0,0,1,289.53,17a16.36,16.36,0,0,1-.34-3.58q0-4.14,1.42-6.09a5,5,0,0,1,4.29-1.93"/><path class="cls-1" d="M308.53,5.41a5.67,5.67,0,0,1,4,1.19,4.35,4.35,0,0,1,1.28,3.34V17.5a1,1,0,0,0,.26.79.76.76,0,0,0,.55.25h.72V21a4.76,4.76,0,0,1-.78.32,4.65,4.65,0,0,1-1.3.16,2.77,2.77,0,0,1-1.76-.56,2.88,2.88,0,0,1-.95-1.46h-.16a8.21,8.21,0,0,1-.69.83,3.62,3.62,0,0,1-.81.65,4.18,4.18,0,0,1-1,.41,5.41,5.41,0,0,1-1.34.14,4.61,4.61,0,0,1-1.21-.18,3.37,3.37,0,0,1-1.26-.65,3.82,3.82,0,0,1-1-1.32,5.26,5.26,0,0,1-.4-2.19,5.34,5.34,0,0,1,.57-2.59,4.34,4.34,0,0,1,1.57-1.64,7.07,7.07,0,0,1,2.41-.88,17.07,17.07,0,0,1,3.07-.26V10.16a4.35,4.35,0,0,0-.06-.74,1.8,1.8,0,0,0-.24-.6,1.18,1.18,0,0,0-.49-.41,1.85,1.85,0,0,0-.81-.16,2.34,2.34,0,0,0-.9.16,1.66,1.66,0,0,0-.56.37,1.32,1.32,0,0,0-.29.53,2,2,0,0,0-.09.56v.44h-3.42a1.36,1.36,0,0,1,0-.29V9.66a4.14,4.14,0,0,1,.36-1.74,4.08,4.08,0,0,1,1.05-1.36,5.26,5.26,0,0,1,1.63-.86,7.61,7.61,0,0,1,2.15-.29m1.7,8.9a9.08,9.08,0,0,0-1.49.12,4.17,4.17,0,0,0-1.28.4,2.54,2.54,0,0,0-.92.76,2.07,2.07,0,0,0-.34,1.22,1.82,1.82,0,0,0,.41,1.27,1.65,1.65,0,0,0,1.3.47,2,2,0,0,0,1.07-.27,2.16,2.16,0,0,0,.71-.73,3.51,3.51,0,0,0,.41-1.07,5.94,5.94,0,0,0,.13-1.29Z"/><path class="cls-1" d="M323.29,5.41a6.76,6.76,0,0,1,2.22.35,4.39,4.39,0,0,1,1.7,1.1,5.13,5.13,0,0,1,1.08,1.91,9,9,0,0,1,.38,2.77h-3.6a4.93,4.93,0,0,0-.45-2.4,1.44,1.44,0,0,0-1.33-.78,1.61,1.61,0,0,0-1.57,1.16,9.12,9.12,0,0,0-.47,3.36V14a9,9,0,0,0,.49,3.38,1.71,1.71,0,0,0,1.67,1.17,1.43,1.43,0,0,0,1.36-.8,5.39,5.39,0,0,0,.41-2.4h3.48a9.31,9.31,0,0,1-.37,2.76A4.9,4.9,0,0,1,327.23,20a4,4,0,0,1-1.65,1.1,6,6,0,0,1-2.17.36,6.58,6.58,0,0,1-2.59-.48A4.36,4.36,0,0,1,319,19.52,6.89,6.89,0,0,1,317.93,17a15.72,15.72,0,0,1-.35-3.58q0-4.14,1.43-6.09a5,5,0,0,1,4.28-1.93"/><path class="cls-1" d="M335.67,3.2h-3.48V0h3.48Zm0,17.91h-3.48V5.76h3.48Z"/><path class="cls-1" d="M345.46,5.41a5.5,5.5,0,0,1,4.6,1.94c1,1.3,1.53,3.32,1.53,6.09s-.51,4.78-1.53,6.08a6.38,6.38,0,0,1-9.2,0q-1.53-1.95-1.53-6.08t1.53-6.09a5.48,5.48,0,0,1,4.6-1.94m0,2.94a2,2,0,0,0-1.92,1.17,7.86,7.86,0,0,0-.57,3.35V14a7.92,7.92,0,0,0,.57,3.38,2.17,2.17,0,0,0,3.84,0A7.92,7.92,0,0,0,348,14V12.87a7.77,7.77,0,0,0-.57-3.35,2,2,0,0,0-1.92-1.17"/><path class="cls-1" d="M362.57,5.41a5.26,5.26,0,0,1,1.63.25,3.23,3.23,0,0,1,1.29.85A3.89,3.89,0,0,1,366.34,8a7.64,7.64,0,0,1,.3,2.3V21.12h-3.49v-9.8a3.19,3.19,0,0,0-.54-2.1,1.9,1.9,0,0,0-1.49-.62,2,2,0,0,0-1,.23,2.25,2.25,0,0,0-.76.65,3.35,3.35,0,0,0-.5,1,3.67,3.67,0,0,0-.18,1.2v9.47h-3.5V5.76h2.91l.36,1.9h.16a8.86,8.86,0,0,1,.69-.85,4,4,0,0,1,.87-.71,4.5,4.5,0,0,1,1.06-.5,4.05,4.05,0,0,1,1.3-.19"/><path class="cls-1" d="M375.93,5.41a4.77,4.77,0,0,1,4.17,1.94c.92,1.3,1.38,3.32,1.38,6.09v.89h-7.79a12.25,12.25,0,0,0,.14,1.82,5.39,5.39,0,0,0,.41,1.35,2.09,2.09,0,0,0,.73.84,2,2,0,0,0,1.08.28,1.67,1.67,0,0,0,1.44-.76A3.79,3.79,0,0,0,378,15.7h3.46a7.2,7.2,0,0,1-.41,2.58,4.81,4.81,0,0,1-1.13,1.81,4.49,4.49,0,0,1-1.72,1.05,6.37,6.37,0,0,1-2.17.36,5.33,5.33,0,0,1-4.48-1.95c-1-1.3-1.53-3.34-1.53-6.09s.51-4.79,1.52-6.09a5.17,5.17,0,0,1,4.37-2m0,2.86a1.73,1.73,0,0,0-1.62.91,6.16,6.16,0,0,0-.59,2.6h4.08a6.07,6.07,0,0,0-.45-2.6,1.47,1.47,0,0,0-1.42-.91"/><path class="cls-1" d="M390,5.41a7,7,0,0,1,2.05.29,5,5,0,0,1,1.65.82,3.67,3.67,0,0,1,1.11,1.31,3.78,3.78,0,0,1,.4,1.77c0,.16,0,.31,0,.44s0,.21,0,.23h-3.56a2.1,2.1,0,0,0-.46-1.51,1.69,1.69,0,0,0-1.27-.47,2,2,0,0,0-1.31.41,1.36,1.36,0,0,0-.5,1.11,1.24,1.24,0,0,0,.32.88,2.29,2.29,0,0,0,.85.56,8.92,8.92,0,0,0,1.2.39c.45.11.91.23,1.37.37a11.43,11.43,0,0,1,1.38.51,3.68,3.68,0,0,1,1.2.81,3.61,3.61,0,0,1,.84,1.28,4.9,4.9,0,0,1,.33,1.92,5.65,5.65,0,0,1-.44,2.36,4,4,0,0,1-1.2,1.53,4.8,4.8,0,0,1-1.81.84,10.12,10.12,0,0,1-2.27.25,7.48,7.48,0,0,1-2.37-.35,5,5,0,0,1-1.75-1,4,4,0,0,1-1.09-1.55,5.11,5.11,0,0,1-.37-2v-.12a.49.49,0,0,1,0-.12s0-.08,0-.11h3.56v.2a2.46,2.46,0,0,0,.21,1,1.8,1.8,0,0,0,.49.67,2,2,0,0,0,.66.37,2.72,2.72,0,0,0,.75.11,3.34,3.34,0,0,0,.7-.08,2.43,2.43,0,0,0,.66-.28,1.39,1.39,0,0,0,.48-.51A1.59,1.59,0,0,0,392,17a1.46,1.46,0,0,0-.32-1,2.67,2.67,0,0,0-.85-.62,7.82,7.82,0,0,0-1.19-.43c-.46-.11-.92-.25-1.38-.39a12.09,12.09,0,0,1-1.38-.51,4.27,4.27,0,0,1-1.2-.8,3.62,3.62,0,0,1-.84-1.25,4.86,4.86,0,0,1-.32-1.87,4.48,4.48,0,0,1,.43-2,4.43,4.43,0,0,1,1.16-1.47,5.24,5.24,0,0,1,1.75-.88A6.19,6.19,0,0,1,390,5.41"/></g></g></svg>