<svg xmlns="http://www.w3.org/2000/svg" viewBox="0 0 68.75 52.67"><g id="Capa_2" data-name="Capa 2"><g id="Layer_1" data-name="Layer 1"><g id="_8" data-name="8"><path d="M44.47,47.82a13.05,13.05,0,0,0,2,1.9h0a13.51,13.51,0,0,0,6.47,2.75l.42.06A13.5,13.5,0,0,0,68.56,41l.06-.41a13.51,13.51,0,0,0-11.5-15.24h0a14,14,0,0,0-6.68.7.43.43,0,0,1-.59-.41A39.76,39.76,0,0,1,58.17,2.09,1.3,1.3,0,0,0,56.32.3C43.77,10.42,31.8,34,44.47,47.82Z"/><path d="M5.4,47.82a13.55,13.55,0,0,0,2,1.9h0a13.51,13.51,0,0,0,6.47,2.75l.42.06A13.5,13.5,0,0,0,29.49,41l.06-.41a13.51,13.51,0,0,0-11.5-15.24h0a14,14,0,0,0-6.68.7.43.43,0,0,1-.59-.41A39.76,39.76,0,0,1,19.1,2.09,1.3,1.3,0,0,0,17.25.3C4.7,10.42-7.27,34,5.4,47.82Z"/></g></g></g></svg>