<svg xmlns="http://www.w3.org/2000/svg" viewBox="0 0 43.87 29.07"><defs><style>.cls-1{fill:#fff;}.cls-2{fill:#d9001b;}.cls-3{fill:#24469e;}</style></defs><g id="Capa_2" data-name="Capa 2"><g id="Layer_1" data-name="Layer 1"><rect class="cls-1" width="43.87" height="29.07"/><rect id="stripe" class="cls-2" width="43.87" height="2.24"/><rect id="stripe-2" data-name="stripe" class="cls-2" y="4.47" width="43.87" height="2.24"/><rect id="stripe-3" data-name="stripe" class="cls-2" y="8.94" width="43.87" height="2.24"/><rect id="stripe-4" data-name="stripe" class="cls-2" y="13.42" width="43.87" height="2.24"/><rect id="stripe-5" data-name="stripe" class="cls-2" y="17.89" width="43.87" height="2.24"/><rect id="stripe-6" data-name="stripe" class="cls-2" y="22.36" width="43.87" height="2.24"/><rect id="stripe-7" data-name="stripe" class="cls-2" y="26.83" width="43.87" height="2.24"/><rect class="cls-3" width="22.09" height="15.65"/><g id="_Group_" data-name="&lt;Group&gt;"><g id="star"><polygon id="pt" class="cls-1" points="2.13 1.72 1.36 2.27 1.65 1.38 2.13 1.72"/><polygon id="pt-2" data-name="pt" class="cls-1" points="1.8 1.82 1.04 1.27 1.98 1.27 1.8 1.82"/><polygon id="pt-3" data-name="pt" class="cls-1" points="1.6 1.55 1.89 0.65 2.18 1.55 1.6 1.55"/><polygon id="pt-4" data-name="pt" class="cls-1" points="1.8 1.27 2.74 1.27 1.98 1.82 1.8 1.27"/><polygon id="pt-5" data-name="pt" class="cls-1" points="2.13 1.38 2.42 2.27 1.65 1.72 2.13 1.38"/></g><g id="star-2" data-name="star"><polygon id="pt-6" data-name="pt" class="cls-1" points="5.79 1.72 5.03 2.27 5.32 1.38 5.79 1.72"/><polygon id="pt-7" data-name="pt" class="cls-1" points="5.46 1.82 4.7 1.27 5.64 1.27 5.46 1.82"/><polygon id="pt-8" data-name="pt" class="cls-1" points="5.26 1.55 5.55 0.65 5.84 1.55 5.26 1.55"/><polygon id="pt-9" data-name="pt" class="cls-1" points="5.46 1.27 6.4 1.27 5.64 1.82 5.46 1.27"/><polygon id="pt-10" data-name="pt" class="cls-1" points="5.79 1.38 6.08 2.27 5.32 1.72 5.79 1.38"/></g><g id="star-3" data-name="star"><polygon id="pt-11" data-name="pt" class="cls-1" points="9.45 1.72 8.69 2.27 8.98 1.38 9.45 1.72"/><polygon id="pt-12" data-name="pt" class="cls-1" points="9.12 1.82 8.36 1.27 9.3 1.27 9.12 1.82"/><polygon id="pt-13" data-name="pt" class="cls-1" points="8.92 1.55 9.21 0.65 9.51 1.55 8.92 1.55"/><polygon id="pt-14" data-name="pt" class="cls-1" points="9.12 1.27 10.07 1.27 9.3 1.82 9.12 1.27"/><polygon id="pt-15" data-name="pt" class="cls-1" points="9.45 1.38 9.74 2.27 8.98 1.72 9.45 1.38"/></g><g id="star-4" data-name="star"><polygon id="pt-16" data-name="pt" class="cls-1" points="13.11 1.72 12.35 2.27 12.64 1.38 13.11 1.72"/><polygon id="pt-17" data-name="pt" class="cls-1" points="12.79 1.82 12.03 1.27 12.97 1.27 12.79 1.82"/><polygon id="pt-18" data-name="pt" class="cls-1" points="12.59 1.55 12.88 0.65 13.17 1.55 12.59 1.55"/><polygon id="pt-19" data-name="pt" class="cls-1" points="12.79 1.27 13.73 1.27 12.97 1.82 12.79 1.27"/><polygon id="pt-20" data-name="pt" class="cls-1" points="13.11 1.38 13.4 2.27 12.64 1.72 13.11 1.38"/></g><g id="s5"><g id="star-5" data-name="star"><polygon id="pt-21" data-name="pt" class="cls-1" points="16.77 1.72 16.01 2.27 16.3 1.38 16.77 1.72"/><polygon id="pt-22" data-name="pt" class="cls-1" points="16.45 1.82 15.69 1.27 16.63 1.27 16.45 1.82"/><polygon id="pt-23" data-name="pt" class="cls-1" points="16.25 1.55 16.54 0.65 16.83 1.55 16.25 1.55"/><polygon id="pt-24" data-name="pt" class="cls-1" points="16.45 1.27 17.39 1.27 16.63 1.82 16.45 1.27"/><polygon id="pt-25" data-name="pt" class="cls-1" points="16.77 1.38 17.07 2.27 16.3 1.72 16.77 1.38"/></g></g><g id="s6"><g id="star-6" data-name="star"><polygon id="pt-26" data-name="pt" class="cls-1" points="20.44 1.72 19.68 2.27 19.97 1.38 20.44 1.72"/><polygon id="pt-27" data-name="pt" class="cls-1" points="20.11 1.82 19.35 1.27 20.29 1.27 20.11 1.82"/><polygon id="pt-28" data-name="pt" class="cls-1" points="19.91 1.55 20.2 0.65 20.49 1.55 19.91 1.55"/><polygon id="pt-29" data-name="pt" class="cls-1" points="20.11 1.27 21.05 1.27 20.29 1.82 20.11 1.27"/><polygon id="pt-30" data-name="pt" class="cls-1" points="20.44 1.38 20.73 2.27 19.97 1.72 20.44 1.38"/></g></g><g id="_star_b2_" data-name="&lt;star b2&gt;"><g id="star-7" data-name="star"><polygon id="pt-31" data-name="pt" class="cls-1" points="3.96 3.29 3.19 3.84 3.48 2.95 3.96 3.29"/><polygon id="pt-32" data-name="pt" class="cls-1" points="3.63 3.39 2.87 2.84 3.81 2.84 3.63 3.39"/><polygon id="pt-33" data-name="pt" class="cls-1" points="3.43 3.12 3.72 2.22 4.01 3.12 3.43 3.12"/><polygon id="pt-34" data-name="pt" class="cls-1" points="3.63 2.84 4.57 2.84 3.81 3.39 3.63 2.84"/><polygon id="pt-35" data-name="pt" class="cls-1" points="3.96 2.95 4.25 3.84 3.48 3.29 3.96 2.95"/></g><g id="star-8" data-name="star"><polygon id="pt-36" data-name="pt" class="cls-1" points="7.62 3.29 6.86 3.84 7.15 2.95 7.62 3.29"/><polygon id="pt-37" data-name="pt" class="cls-1" points="7.29 3.39 6.53 2.84 7.47 2.84 7.29 3.39"/><polygon id="pt-38" data-name="pt" class="cls-1" points="7.09 3.12 7.38 2.22 7.67 3.12 7.09 3.12"/><polygon id="pt-39" data-name="pt" class="cls-1" points="7.29 2.84 8.23 2.84 7.47 3.39 7.29 2.84"/><polygon id="pt-40" data-name="pt" class="cls-1" points="7.62 2.95 7.91 3.84 7.15 3.29 7.62 2.95"/></g><g id="star-9" data-name="star"><polygon id="pt-41" data-name="pt" class="cls-1" points="11.28 3.29 10.52 3.84 10.81 2.95 11.28 3.29"/><polygon id="pt-42" data-name="pt" class="cls-1" points="10.96 3.39 10.19 2.84 11.13 2.84 10.96 3.39"/><polygon id="pt-43" data-name="pt" class="cls-1" points="10.75 3.12 11.04 2.22 11.34 3.12 10.75 3.12"/><polygon id="pt-44" data-name="pt" class="cls-1" points="10.96 2.84 11.9 2.84 11.13 3.39 10.96 2.84"/><polygon id="pt-45" data-name="pt" class="cls-1" points="11.28 2.95 11.57 3.84 10.81 3.29 11.28 2.95"/></g><g id="star-10" data-name="star"><polygon id="pt-46" data-name="pt" class="cls-1" points="14.94 3.29 14.18 3.84 14.47 2.95 14.94 3.29"/><polygon id="pt-47" data-name="pt" class="cls-1" points="14.62 3.39 13.86 2.84 14.8 2.84 14.62 3.39"/><polygon id="pt-48" data-name="pt" class="cls-1" points="14.42 3.12 14.71 2.22 15 3.12 14.42 3.12"/><polygon id="pt-49" data-name="pt" class="cls-1" points="14.62 2.84 15.56 2.84 14.8 3.39 14.62 2.84"/><polygon id="pt-50" data-name="pt" class="cls-1" points="14.94 2.95 15.23 3.84 14.47 3.29 14.94 2.95"/></g><g id="s5-2" data-name="s5"><g id="star-11" data-name="star"><polygon id="pt-51" data-name="pt" class="cls-1" points="18.61 3.29 17.84 3.84 18.14 2.95 18.61 3.29"/><polygon id="pt-52" data-name="pt" class="cls-1" points="18.28 3.39 17.52 2.84 18.46 2.84 18.28 3.39"/><polygon id="pt-53" data-name="pt" class="cls-1" points="18.08 3.12 18.37 2.22 18.66 3.12 18.08 3.12"/><polygon id="pt-54" data-name="pt" class="cls-1" points="18.28 2.84 19.22 2.84 18.46 3.39 18.28 2.84"/><polygon id="pt-55" data-name="pt" class="cls-1" points="18.61 2.95 18.9 3.84 18.14 3.29 18.61 2.95"/></g></g></g><g id="_star_b3_" data-name="&lt;star b3&gt;"><g id="star-12" data-name="star"><polygon id="pt-56" data-name="pt" class="cls-1" points="2.13 4.86 1.36 5.41 1.65 4.51 2.13 4.86"/><polygon id="pt-57" data-name="pt" class="cls-1" points="1.8 4.96 1.04 4.41 1.98 4.41 1.8 4.96"/><polygon id="pt-58" data-name="pt" class="cls-1" points="1.6 4.69 1.89 3.79 2.18 4.69 1.6 4.69"/><polygon id="pt-59" data-name="pt" class="cls-1" points="1.8 4.41 2.74 4.41 1.98 4.96 1.8 4.41"/><polygon id="pt-60" data-name="pt" class="cls-1" points="2.13 4.51 2.42 5.41 1.65 4.86 2.13 4.51"/></g><g id="star-13" data-name="star"><polygon id="pt-61" data-name="pt" class="cls-1" points="5.79 4.86 5.03 5.41 5.32 4.51 5.79 4.86"/><polygon id="pt-62" data-name="pt" class="cls-1" points="5.46 4.96 4.7 4.41 5.64 4.41 5.46 4.96"/><polygon id="pt-63" data-name="pt" class="cls-1" points="5.26 4.69 5.55 3.79 5.84 4.69 5.26 4.69"/><polygon id="pt-64" data-name="pt" class="cls-1" points="5.46 4.41 6.4 4.41 5.64 4.96 5.46 4.41"/><polygon id="pt-65" data-name="pt" class="cls-1" points="5.79 4.51 6.08 5.41 5.32 4.86 5.79 4.51"/></g><g id="star-14" data-name="star"><polygon id="pt-66" data-name="pt" class="cls-1" points="9.45 4.86 8.69 5.41 8.98 4.51 9.45 4.86"/><polygon id="pt-67" data-name="pt" class="cls-1" points="9.12 4.96 8.36 4.41 9.3 4.41 9.12 4.96"/><polygon id="pt-68" data-name="pt" class="cls-1" points="8.92 4.69 9.21 3.79 9.51 4.69 8.92 4.69"/><polygon id="pt-69" data-name="pt" class="cls-1" points="9.12 4.41 10.07 4.41 9.3 4.96 9.12 4.41"/><polygon id="pt-70" data-name="pt" class="cls-1" points="9.45 4.51 9.74 5.41 8.98 4.86 9.45 4.51"/></g><g id="star-15" data-name="star"><polygon id="pt-71" data-name="pt" class="cls-1" points="13.11 4.86 12.35 5.41 12.64 4.51 13.11 4.86"/><polygon id="pt-72" data-name="pt" class="cls-1" points="12.79 4.96 12.03 4.41 12.97 4.41 12.79 4.96"/><polygon id="pt-73" data-name="pt" class="cls-1" points="12.59 4.69 12.88 3.79 13.17 4.69 12.59 4.69"/><polygon id="pt-74" data-name="pt" class="cls-1" points="12.79 4.41 13.73 4.41 12.97 4.96 12.79 4.41"/><polygon id="pt-75" data-name="pt" class="cls-1" points="13.11 4.51 13.4 5.41 12.64 4.86 13.11 4.51"/></g><g id="s5-3" data-name="s5"><g id="star-16" data-name="star"><polygon id="pt-76" data-name="pt" class="cls-1" points="16.77 4.86 16.01 5.41 16.3 4.51 16.77 4.86"/><polygon id="pt-77" data-name="pt" class="cls-1" points="16.45 4.96 15.69 4.41 16.63 4.41 16.45 4.96"/><polygon id="pt-78" data-name="pt" class="cls-1" points="16.25 4.69 16.54 3.79 16.83 4.69 16.25 4.69"/><polygon id="pt-79" data-name="pt" class="cls-1" points="16.45 4.41 17.39 4.41 16.63 4.96 16.45 4.41"/><polygon id="pt-80" data-name="pt" class="cls-1" points="16.77 4.51 17.07 5.41 16.3 4.86 16.77 4.51"/></g></g><g id="s6-2" data-name="s6"><g id="star-17" data-name="star"><polygon id="pt-81" data-name="pt" class="cls-1" points="20.44 4.86 19.68 5.41 19.97 4.51 20.44 4.86"/><polygon id="pt-82" data-name="pt" class="cls-1" points="20.11 4.96 19.35 4.41 20.29 4.41 20.11 4.96"/><polygon id="pt-83" data-name="pt" class="cls-1" points="19.91 4.69 20.2 3.79 20.49 4.69 19.91 4.69"/><polygon id="pt-84" data-name="pt" class="cls-1" points="20.11 4.41 21.05 4.41 20.29 4.96 20.11 4.41"/><polygon id="pt-85" data-name="pt" class="cls-1" points="20.44 4.51 20.73 5.41 19.97 4.86 20.44 4.51"/></g></g></g><g id="_star_b4_" data-name="&lt;star b4&gt;"><g id="star-23" data-name="star"><polygon id="pt-86" data-name="pt" class="cls-1" points="4 6.43 3.24 6.99 3.53 6.09 4 6.43"/><polygon id="pt-87" data-name="pt" class="cls-1" points="3.68 6.54 2.91 5.99 3.86 5.99 3.68 6.54"/><polygon id="pt-88" data-name="pt" class="cls-1" points="3.48 6.26 3.77 5.37 4.06 6.26 3.48 6.26"/><polygon id="pt-89" data-name="pt" class="cls-1" points="3.68 5.99 4.62 5.99 3.86 6.54 3.68 5.99"/><polygon id="pt-90" data-name="pt" class="cls-1" points="4 6.09 4.29 6.99 3.53 6.43 4 6.09"/></g><g id="star-24" data-name="star"><polygon id="pt-91" data-name="pt" class="cls-1" points="7.66 6.43 6.9 6.99 7.19 6.09 7.66 6.43"/><polygon id="pt-92" data-name="pt" class="cls-1" points="7.34 6.54 6.58 5.99 7.52 5.99 7.34 6.54"/><polygon id="pt-93" data-name="pt" class="cls-1" points="7.14 6.26 7.43 5.37 7.72 6.26 7.14 6.26"/><polygon id="pt-94" data-name="pt" class="cls-1" points="7.34 5.99 8.28 5.99 7.52 6.54 7.34 5.99"/><polygon id="pt-95" data-name="pt" class="cls-1" points="7.66 6.09 7.95 6.99 7.19 6.43 7.66 6.09"/></g><g id="star-25" data-name="star"><polygon id="pt-96" data-name="pt" class="cls-1" points="11.33 6.43 10.56 6.99 10.86 6.09 11.33 6.43"/><polygon id="pt-97" data-name="pt" class="cls-1" points="11 6.54 10.24 5.99 11.18 5.99 11 6.54"/><polygon id="pt-98" data-name="pt" class="cls-1" points="10.8 6.26 11.09 5.37 11.38 6.26 10.8 6.26"/><polygon id="pt-99" data-name="pt" class="cls-1" points="11 5.99 11.94 5.99 11.18 6.54 11 5.99"/><polygon id="pt-100" data-name="pt" class="cls-1" points="11.33 6.09 11.62 6.99 10.86 6.43 11.33 6.09"/></g><g id="star-26" data-name="star"><polygon id="pt-101" data-name="pt" class="cls-1" points="14.99 6.43 14.23 6.99 14.52 6.09 14.99 6.43"/><polygon id="pt-102" data-name="pt" class="cls-1" points="14.66 6.54 13.9 5.99 14.84 5.99 14.66 6.54"/><polygon id="pt-103" data-name="pt" class="cls-1" points="14.46 6.26 14.75 5.37 15.04 6.26 14.46 6.26"/><polygon id="pt-104" data-name="pt" class="cls-1" points="14.66 5.99 15.6 5.99 14.84 6.54 14.66 5.99"/><polygon id="pt-105" data-name="pt" class="cls-1" points="14.99 6.09 15.28 6.99 14.52 6.43 14.99 6.09"/></g><g id="s5-6" data-name="s5"><g id="star-27" data-name="star"><polygon id="pt-106" data-name="pt" class="cls-1" points="18.65 6.43 17.89 6.99 18.18 6.09 18.65 6.43"/><polygon id="pt-107" data-name="pt" class="cls-1" points="18.32 6.54 17.56 5.99 18.5 5.99 18.32 6.54"/><polygon id="pt-108" data-name="pt" class="cls-1" points="18.12 6.26 18.41 5.37 18.71 6.26 18.12 6.26"/><polygon id="pt-109" data-name="pt" class="cls-1" points="18.32 5.99 19.27 5.99 18.5 6.54 18.32 5.99"/><polygon id="pt-110" data-name="pt" class="cls-1" points="18.65 6.09 18.94 6.99 18.18 6.43 18.65 6.09"/></g></g></g><g id="_star_b3_2" data-name="&lt;star b3&gt;"><g id="star-28" data-name="star"><polygon id="pt-111" data-name="pt" class="cls-1" points="2.18 7.99 1.42 8.54 1.71 7.65 2.18 7.99"/><polygon id="pt-112" data-name="pt" class="cls-1" points="1.85 8.09 1.09 7.54 2.04 7.54 1.85 8.09"/><polygon id="pt-113" data-name="pt" class="cls-1" points="1.65 7.82 1.95 6.92 2.24 7.82 1.65 7.82"/><polygon id="pt-114" data-name="pt" class="cls-1" points="1.85 7.54 2.8 7.54 2.04 8.09 1.85 7.54"/><polygon id="pt-115" data-name="pt" class="cls-1" points="2.18 7.65 2.47 8.54 1.71 7.99 2.18 7.65"/></g><g id="star-29" data-name="star"><polygon id="pt-116" data-name="pt" class="cls-1" points="5.84 7.99 5.08 8.54 5.37 7.65 5.84 7.99"/><polygon id="pt-117" data-name="pt" class="cls-1" points="5.52 8.09 4.76 7.54 5.7 7.54 5.52 8.09"/><polygon id="pt-118" data-name="pt" class="cls-1" points="5.32 7.82 5.61 6.92 5.9 7.82 5.32 7.82"/><polygon id="pt-119" data-name="pt" class="cls-1" points="5.52 7.54 6.46 7.54 5.7 8.09 5.52 7.54"/><polygon id="pt-120" data-name="pt" class="cls-1" points="5.84 7.65 6.13 8.54 5.37 7.99 5.84 7.65"/></g><g id="star-30" data-name="star"><polygon id="pt-121" data-name="pt" class="cls-1" points="9.51 7.99 8.74 8.54 9.03 7.65 9.51 7.99"/><polygon id="pt-122" data-name="pt" class="cls-1" points="9.18 8.09 8.42 7.54 9.36 7.54 9.18 8.09"/><polygon id="pt-123" data-name="pt" class="cls-1" points="8.98 7.82 9.27 6.92 9.56 7.82 8.98 7.82"/><polygon id="pt-124" data-name="pt" class="cls-1" points="9.18 7.54 10.12 7.54 9.36 8.09 9.18 7.54"/><polygon id="pt-125" data-name="pt" class="cls-1" points="9.51 7.65 9.8 8.54 9.03 7.99 9.51 7.65"/></g><g id="star-31" data-name="star"><polygon id="pt-126" data-name="pt" class="cls-1" points="13.17 7.99 12.41 8.54 12.7 7.65 13.17 7.99"/><polygon id="pt-127" data-name="pt" class="cls-1" points="12.84 8.09 12.08 7.54 13.02 7.54 12.84 8.09"/><polygon id="pt-128" data-name="pt" class="cls-1" points="12.64 7.82 12.93 6.92 13.22 7.82 12.64 7.82"/><polygon id="pt-129" data-name="pt" class="cls-1" points="12.84 7.54 13.78 7.54 13.02 8.09 12.84 7.54"/><polygon id="pt-130" data-name="pt" class="cls-1" points="13.17 7.65 13.46 8.54 12.7 7.99 13.17 7.65"/></g><g id="s5-7" data-name="s5"><g id="star-32" data-name="star"><polygon id="pt-131" data-name="pt" class="cls-1" points="16.83 7.99 16.07 8.54 16.36 7.65 16.83 7.99"/><polygon id="pt-132" data-name="pt" class="cls-1" points="16.5 8.09 15.74 7.54 16.68 7.54 16.5 8.09"/><polygon id="pt-133" data-name="pt" class="cls-1" points="16.3 7.82 16.59 6.92 16.89 7.82 16.3 7.82"/><polygon id="pt-134" data-name="pt" class="cls-1" points="16.5 7.54 17.45 7.54 16.68 8.09 16.5 7.54"/><polygon id="pt-135" data-name="pt" class="cls-1" points="16.83 7.65 17.12 8.54 16.36 7.99 16.83 7.65"/></g></g><g id="s6-6" data-name="s6"><g id="star-33" data-name="star"><polygon id="pt-136" data-name="pt" class="cls-1" points="20.49 7.99 19.73 8.54 20.02 7.65 20.49 7.99"/><polygon id="pt-137" data-name="pt" class="cls-1" points="20.17 8.09 19.41 7.54 20.35 7.54 20.17 8.09"/><polygon id="pt-138" data-name="pt" class="cls-1" points="19.97 7.82 20.26 6.92 20.55 7.82 19.97 7.82"/><polygon id="pt-139" data-name="pt" class="cls-1" points="20.17 7.54 21.11 7.54 20.35 8.09 20.17 7.54"/><polygon id="pt-140" data-name="pt" class="cls-1" points="20.49 7.65 20.78 8.54 20.02 7.99 20.49 7.65"/></g></g></g><g id="_star_b4_2" data-name="&lt;star b4&gt;"><g id="star-39" data-name="star"><polygon id="pt-141" data-name="pt" class="cls-1" points="4.01 9.52 3.25 10.07 3.54 9.18 4.01 9.52"/><polygon id="pt-142" data-name="pt" class="cls-1" points="3.69 9.62 2.92 9.07 3.87 9.07 3.69 9.62"/><polygon id="pt-143" data-name="pt" class="cls-1" points="3.49 9.35 3.78 8.45 4.07 9.35 3.49 9.35"/><polygon id="pt-144" data-name="pt" class="cls-1" points="3.69 9.07 4.63 9.07 3.87 9.62 3.69 9.07"/><polygon id="pt-145" data-name="pt" class="cls-1" points="4.01 9.18 4.3 10.07 3.54 9.52 4.01 9.18"/></g><g id="star-40" data-name="star"><polygon id="pt-146" data-name="pt" class="cls-1" points="7.67 9.52 6.91 10.07 7.2 9.18 7.67 9.52"/><polygon id="pt-147" data-name="pt" class="cls-1" points="7.35 9.62 6.59 9.07 7.53 9.07 7.35 9.62"/><polygon id="pt-148" data-name="pt" class="cls-1" points="7.15 9.35 7.44 8.45 7.73 9.35 7.15 9.35"/><polygon id="pt-149" data-name="pt" class="cls-1" points="7.35 9.07 8.29 9.07 7.53 9.62 7.35 9.07"/><polygon id="pt-150" data-name="pt" class="cls-1" points="7.67 9.18 7.96 10.07 7.2 9.52 7.67 9.18"/></g><g id="star-41" data-name="star"><polygon id="pt-151" data-name="pt" class="cls-1" points="11.34 9.52 10.57 10.07 10.87 9.18 11.34 9.52"/><polygon id="pt-152" data-name="pt" class="cls-1" points="11.01 9.62 10.25 9.07 11.19 9.07 11.01 9.62"/><polygon id="pt-153" data-name="pt" class="cls-1" points="10.81 9.35 11.1 8.45 11.39 9.35 10.81 9.35"/><polygon id="pt-154" data-name="pt" class="cls-1" points="11.01 9.07 11.95 9.07 11.19 9.62 11.01 9.07"/><polygon id="pt-155" data-name="pt" class="cls-1" points="11.34 9.18 11.63 10.07 10.87 9.52 11.34 9.18"/></g><g id="star-42" data-name="star"><polygon id="pt-156" data-name="pt" class="cls-1" points="15 9.52 14.24 10.07 14.53 9.18 15 9.52"/><polygon id="pt-157" data-name="pt" class="cls-1" points="14.67 9.62 13.91 9.07 14.85 9.07 14.67 9.62"/><polygon id="pt-158" data-name="pt" class="cls-1" points="14.47 9.35 14.76 8.45 15.05 9.35 14.47 9.35"/><polygon id="pt-159" data-name="pt" class="cls-1" points="14.67 9.07 15.62 9.07 14.85 9.62 14.67 9.07"/><polygon id="pt-160" data-name="pt" class="cls-1" points="15 9.18 15.29 10.07 14.53 9.52 15 9.18"/></g><g id="s5-10" data-name="s5"><g id="star-43" data-name="star"><polygon id="pt-161" data-name="pt" class="cls-1" points="18.66 9.52 17.9 10.07 18.19 9.18 18.66 9.52"/><polygon id="pt-162" data-name="pt" class="cls-1" points="18.34 9.62 17.57 9.07 18.52 9.07 18.34 9.62"/><polygon id="pt-163" data-name="pt" class="cls-1" points="18.14 9.35 18.43 8.45 18.72 9.35 18.14 9.35"/><polygon id="pt-164" data-name="pt" class="cls-1" points="18.34 9.07 19.28 9.07 18.52 9.62 18.34 9.07"/><polygon id="pt-165" data-name="pt" class="cls-1" points="18.66 9.18 18.95 10.07 18.19 9.52 18.66 9.18"/></g></g></g><g id="_star_b3_3" data-name="&lt;star b3&gt;"><g id="star-44" data-name="star"><polygon id="pt-166" data-name="pt" class="cls-1" points="2.21 11.08 1.45 11.63 1.74 10.74 2.21 11.08"/><polygon id="pt-167" data-name="pt" class="cls-1" points="1.89 11.18 1.13 10.63 2.07 10.63 1.89 11.18"/><polygon id="pt-168" data-name="pt" class="cls-1" points="1.69 10.91 1.98 10.01 2.27 10.91 1.69 10.91"/><polygon id="pt-169" data-name="pt" class="cls-1" points="1.89 10.63 2.83 10.63 2.07 11.18 1.89 10.63"/><polygon id="pt-170" data-name="pt" class="cls-1" points="2.21 10.74 2.5 11.63 1.74 11.08 2.21 10.74"/></g><g id="star-45" data-name="star"><polygon id="pt-171" data-name="pt" class="cls-1" points="5.88 11.08 5.12 11.63 5.41 10.74 5.88 11.08"/><polygon id="pt-172" data-name="pt" class="cls-1" points="5.55 11.18 4.79 10.63 5.73 10.63 5.55 11.18"/><polygon id="pt-173" data-name="pt" class="cls-1" points="5.35 10.91 5.64 10.01 5.93 10.91 5.35 10.91"/><polygon id="pt-174" data-name="pt" class="cls-1" points="5.55 10.63 6.49 10.63 5.73 11.18 5.55 10.63"/><polygon id="pt-175" data-name="pt" class="cls-1" points="5.88 10.74 6.17 11.63 5.41 11.08 5.88 10.74"/></g><g id="star-46" data-name="star"><polygon id="pt-176" data-name="pt" class="cls-1" points="9.54 11.08 8.78 11.63 9.07 10.74 9.54 11.08"/><polygon id="pt-177" data-name="pt" class="cls-1" points="9.21 11.18 8.45 10.63 9.39 10.63 9.21 11.18"/><polygon id="pt-178" data-name="pt" class="cls-1" points="9.01 10.91 9.3 10.01 9.6 10.91 9.01 10.91"/><polygon id="pt-179" data-name="pt" class="cls-1" points="9.21 10.63 10.15 10.63 9.39 11.18 9.21 10.63"/><polygon id="pt-180" data-name="pt" class="cls-1" points="9.54 10.74 9.83 11.63 9.07 11.08 9.54 10.74"/></g><g id="star-47" data-name="star"><polygon id="pt-181" data-name="pt" class="cls-1" points="13.2 11.08 12.44 11.63 12.73 10.74 13.2 11.08"/><polygon id="pt-182" data-name="pt" class="cls-1" points="12.88 11.18 12.12 10.63 13.06 10.63 12.88 11.18"/><polygon id="pt-183" data-name="pt" class="cls-1" points="12.68 10.91 12.97 10.01 13.26 10.91 12.68 10.91"/><polygon id="pt-184" data-name="pt" class="cls-1" points="12.88 10.63 13.82 10.63 13.06 11.18 12.88 10.63"/><polygon id="pt-185" data-name="pt" class="cls-1" points="13.2 10.74 13.49 11.63 12.73 11.08 13.2 10.74"/></g><g id="s5-11" data-name="s5"><g id="star-48" data-name="star"><polygon id="pt-186" data-name="pt" class="cls-1" points="16.86 11.08 16.1 11.63 16.39 10.74 16.86 11.08"/><polygon id="pt-187" data-name="pt" class="cls-1" points="16.54 11.18 15.78 10.63 16.72 10.63 16.54 11.18"/><polygon id="pt-188" data-name="pt" class="cls-1" points="16.34 10.91 16.63 10.01 16.92 10.91 16.34 10.91"/><polygon id="pt-189" data-name="pt" class="cls-1" points="16.54 10.63 17.48 10.63 16.72 11.18 16.54 10.63"/><polygon id="pt-190" data-name="pt" class="cls-1" points="16.86 10.74 17.16 11.63 16.39 11.08 16.86 10.74"/></g></g><g id="s6-10" data-name="s6"><g id="star-49" data-name="star"><polygon id="pt-191" data-name="pt" class="cls-1" points="20.53 11.08 19.77 11.63 20.06 10.74 20.53 11.08"/><polygon id="pt-192" data-name="pt" class="cls-1" points="20.2 11.18 19.44 10.63 20.38 10.63 20.2 11.18"/><polygon id="pt-193" data-name="pt" class="cls-1" points="20 10.91 20.29 10.01 20.58 10.91 20 10.91"/><polygon id="pt-194" data-name="pt" class="cls-1" points="20.2 10.63 21.14 10.63 20.38 11.18 20.2 10.63"/><polygon id="pt-195" data-name="pt" class="cls-1" points="20.53 10.74 20.82 11.63 20.06 11.08 20.53 10.74"/></g></g></g><g id="_star_b4_3" data-name="&lt;star b4&gt;"><g id="star-55" data-name="star"><polygon id="pt-196" data-name="pt" class="cls-1" points="4 12.64 3.24 13.19 3.53 12.3 4 12.64"/><polygon id="pt-197" data-name="pt" class="cls-1" points="3.68 12.74 2.91 12.19 3.86 12.19 3.68 12.74"/><polygon id="pt-198" data-name="pt" class="cls-1" points="3.48 12.47 3.77 11.57 4.06 12.47 3.48 12.47"/><polygon id="pt-199" data-name="pt" class="cls-1" points="3.68 12.19 4.62 12.19 3.86 12.74 3.68 12.19"/><polygon id="pt-200" data-name="pt" class="cls-1" points="4 12.3 4.29 13.19 3.53 12.64 4 12.3"/></g><g id="star-56" data-name="star"><polygon id="pt-201" data-name="pt" class="cls-1" points="7.66 12.64 6.9 13.19 7.19 12.3 7.66 12.64"/><polygon id="pt-202" data-name="pt" class="cls-1" points="7.34 12.74 6.58 12.19 7.52 12.19 7.34 12.74"/><polygon id="pt-203" data-name="pt" class="cls-1" points="7.14 12.47 7.43 11.57 7.72 12.47 7.14 12.47"/><polygon id="pt-204" data-name="pt" class="cls-1" points="7.34 12.19 8.28 12.19 7.52 12.74 7.34 12.19"/><polygon id="pt-205" data-name="pt" class="cls-1" points="7.66 12.3 7.95 13.19 7.19 12.64 7.66 12.3"/></g><g id="star-57" data-name="star"><polygon id="pt-206" data-name="pt" class="cls-1" points="11.33 12.64 10.56 13.19 10.86 12.3 11.33 12.64"/><polygon id="pt-207" data-name="pt" class="cls-1" points="11 12.74 10.24 12.19 11.18 12.19 11 12.74"/><polygon id="pt-208" data-name="pt" class="cls-1" points="10.8 12.47 11.09 11.57 11.38 12.47 10.8 12.47"/><polygon id="pt-209" data-name="pt" class="cls-1" points="11 12.19 11.94 12.19 11.18 12.74 11 12.19"/><polygon id="pt-210" data-name="pt" class="cls-1" points="11.33 12.3 11.62 13.19 10.86 12.64 11.33 12.3"/></g><g id="star-58" data-name="star"><polygon id="pt-211" data-name="pt" class="cls-1" points="14.99 12.64 14.23 13.19 14.52 12.3 14.99 12.64"/><polygon id="pt-212" data-name="pt" class="cls-1" points="14.66 12.74 13.9 12.19 14.84 12.19 14.66 12.74"/><polygon id="pt-213" data-name="pt" class="cls-1" points="14.46 12.47 14.75 11.57 15.04 12.47 14.46 12.47"/><polygon id="pt-214" data-name="pt" class="cls-1" points="14.66 12.19 15.6 12.19 14.84 12.74 14.66 12.19"/><polygon id="pt-215" data-name="pt" class="cls-1" points="14.99 12.3 15.28 13.19 14.52 12.64 14.99 12.3"/></g><g id="s5-14" data-name="s5"><g id="star-59" data-name="star"><polygon id="pt-216" data-name="pt" class="cls-1" points="18.65 12.64 17.89 13.19 18.18 12.3 18.65 12.64"/><polygon id="pt-217" data-name="pt" class="cls-1" points="18.32 12.74 17.56 12.19 18.5 12.19 18.32 12.74"/><polygon id="pt-218" data-name="pt" class="cls-1" points="18.12 12.47 18.41 11.57 18.71 12.47 18.12 12.47"/><polygon id="pt-219" data-name="pt" class="cls-1" points="18.32 12.19 19.27 12.19 18.5 12.74 18.32 12.19"/><polygon id="pt-220" data-name="pt" class="cls-1" points="18.65 12.3 18.94 13.19 18.18 12.64 18.65 12.3"/></g></g></g><g id="_star_b3_4" data-name="&lt;star b3&gt;"><g id="star-60" data-name="star"><polygon id="pt-221" data-name="pt" class="cls-1" points="2.17 14.2 1.41 14.76 1.7 13.86 2.17 14.2"/><polygon id="pt-222" data-name="pt" class="cls-1" points="1.84 14.31 1.08 13.76 2.02 13.76 1.84 14.31"/><polygon id="pt-223" data-name="pt" class="cls-1" points="1.64 14.03 1.93 13.14 2.23 14.03 1.64 14.03"/><polygon id="pt-224" data-name="pt" class="cls-1" points="1.84 13.76 2.79 13.76 2.02 14.31 1.84 13.76"/><polygon id="pt-225" data-name="pt" class="cls-1" points="2.17 13.86 2.46 14.76 1.7 14.2 2.17 13.86"/></g><g id="star-61" data-name="star"><polygon id="pt-226" data-name="pt" class="cls-1" points="5.83 14.2 5.07 14.76 5.36 13.86 5.83 14.2"/><polygon id="pt-227" data-name="pt" class="cls-1" points="5.51 14.31 4.75 13.76 5.69 13.76 5.51 14.31"/><polygon id="pt-228" data-name="pt" class="cls-1" points="5.31 14.03 5.6 13.14 5.89 14.03 5.31 14.03"/><polygon id="pt-229" data-name="pt" class="cls-1" points="5.51 13.76 6.45 13.76 5.69 14.31 5.51 13.76"/><polygon id="pt-230" data-name="pt" class="cls-1" points="5.83 13.86 6.12 14.76 5.36 14.2 5.83 13.86"/></g><g id="star-62" data-name="star"><polygon id="pt-231" data-name="pt" class="cls-1" points="9.49 14.2 8.73 14.76 9.02 13.86 9.49 14.2"/><polygon id="pt-232" data-name="pt" class="cls-1" points="9.17 14.31 8.41 13.76 9.35 13.76 9.17 14.31"/><polygon id="pt-233" data-name="pt" class="cls-1" points="8.97 14.03 9.26 13.14 9.55 14.03 8.97 14.03"/><polygon id="pt-234" data-name="pt" class="cls-1" points="9.17 13.76 10.11 13.76 9.35 14.31 9.17 13.76"/><polygon id="pt-235" data-name="pt" class="cls-1" points="9.49 13.86 9.79 14.76 9.02 14.2 9.49 13.86"/></g><g id="star-63" data-name="star"><polygon id="pt-236" data-name="pt" class="cls-1" points="13.16 14.2 12.39 14.76 12.69 13.86 13.16 14.2"/><polygon id="pt-237" data-name="pt" class="cls-1" points="12.83 14.31 12.07 13.76 13.01 13.76 12.83 14.31"/><polygon id="pt-238" data-name="pt" class="cls-1" points="12.63 14.03 12.92 13.14 13.21 14.03 12.63 14.03"/><polygon id="pt-239" data-name="pt" class="cls-1" points="12.83 13.76 13.77 13.76 13.01 14.31 12.83 13.76"/><polygon id="pt-240" data-name="pt" class="cls-1" points="13.16 13.86 13.45 14.76 12.69 14.2 13.16 13.86"/></g><g id="s5-15" data-name="s5"><g id="star-64" data-name="star"><polygon id="pt-241" data-name="pt" class="cls-1" points="16.82 14.2 16.06 14.76 16.35 13.86 16.82 14.2"/><polygon id="pt-242" data-name="pt" class="cls-1" points="16.49 14.31 15.73 13.76 16.67 13.76 16.49 14.31"/><polygon id="pt-243" data-name="pt" class="cls-1" points="16.29 14.03 16.58 13.14 16.88 14.03 16.29 14.03"/><polygon id="pt-244" data-name="pt" class="cls-1" points="16.49 13.76 17.43 13.76 16.67 14.31 16.49 13.76"/><polygon id="pt-245" data-name="pt" class="cls-1" points="16.82 13.86 17.11 14.76 16.35 14.2 16.82 13.86"/></g></g><g id="s6-14" data-name="s6"><g id="star-65" data-name="star"><polygon id="pt-246" data-name="pt" class="cls-1" points="20.48 14.2 19.72 14.76 20.01 13.86 20.48 14.2"/><polygon id="pt-247" data-name="pt" class="cls-1" points="20.16 14.31 19.39 13.76 20.34 13.76 20.16 14.31"/><polygon id="pt-248" data-name="pt" class="cls-1" points="19.95 14.03 20.25 13.14 20.54 14.03 19.95 14.03"/><polygon id="pt-249" data-name="pt" class="cls-1" points="20.16 13.76 21.1 13.76 20.34 14.31 20.16 13.76"/><polygon id="pt-250" data-name="pt" class="cls-1" points="20.48 13.86 20.77 14.76 20.01 14.2 20.48 13.86"/></g></g></g></g></g></g></svg>