<svg xmlns="http://www.w3.org/2000/svg" viewBox="0 0 162.66 71.71"><defs><style>.cls-1{fill:#fff;}</style></defs><g id="Capa_2" data-name="Capa 2"><g id="Layer_1" data-name="Layer 1"><circle class="cls-1" cx="59.03" cy="14.89" r="14.89"/><path d="M62.89,15.63h-3v9.26H55.56V15.63H53.48V11.91h2.08V9.5A4.1,4.1,0,0,1,60,5.09h3.24V8.71H60.86a.89.89,0,0,0-.92,1v2.19h3.33Z"/><circle class="cls-1" cx="14.89" cy="14.89" r="14.89"/><path d="M14.73,13.48v3.16H20a5,5,0,0,1-5.24,4A5.83,5.83,0,0,1,14.73,9a5.19,5.19,0,0,1,3.68,1.43L20.91,8a8.84,8.84,0,0,0-6.18-2.41,9.23,9.23,0,0,0,0,18.45c5.33,0,8.86-3.74,8.86-9a8.34,8.34,0,0,0-.15-1.53Z"/><circle class="cls-1" cx="103.18" cy="14.89" r="14.89"/><path d="M107.22,5.62H99.4a4.8,4.8,0,0,0-4.81,4.8v7.83a4.81,4.81,0,0,0,4.81,4.81h7.82A4.81,4.81,0,0,0,112,18.25V10.42A4.8,4.8,0,0,0,107.22,5.62Zm3.4,12.61a3.42,3.42,0,0,1-3.42,3.42H99.42A3.42,3.42,0,0,1,96,18.23V10.44A3.42,3.42,0,0,1,99.42,7h7.78a3.42,3.42,0,0,1,3.42,3.42Z"/><path d="M103.31,9.74a4.6,4.6,0,1,0,4.59,4.6A4.6,4.6,0,0,0,103.31,9.74Zm0,7.59a3,3,0,1,1,3-3A3,3,0,0,1,103.31,17.33Z"/><circle cx="108.06" cy="9.59" r="1.03"/><circle class="cls-1" cx="147.77" cy="56.83" r="14.89"/><path d="M157.3,57.27v6.34h-3.68V57.69c0-1.49-.53-2.5-1.86-2.5a2,2,0,0,0-1.89,1.34,2.73,2.73,0,0,0-.12.9v6.18h-3.68s.05-10,0-11.06h3.68v1.56l0,0h0v0a3.66,3.66,0,0,1,3.32-1.82c2.42,0,4.23,1.58,4.23,5Zm-16.94,6.34H144V52.55h-3.68Zm3.79-14.82a1.9,1.9,0,1,1-1.89-1.89A1.9,1.9,0,0,1,144.15,48.79Z"/><circle class="cls-1" cx="147.77" cy="14.89" r="14.89"/><path d="M151.31,18.87v-7.7s.87,1.44,4,1.53a.29.29,0,0,0,.3-.3V10.22a.31.31,0,0,0-.29-.3,3.83,3.83,0,0,1-3.71-3.71.3.3,0,0,0-.3-.28h-2.49a.3.3,0,0,0-.3.3V18.47A2.52,2.52,0,0,1,146.19,21a2.46,2.46,0,0,1-.48-4.9,2.75,2.75,0,0,1,.64,0,.3.3,0,0,0,.34-.29V13.63a.3.3,0,0,0-.28-.3,5.06,5.06,0,0,0-.95,0,5.24,5.24,0,1,0,5.85,5.2"/><circle class="cls-1" cx="14.89" cy="56.83" r="14.89"/><path d="M20.28,51.58h-10a4.19,4.19,0,0,0,0,8.38h2.75a6,6,0,0,1-2.71,4.42s5-1,6-4.42h3.93a4.19,4.19,0,0,0,0-8.38Zm-8.92,5.23a1.15,1.15,0,1,1,1.15-1.15A1.15,1.15,0,0,1,11.36,56.81Zm3.89,0a1.15,1.15,0,1,1,1.14-1.15A1.16,1.16,0,0,1,15.25,56.81Zm4.24,0a1.15,1.15,0,1,1,1.14-1.15A1.15,1.15,0,0,1,19.49,56.81Z"/><circle class="cls-1" cx="59.03" cy="56.83" r="14.89"/><path d="M61.83,57.42A2.72,2.72,0,1,0,58,59.9v8.16a1.11,1.11,0,0,0,2.21,0V59.9A2.7,2.7,0,0,0,61.83,57.42Z"/><path d="M54.47,56.75c.32-6,9-6,9.29,0,0,.66,1.06.66,1,0a5.82,5.82,0,0,0-5.68-5.68c-3.2-.17-5.51,2.73-5.67,5.68,0,.66,1,.66,1,0Z"/><path d="M52,56.82c.47-9.21,13.84-9.21,14.3,0,0,.66,1.07.67,1,0-.53-10.54-15.82-10.54-16.36,0,0,.67,1,.66,1,0Z"/><path d="M49.75,56.75a9.52,9.52,0,0,1,9.36-9.36c5.26-.21,9.16,4.42,9.36,9.36,0,.66,1.06.66,1,0A10.57,10.57,0,0,0,59.11,46.36c-5.82-.24-10.17,4.91-10.39,10.39,0,.66,1,.66,1,0Z"/><circle class="cls-1" cx="103.18" cy="56.83" r="14.89"/><path d="M107.14,49.22h0a8.87,8.87,0,0,0-8.41,0h0a9,9,0,0,0-3.64,12.2v0h0a9,9,0,1,0,12-12.24Zm-3.81,4V49a8,8,0,0,1,3.22.84,16.64,16.64,0,0,1,1.18,3.35Zm4.57.81a18.35,18.35,0,0,1,.3,2.94h-4.87V54Zm-5.37-.81h-4.4a15.43,15.43,0,0,1,1.18-3.35,7.92,7.92,0,0,1,3.22-.84Zm0,.81v2.94H97.65A17.23,17.23,0,0,1,98,54Zm-5.68,2.94H94.77A8.18,8.18,0,0,1,95.4,54h1.74A18.53,18.53,0,0,0,96.85,56.92Zm0,.8a16.28,16.28,0,0,0,.34,2.94H95.58a8.06,8.06,0,0,1-.79-2.94Zm.8,0h4.87v2.94H98A16.48,16.48,0,0,1,97.66,57.72Zm4.87,3.74v3.81a8.07,8.07,0,0,1-3.21-.83,16.75,16.75,0,0,1-1.11-3Zm.8,0h4.31a16.75,16.75,0,0,1-1.11,3,8,8,0,0,1-3.2.83Zm0-.8V57.72h4.87a16.48,16.48,0,0,1-.36,2.94ZM109,57.72h2.06a8.25,8.25,0,0,1-.78,2.94h-1.62A18.3,18.3,0,0,0,109,57.72Zm0-.8a18.53,18.53,0,0,0-.29-2.94h1.74a8.18,8.18,0,0,1,.63,2.94Zm1.06-3.75h-1.51a19.64,19.64,0,0,0-.81-2.63A8.24,8.24,0,0,1,110.06,53.17Zm-12-2.63a18.41,18.41,0,0,0-.8,2.63H95.79A8.36,8.36,0,0,1,98.11,50.54ZM96,61.46h1.36a17.37,17.37,0,0,0,.74,2.25A8.35,8.35,0,0,1,96,61.46Zm11.71,2.25a16,16,0,0,0,.74-2.25h1.36A8,8,0,0,1,107.73,63.71Z"/></g></g></svg>