<svg xmlns="http://www.w3.org/2000/svg" viewBox="0 0 103.8 103.8"><defs><style>.cls-1{fill:#00c163;}.cls-2{fill:#fff;}</style></defs><g id="Capa_2" data-name="Capa 2"><g id="Layer_1" data-name="Layer 1"><path class="cls-1" d="M103.8,51.9a51.9,51.9,0,0,1-51.9,51.9h0A51.9,51.9,0,0,1,0,51.9H0A51.9,51.9,0,0,1,51.9,0h0a51.9,51.9,0,0,1,51.9,51.9Z"/><path class="cls-2" d="M51.71,18.64A31.19,31.19,0,0,0,25.08,64.17L21.6,79.76a1,1,0,0,0,1.18,1.18l15.6-3.48h0A31.17,31.17,0,1,0,51.71,18.64Zm1,55.88a24.54,24.54,0,0,1-12.44-3.37c-.34-.19-.67-.4-1-.61l-10,2.65,2.66-10A24.71,24.71,0,1,1,52.75,74.52Z"/><path class="cls-2" d="M67.41,60.68a11.85,11.85,0,0,1-1.61,2,7.42,7.42,0,0,1-6,2.15,25.33,25.33,0,0,1-14.56-7.48,25.28,25.28,0,0,1-7.49-14.56,7.46,7.46,0,0,1,2.16-6,12.48,12.48,0,0,1,2-1.61,2.17,2.17,0,0,1,3.28,1.09l1.63,4.91c.46,1.35.25,2.2-.33,2.77l-1.3,1.31a1.94,1.94,0,0,0-.26,2.43,33.38,33.38,0,0,0,4.58,5.44,33.38,33.38,0,0,0,5.44,4.58,1.92,1.92,0,0,0,2.42-.26l1.32-1.3c.57-.58,1.42-.79,2.77-.34l4.91,1.64A2.16,2.16,0,0,1,67.41,60.68Z"/></g></g></svg>