<?xml version="1.0" encoding="utf-8"?>
<!-- Generator: Adobe Illustrator 24.1.1, SVG Export Plug-In . SVG Version: 6.00 Build 0)  -->
<svg version="1.1" id="Capa_1" xmlns="http://www.w3.org/2000/svg" xmlns:xlink="http://www.w3.org/1999/xlink" x="0px" y="0px"
	 viewBox="0 0 170.4 59" style="enable-background:new 0 0 170.4 59;" xml:space="preserve">
<style type="text/css">
	.st0{fill:#FAE800;}
	.st1{fill:#231F20;}
</style>
<g>
	<g>
		<polygon class="st0" points="0,16.3 0,45.8 21.8,45.8 34.2,59 34.6,45.8 45,45.8 45,3.3 0,0 0,8.7 		"/>
		<g>
			<g>
				<path class="st1" d="M63.5,15.4H59v21.1h-3.4V15.4h-4.5v-4.2h12.4C63.5,11.2,63.5,15.4,63.5,15.4z"/>
				<path class="st1" d="M66,36.4V11.1h11.6v4.2h-8.2v6h7v4.2h-7v6.6h8.4v4.2L66,36.4L66,36.4z"/>
				<path class="st1" d="M90.6,36.4L85,22.5c-0.1-0.1-0.1-0.3-0.2-0.6s-0.2-0.5-0.3-0.8c-0.1-0.3-0.2-0.6-0.3-1L84,20.3
					c0,0.3,0,0.5,0,0.8c0,0.2,0,0.5,0,0.7c0,0.2,0,0.4,0,0.6v14.1h-3V11.1h3l5.6,13.9c0.1,0.2,0.2,0.4,0.3,0.6
					c0.1,0.3,0.2,0.5,0.3,0.8c0.1,0.3,0.2,0.6,0.3,0.9l0.1-0.1c0-0.3,0-0.6,0-0.9c0-0.2,0-0.5,0-0.7c0-0.2,0-0.4,0-0.5V11.1h3v25.3
					C93.6,36.4,90.6,36.4,90.6,36.4z"/>
				<path class="st1" d="M97.3,36.4V11.1h5.9c1.1,0,2.2,0.3,3.1,0.8c0.9,0.5,1.7,1.3,2.3,2.3c0.6,1,1.1,2.3,1.4,3.8s0.5,3.3,0.5,5.4
					c0,2.2-0.2,4-0.5,5.7c-0.3,1.6-0.8,3-1.4,4.1s-1.4,1.9-2.3,2.5s-1.9,0.8-3.1,0.8L97.3,36.4L97.3,36.4z M100.7,15.4v16.9h2.2
					c0.6,0,1.2-0.2,1.7-0.5c0.5-0.3,0.9-0.8,1.3-1.5c0.4-0.6,0.6-1.5,0.8-2.5s0.3-2.1,0.3-3.5v-1.8c0-1.2-0.1-2.2-0.3-3.1
					s-0.5-1.6-0.8-2.2c-0.4-0.6-0.8-1-1.3-1.3c-0.5-0.3-1.1-0.4-1.7-0.4C102.9,15.4,100.7,15.4,100.7,15.4z"/>
				<path class="st1" d="M113.6,36.4V11.1h11.6v4.2H117v6h7v4.2h-7v6.6h8.4v4.2L113.6,36.4L113.6,36.4z"/>
				<path class="st1" d="M138.1,36.4l-5.6-13.9c-0.1-0.1-0.1-0.3-0.2-0.6c-0.1-0.3-0.2-0.5-0.3-0.8c-0.1-0.3-0.2-0.6-0.3-1l-0.1,0.1
					c0,0.3,0,0.5,0,0.8c0,0.2,0,0.5,0,0.7c0,0.2,0,0.4,0,0.6v14.1h-3V11.1h3l5.6,13.9c0.1,0.2,0.1,0.4,0.3,0.6
					c0.1,0.3,0.2,0.5,0.3,0.8c0.1,0.3,0.2,0.6,0.3,0.9l0.1-0.1c0-0.3,0-0.6,0-0.9c0-0.2,0-0.5,0-0.7c0-0.2,0-0.4,0-0.5V11.1h3v25.3
					C141.2,36.4,138.1,36.4,138.1,36.4z"/>
				<path class="st1" d="M155.8,13l-7.5,19.3h7.7v4.2h-12.3v-1.8l7.5-19.3h-6.9v-4.2h11.6L155.8,13L155.8,13z"/>
				<path class="st1" d="M158.7,36.4V11.1h11.6v4.2h-8.2v6h7v4.2h-7v6.6h8.4v4.2L158.7,36.4L158.7,36.4z"/>
			</g>
		</g>
	</g>
</g>
</svg>
