<svg xmlns="http://www.w3.org/2000/svg" xmlns:xlink="http://www.w3.org/1999/xlink" viewBox="0 0 1366 700"><defs><style>.cls-1{fill:none;}.cls-2{fill:url(#linear-gradient);}.cls-3{fill:url(#linear-gradient-2);}.cls-4{fill:#fff;}.cls-16,.cls-5{fill:#dcdcdc;}.cls-6{fill:#ececec;}.cls-7{fill:#a8a8a8;}.cls-8{fill:#c8c8c8;}.cls-9{fill:#ffc800;}.cls-10{opacity:0.2;}.cls-11{opacity:0.1;}.cls-12{fill:#505050;}.cls-13{fill:#3e3e3e;}.cls-14,.cls-15{fill:#292929;}.cls-14{opacity:0.35;}.cls-15{opacity:0.15;}.cls-16{opacity:0.3;}</style><linearGradient id="linear-gradient" x1="381.73" y1="703.47" x2="381.73" y2="0.47" gradientUnits="userSpaceOnUse"><stop offset="0" stop-color="#fff"/><stop offset="0.4" stop-color="#e4e9eb"/><stop offset="1" stop-color="#c0cbcf"/></linearGradient><linearGradient id="linear-gradient-2" x1="683" y1="703.47" x2="683" y2="0.47" xlink:href="#linear-gradient"/></defs><g id="Capa_2" data-name="Capa 2"><g id="Layer_1" data-name="Layer 1"><polygon class="cls-1" points="0 700 0.22 700 0 0.47 1366 0.47 1365.78 700 1366 700 1366 0 0 0 0 700"/><rect class="cls-2" x="364.55" y="417.57" width="34.36" height="12.84"/><path class="cls-3" d="M0,.47.22,700h29.3V517.88h-4V507H36v-17H223.7v17h10.62v10.91h-3.94v31.27H253.5V532.57h19.31V522.31h57.86V487.58H297.73a26.81,26.81,0,0,1,32.94-26.14v-5.68h11a54,54,0,0,1,9.39-9.84v-15.5h11.65V417.57h-8.32V395.11h54.76v22.46h-8.33v12.85h39.58V454a34,34,0,0,1,7,1.81h6.85v3.52a34,34,0,0,1,15.15,28.3H454.2v34.73h31.61v10.26h18.47V413.2h11.07V393.63H623.51v12.25c.35.17.69.34,1,.53a39.39,39.39,0,0,1,62,3.13,24.26,24.26,0,0,1,32.92,22.66H630.82V700H639V549.15h26.49V532.57h19.32V522.31h59v10.26h9.89V423.19l53.66-34.78H741.13A35.08,35.08,0,0,1,794,358.17a45.74,45.74,0,0,1,73.14,6H881.8a21.92,21.92,0,0,1,5.91,0h37.4V700H937.7V375.06h-1.89v-7.37h133.46v7.37h-2.19V700h12.62V401.67h117.06V700H1209V464.08H1225v-45.9h67.9v21.67h18.06v24.23h19.74V700h35.13L1366,.47ZM321.92,397.18H198.56A30.81,30.81,0,0,1,241,368.62a45.5,45.5,0,0,1,74.8,5.74,24.14,24.14,0,0,1,32,22.82Z"/><path class="cls-4" d="M630.82,413.2v19h88.65a24.26,24.26,0,0,0-32.92-22.66,39.39,39.39,0,0,0-62-3.13c-.34-.19-.68-.36-1-.53v7.32Z"/><path class="cls-4" d="M323.61,373.06a24.17,24.17,0,0,0-7.83,1.3,45.5,45.5,0,0,0-74.8-5.74,30.81,30.81,0,0,0-42.42,28.56H347.73A24.12,24.12,0,0,0,323.61,373.06Z"/><path class="cls-4" d="M884.69,363.93a23,23,0,0,0-2.89.2h5.91A23.09,23.09,0,0,0,884.69,363.93Z"/><path class="cls-4" d="M867.11,364.13a45.74,45.74,0,0,0-73.14-6,35.08,35.08,0,0,0-52.84,30.24h66.22l37.47-24.28Z"/><path class="cls-4" d="M469.35,487.58a34,34,0,0,0-15.15-28.3v28.3Z"/><path class="cls-4" d="M351,445.92a54,54,0,0,0-9.39,9.84H351Z"/><path class="cls-4" d="M447.35,455.76a34,34,0,0,0-7-1.81v1.81Z"/><path class="cls-4" d="M324.57,460.73a26.85,26.85,0,0,0-26.84,26.85h32.94V461.44A26.66,26.66,0,0,0,324.57,460.73Z"/><path class="cls-5" d="M1079.7,401.67V700h65.45V401.67Zm22.88,291.16h-12.72v-13.1h12.72Zm0-22.25h-12.72v-13.1h12.72Zm0-22.24h-12.72v-13.1h12.72Zm0-22.24h-12.72V613h12.72Zm0-22.24h-12.72v-13.1h12.72Zm0-22.25h-12.72v-13.1h12.72Zm0-22.24h-12.72v-13.1h12.72Zm0-22.24h-12.72V524h12.72Zm0-22.24h-12.72v-13.1h12.72Zm0-22.25h-12.72v-13.1h12.72Zm0-22.24h-12.72V457.3h12.72Zm0-22.24h-12.72v-13.1h12.72Zm0-22.24h-12.72v-13.1h12.72Zm16.28,266.91h-12.72v-13.1h12.72Zm0-22.25h-12.72v-13.1h12.72Zm0-22.24h-12.72v-13.1h12.72Zm0-22.24h-12.72V613h12.72Zm0-22.24h-12.72v-13.1h12.72Zm0-22.25h-12.72v-13.1h12.72Zm0-22.24h-12.72v-13.1h12.72Zm0-22.24h-12.72V524h12.72Zm0-22.24h-12.72v-13.1h12.72Zm0-22.25h-12.72v-13.1h12.72Zm0-22.24h-12.72V457.3h12.72Zm0-22.24h-12.72v-13.1h12.72Zm0-22.24h-12.72v-13.1h12.72ZM1135,692.83h-12.72v-13.1H1135Zm0-22.25h-12.72v-13.1H1135Zm0-22.24h-12.72v-13.1H1135Zm0-22.24h-12.72V613H1135Zm0-22.24h-12.72v-13.1H1135Zm0-22.25h-12.72v-13.1H1135Zm0-22.24h-12.72v-13.1H1135Zm0-22.24h-12.72V524H1135Zm0-22.24h-12.72v-13.1H1135Zm0-22.25h-12.72v-13.1H1135Zm0-22.24h-12.72V457.3H1135Zm0-22.24h-12.72v-13.1H1135Zm-12.72-22.24v-13.1H1135v13.1Z"/><rect class="cls-6" x="1089.86" y="412.82" width="12.72" height="13.1"/><rect class="cls-6" x="1106.14" y="412.82" width="12.72" height="13.1"/><rect class="cls-6" x="1089.86" y="435.06" width="12.72" height="13.1"/><rect class="cls-6" x="1106.14" y="435.06" width="12.72" height="13.1"/><rect class="cls-6" x="1089.86" y="457.3" width="12.72" height="13.1"/><rect class="cls-6" x="1106.14" y="457.3" width="12.72" height="13.1"/><rect class="cls-6" x="1089.86" y="479.54" width="12.72" height="13.1"/><rect class="cls-6" x="1106.14" y="479.54" width="12.72" height="13.1"/><rect class="cls-6" x="1089.86" y="501.79" width="12.72" height="13.1"/><rect class="cls-6" x="1106.14" y="501.79" width="12.72" height="13.1"/><rect class="cls-6" x="1089.86" y="524.03" width="12.72" height="13.1"/><rect class="cls-6" x="1106.14" y="524.03" width="12.72" height="13.1"/><rect class="cls-6" x="1089.86" y="546.27" width="12.72" height="13.1"/><rect class="cls-6" x="1106.14" y="546.27" width="12.72" height="13.1"/><rect class="cls-6" x="1089.86" y="568.51" width="12.72" height="13.1"/><rect class="cls-6" x="1106.14" y="568.51" width="12.72" height="13.1"/><rect class="cls-6" x="1089.86" y="590.76" width="12.72" height="13.1"/><rect class="cls-6" x="1106.14" y="590.76" width="12.72" height="13.1"/><rect class="cls-6" x="1089.86" y="613" width="12.72" height="13.1"/><rect class="cls-6" x="1106.14" y="613" width="12.72" height="13.1"/><rect class="cls-6" x="1089.86" y="635.24" width="12.72" height="13.1"/><rect class="cls-6" x="1106.14" y="635.24" width="12.72" height="13.1"/><rect class="cls-6" x="1089.86" y="657.48" width="12.72" height="13.1"/><rect class="cls-6" x="1106.14" y="657.48" width="12.72" height="13.1"/><rect class="cls-6" x="1089.86" y="679.73" width="12.72" height="13.1"/><rect class="cls-6" x="1106.14" y="679.73" width="12.72" height="13.1"/><rect class="cls-6" x="1122.27" y="679.73" width="12.72" height="13.1"/><rect class="cls-6" x="1122.27" y="657.48" width="12.72" height="13.1"/><rect class="cls-6" x="1122.27" y="635.24" width="12.72" height="13.1"/><rect class="cls-6" x="1122.27" y="613" width="12.72" height="13.1"/><rect class="cls-6" x="1122.27" y="590.76" width="12.72" height="13.1"/><rect class="cls-6" x="1122.27" y="568.51" width="12.72" height="13.1"/><rect class="cls-6" x="1122.27" y="546.27" width="12.72" height="13.1"/><rect class="cls-6" x="1122.27" y="524.03" width="12.72" height="13.1"/><rect class="cls-6" x="1122.27" y="501.79" width="12.72" height="13.1"/><rect class="cls-6" x="1122.27" y="479.54" width="12.72" height="13.1"/><rect class="cls-6" x="1122.27" y="457.3" width="12.72" height="13.1"/><rect class="cls-6" x="1122.27" y="435.06" width="12.72" height="13.1"/><rect class="cls-6" x="1122.27" y="412.82" width="12.72" height="13.1"/><path class="cls-7" d="M1145.15,401.67V700h51.61V401.67Zm19.52,291.16h-10.5v-13.1h10.5Zm0-22.25h-10.5v-13.1h10.5Zm0-22.24h-10.5v-13.1h10.5Zm0-22.24h-10.5V613h10.5Zm0-22.24h-10.5v-13.1h10.5Zm0-22.25h-10.5v-13.1h10.5Zm0-22.24h-10.5v-13.1h10.5Zm0-22.24h-10.5V524h10.5Zm0-22.24h-10.5v-13.1h10.5Zm0-22.25h-10.5v-13.1h10.5Zm0-22.24h-10.5V457.3h10.5Zm0-22.24h-10.5v-13.1h10.5Zm0-22.24h-10.5v-13.1h10.5ZM1178,692.83h-10.51v-13.1H1178Zm0-22.25h-10.51v-13.1H1178Zm0-22.24h-10.51v-13.1H1178Zm0-22.24h-10.51V613H1178Zm0-22.24h-10.51v-13.1H1178Zm0-22.25h-10.51v-13.1H1178Zm0-22.24h-10.51v-13.1H1178Zm0-22.24h-10.51V524H1178Zm0-22.24h-10.51v-13.1H1178Zm0-22.25h-10.51v-13.1H1178Zm0-22.24h-10.51V457.3H1178Zm0-22.24h-10.51v-13.1H1178Zm0-22.24h-10.51v-13.1H1178Zm13.44,266.91h-10.51v-13.1h10.51Zm0-22.25h-10.51v-13.1h10.51Zm0-22.24h-10.51v-13.1h10.51Zm0-22.24h-10.51V613h10.51Zm0-22.24h-10.51v-13.1h10.51Zm0-22.25h-10.51v-13.1h10.51Zm0-22.24h-10.51v-13.1h10.51Zm0-22.24h-10.51V524h10.51Zm0-22.24h-10.51v-13.1h10.51Zm0-22.25h-10.51v-13.1h10.51Zm0-22.24h-10.51V457.3h10.51Zm0-22.24h-10.51v-13.1h10.51Zm-10.51-22.24v-13.1h10.51v13.1Z"/><rect class="cls-8" x="1180.93" y="679.73" width="10.51" height="13.1"/><rect class="cls-8" x="1167.49" y="679.73" width="10.51" height="13.1"/><rect class="cls-8" x="1180.93" y="657.48" width="10.51" height="13.1"/><rect class="cls-8" x="1167.49" y="657.48" width="10.51" height="13.1"/><rect class="cls-8" x="1180.93" y="635.24" width="10.51" height="13.1"/><rect class="cls-8" x="1167.49" y="635.24" width="10.51" height="13.1"/><rect class="cls-8" x="1180.93" y="613" width="10.51" height="13.1"/><rect class="cls-8" x="1167.49" y="613" width="10.51" height="13.1"/><rect class="cls-8" x="1180.93" y="590.76" width="10.51" height="13.1"/><rect class="cls-8" x="1167.49" y="590.76" width="10.51" height="13.1"/><rect class="cls-8" x="1180.93" y="568.51" width="10.51" height="13.1"/><rect class="cls-8" x="1167.49" y="568.51" width="10.51" height="13.1"/><rect class="cls-8" x="1180.93" y="546.27" width="10.51" height="13.1"/><rect class="cls-8" x="1167.49" y="546.27" width="10.51" height="13.1"/><rect class="cls-8" x="1180.93" y="524.03" width="10.51" height="13.1"/><rect class="cls-8" x="1167.49" y="524.03" width="10.51" height="13.1"/><rect class="cls-8" x="1180.93" y="501.79" width="10.51" height="13.1"/><rect class="cls-8" x="1167.49" y="501.79" width="10.51" height="13.1"/><rect class="cls-8" x="1180.93" y="479.54" width="10.51" height="13.1"/><rect class="cls-8" x="1167.49" y="479.54" width="10.51" height="13.1"/><rect class="cls-8" x="1180.93" y="457.3" width="10.51" height="13.1"/><rect class="cls-8" x="1167.49" y="457.3" width="10.51" height="13.1"/><rect class="cls-8" x="1180.93" y="435.06" width="10.51" height="13.1"/><rect class="cls-8" x="1167.49" y="435.06" width="10.51" height="13.1"/><rect class="cls-8" x="1180.93" y="412.82" width="10.51" height="13.1"/><rect class="cls-8" x="1154.17" y="412.82" width="10.51" height="13.1"/><rect class="cls-8" x="1154.17" y="435.06" width="10.51" height="13.1"/><rect class="cls-8" x="1154.17" y="457.3" width="10.51" height="13.1"/><rect class="cls-8" x="1154.17" y="479.54" width="10.51" height="13.1"/><rect class="cls-8" x="1154.17" y="501.79" width="10.51" height="13.1"/><rect class="cls-8" x="1154.17" y="524.03" width="10.51" height="13.1"/><rect class="cls-8" x="1154.17" y="546.27" width="10.51" height="13.1"/><rect class="cls-8" x="1154.17" y="568.51" width="10.51" height="13.1"/><rect class="cls-8" x="1154.17" y="590.76" width="10.51" height="13.1"/><rect class="cls-8" x="1154.17" y="613" width="10.51" height="13.1"/><rect class="cls-8" x="1154.17" y="635.24" width="10.51" height="13.1"/><rect class="cls-8" x="1154.17" y="657.48" width="10.51" height="13.1"/><rect class="cls-8" x="1154.17" y="679.73" width="10.51" height="13.1"/><rect class="cls-8" x="1167.49" y="412.82" width="10.51" height="13.1"/><polygon class="cls-6" points="937.7 375.06 937.7 700 944.83 700 944.83 693.18 944.83 678.65 944.83 669.56 944.83 655.03 944.83 645.95 944.83 631.41 944.83 622.32 944.83 607.79 944.83 598.7 944.83 584.17 944.83 575.09 944.83 560.55 944.83 551.46 944.83 536.93 944.83 527.84 944.83 513.31 944.83 504.22 944.83 489.69 944.83 480.6 944.83 466.07 944.83 456.98 944.83 442.45 944.83 433.36 944.83 418.83 944.83 409.74 944.83 395.21 944.83 385.91 952.81 385.91 952.81 395.21 952.81 409.74 952.81 418.83 952.81 433.36 952.81 442.45 952.81 456.98 952.81 466.07 952.81 480.6 952.81 489.69 952.81 504.22 952.81 513.31 952.81 527.84 952.81 536.93 952.81 551.46 952.81 560.55 952.81 575.09 952.81 584.17 952.81 598.7 952.81 607.79 952.81 622.32 952.81 631.41 952.81 645.95 952.81 655.03 952.81 669.56 952.81 678.65 952.81 693.18 952.81 700 958.97 700 958.97 693.18 958.97 678.65 958.97 669.56 958.97 655.03 958.97 645.95 958.97 631.41 958.97 622.32 958.97 607.79 958.97 598.7 958.97 584.17 958.97 575.09 958.97 560.55 958.97 551.46 958.97 536.93 958.97 527.84 958.97 513.31 958.97 504.22 958.97 489.69 958.97 480.6 958.97 466.07 958.97 456.98 958.97 442.45 958.97 433.36 958.97 418.83 958.97 409.74 958.97 395.21 958.97 385.91 966.95 385.91 966.95 395.21 966.95 409.74 966.95 418.83 966.95 433.36 966.95 442.45 966.95 456.98 966.95 466.07 966.95 480.6 966.95 489.69 966.95 504.22 966.95 513.31 966.95 527.84 966.95 536.93 966.95 551.46 966.95 560.55 966.95 575.09 966.95 584.17 966.95 598.7 966.95 607.79 966.95 622.32 966.95 631.41 966.95 645.95 966.95 655.03 966.95 669.56 966.95 678.65 966.95 693.18 966.95 700 973.11 700 973.11 693.18 973.11 678.65 973.11 669.56 973.11 655.03 973.11 645.95 973.11 631.41 973.11 622.32 973.11 607.79 973.11 598.7 973.11 584.17 973.11 575.09 973.11 560.55 973.11 551.46 973.11 536.93 973.11 527.84 973.11 513.31 973.11 504.22 973.11 489.69 973.11 480.6 973.11 466.07 973.11 456.98 973.11 442.45 973.11 433.36 973.11 418.83 973.11 409.74 973.11 395.21 973.11 385.91 981.09 385.91 981.09 395.21 981.09 409.74 981.09 418.83 981.09 433.36 981.09 442.45 981.09 456.98 981.09 466.07 981.09 480.6 981.09 489.69 981.09 504.22 981.09 513.31 981.09 527.84 981.09 536.93 981.09 551.46 981.09 560.55 981.09 575.09 981.09 584.17 981.09 598.7 981.09 607.79 981.09 622.32 981.09 631.41 981.09 645.95 981.09 655.03 981.09 669.56 981.09 678.65 981.09 693.18 981.09 700 987.25 700 987.25 693.18 987.25 678.65 987.25 669.56 987.25 655.03 987.25 645.95 987.25 631.41 987.25 622.32 987.25 607.79 987.25 598.7 987.25 584.17 987.25 575.09 987.25 560.55 987.25 551.46 987.25 536.93 987.25 527.84 987.25 513.31 987.25 504.22 987.25 489.69 987.25 480.6 987.25 466.07 987.25 456.98 987.25 442.45 987.25 433.36 987.25 418.83 987.25 409.74 987.25 395.21 987.25 385.91 995.23 385.91 995.23 395.21 995.23 409.74 995.23 418.83 995.23 433.36 995.23 442.45 995.23 456.98 995.23 466.07 995.23 480.6 995.23 489.69 995.23 504.22 995.23 513.31 995.23 527.84 995.23 536.93 995.23 551.46 995.23 560.55 995.23 575.09 995.23 584.17 995.23 598.7 995.23 607.79 995.23 622.32 995.23 631.41 995.23 645.95 995.23 655.03 995.23 669.56 995.23 678.65 995.23 693.18 995.23 700 1001.39 700 1001.39 693.18 1001.39 678.65 1001.39 669.56 1001.39 655.03 1001.39 645.95 1001.39 631.41 1001.39 622.32 1001.39 607.79 1001.39 598.7 1001.39 584.17 1001.39 575.09 1001.39 560.55 1001.39 551.46 1001.39 536.93 1001.39 527.84 1001.39 513.31 1001.39 504.22 1001.39 489.69 1001.39 480.6 1001.39 466.07 1001.39 456.98 1001.39 442.45 1001.39 433.36 1001.39 418.83 1001.39 409.74 1001.39 395.21 1001.39 385.91 1009.37 385.91 1009.37 395.21 1009.37 409.74 1009.37 418.83 1009.37 433.36 1009.37 442.45 1009.37 456.98 1009.37 466.07 1009.37 480.6 1009.37 489.69 1009.37 504.22 1009.37 513.31 1009.37 527.84 1009.37 536.93 1009.37 551.46 1009.37 560.55 1009.37 575.09 1009.37 584.17 1009.37 598.7 1009.37 607.79 1009.37 622.32 1009.37 631.41 1009.37 645.95 1009.37 655.03 1009.37 669.56 1009.37 678.65 1009.37 693.18 1009.37 700 1016.5 700 1016.5 375.06 937.7 375.06"/><polygon class="cls-8" points="1016.5 367.69 935.81 367.69 935.81 375.06 937.7 375.06 1016.5 375.06 1016.5 367.69"/><rect class="cls-4" x="944.83" y="385.91" width="7.98" height="9.3"/><rect class="cls-4" x="944.83" y="480.6" width="7.98" height="9.09"/><rect class="cls-4" x="944.83" y="669.56" width="7.98" height="9.09"/><rect class="cls-4" x="944.83" y="504.22" width="7.98" height="9.09"/><rect class="cls-4" x="944.83" y="456.98" width="7.98" height="9.09"/><rect class="cls-4" x="944.83" y="433.36" width="7.98" height="9.09"/><rect class="cls-4" x="944.83" y="409.74" width="7.98" height="9.09"/><rect class="cls-4" x="944.83" y="527.84" width="7.98" height="9.09"/><rect class="cls-4" x="944.83" y="693.18" width="7.98" height="6.82"/><rect class="cls-4" x="944.83" y="575.08" width="7.98" height="9.09"/><rect class="cls-4" x="944.83" y="645.94" width="7.98" height="9.09"/><rect class="cls-4" x="944.83" y="551.46" width="7.98" height="9.09"/><rect class="cls-4" x="944.83" y="622.32" width="7.98" height="9.09"/><rect class="cls-4" x="944.83" y="598.7" width="7.98" height="9.09"/><rect class="cls-4" x="958.97" y="575.08" width="7.98" height="9.09"/><rect class="cls-4" x="958.97" y="433.36" width="7.98" height="9.09"/><rect class="cls-4" x="958.97" y="598.7" width="7.98" height="9.09"/><rect class="cls-4" x="958.97" y="622.32" width="7.98" height="9.09"/><rect class="cls-4" x="958.97" y="551.46" width="7.98" height="9.09"/><rect class="cls-4" x="958.97" y="504.22" width="7.98" height="9.09"/><rect class="cls-4" x="958.97" y="385.91" width="7.98" height="9.3"/><rect class="cls-4" x="958.97" y="456.98" width="7.98" height="9.09"/><rect class="cls-4" x="958.97" y="527.84" width="7.98" height="9.09"/><rect class="cls-4" x="958.97" y="480.6" width="7.98" height="9.09"/><rect class="cls-4" x="958.97" y="409.74" width="7.98" height="9.09"/><rect class="cls-4" x="958.97" y="693.18" width="7.98" height="6.82"/><rect class="cls-4" x="958.97" y="669.56" width="7.98" height="9.09"/><rect class="cls-4" x="958.97" y="645.94" width="7.98" height="9.09"/><rect class="cls-4" x="973.11" y="575.08" width="7.98" height="9.09"/><rect class="cls-4" x="973.11" y="645.94" width="7.98" height="9.09"/><rect class="cls-4" x="973.11" y="622.32" width="7.98" height="9.09"/><rect class="cls-4" x="973.11" y="551.46" width="7.98" height="9.09"/><rect class="cls-4" x="973.11" y="693.18" width="7.98" height="6.82"/><rect class="cls-4" x="973.11" y="669.56" width="7.98" height="9.09"/><rect class="cls-4" x="973.11" y="598.7" width="7.98" height="9.09"/><rect class="cls-4" x="973.11" y="409.74" width="7.98" height="9.09"/><rect class="cls-4" x="973.11" y="456.98" width="7.98" height="9.09"/><rect class="cls-4" x="973.11" y="433.36" width="7.98" height="9.09"/><rect class="cls-4" x="973.11" y="385.91" width="7.98" height="9.3"/><rect class="cls-4" x="973.11" y="504.22" width="7.98" height="9.09"/><rect class="cls-4" x="973.11" y="480.6" width="7.98" height="9.09"/><rect class="cls-4" x="973.11" y="527.84" width="7.98" height="9.09"/><rect class="cls-4" x="987.25" y="527.84" width="7.98" height="9.09"/><rect class="cls-4" x="987.25" y="504.22" width="7.98" height="9.09"/><rect class="cls-4" x="987.25" y="409.74" width="7.98" height="9.09"/><rect class="cls-4" x="987.25" y="433.36" width="7.98" height="9.09"/><rect class="cls-4" x="987.25" y="480.6" width="7.98" height="9.09"/><rect class="cls-4" x="987.25" y="385.91" width="7.98" height="9.3"/><rect class="cls-4" x="987.25" y="456.98" width="7.98" height="9.09"/><rect class="cls-4" x="987.25" y="645.94" width="7.98" height="9.09"/><rect class="cls-4" x="987.25" y="669.56" width="7.98" height="9.09"/><rect class="cls-4" x="987.25" y="551.46" width="7.98" height="9.09"/><rect class="cls-4" x="987.25" y="693.18" width="7.98" height="6.82"/><rect class="cls-4" x="987.25" y="575.08" width="7.98" height="9.09"/><rect class="cls-4" x="987.25" y="622.32" width="7.98" height="9.09"/><rect class="cls-4" x="987.25" y="598.7" width="7.98" height="9.09"/><rect class="cls-4" x="1001.39" y="480.6" width="7.98" height="9.09"/><rect class="cls-4" x="1001.39" y="504.22" width="7.98" height="9.09"/><rect class="cls-4" x="1001.39" y="527.84" width="7.98" height="9.09"/><rect class="cls-4" x="1001.39" y="669.56" width="7.98" height="9.09"/><rect class="cls-4" x="1001.39" y="645.94" width="7.98" height="9.09"/><rect class="cls-4" x="1001.39" y="693.18" width="7.98" height="6.82"/><rect class="cls-4" x="1001.39" y="622.32" width="7.98" height="9.09"/><rect class="cls-4" x="1001.39" y="598.7" width="7.98" height="9.09"/><rect class="cls-4" x="1001.39" y="551.46" width="7.98" height="9.09"/><rect class="cls-4" x="1001.39" y="575.08" width="7.98" height="9.09"/><rect class="cls-4" x="1001.39" y="456.98" width="7.98" height="9.09"/><rect class="cls-4" x="1001.39" y="385.91" width="7.98" height="9.3"/><rect class="cls-4" x="1001.39" y="409.74" width="7.98" height="9.09"/><rect class="cls-4" x="1001.39" y="433.36" width="7.98" height="9.09"/><rect class="cls-6" x="944.83" y="395.21" width="7.98" height="14.53"/><rect class="cls-6" x="958.97" y="395.21" width="7.98" height="14.53"/><rect class="cls-6" x="973.11" y="395.21" width="7.98" height="14.53"/><rect class="cls-6" x="987.25" y="395.21" width="7.98" height="14.53"/><rect class="cls-6" x="1001.39" y="395.21" width="7.98" height="14.53"/><rect class="cls-6" x="944.83" y="418.83" width="7.98" height="14.53"/><rect class="cls-6" x="958.97" y="418.83" width="7.98" height="14.53"/><rect class="cls-6" x="973.11" y="418.83" width="7.98" height="14.53"/><rect class="cls-6" x="987.25" y="418.83" width="7.98" height="14.53"/><rect class="cls-6" x="1001.39" y="418.83" width="7.98" height="14.53"/><rect class="cls-6" x="944.83" y="442.45" width="7.98" height="14.53"/><rect class="cls-6" x="958.97" y="442.45" width="7.98" height="14.53"/><rect class="cls-6" x="973.11" y="442.45" width="7.98" height="14.53"/><rect class="cls-6" x="987.25" y="442.45" width="7.98" height="14.53"/><rect class="cls-6" x="1001.39" y="442.45" width="7.98" height="14.53"/><rect class="cls-6" x="944.83" y="466.07" width="7.98" height="14.53"/><rect class="cls-6" x="958.97" y="466.07" width="7.98" height="14.53"/><rect class="cls-6" x="973.11" y="466.07" width="7.98" height="14.53"/><rect class="cls-6" x="987.25" y="466.07" width="7.98" height="14.53"/><rect class="cls-6" x="1001.39" y="466.07" width="7.98" height="14.53"/><rect class="cls-6" x="944.83" y="489.69" width="7.98" height="14.53"/><rect class="cls-6" x="958.97" y="489.69" width="7.98" height="14.53"/><rect class="cls-6" x="973.11" y="489.69" width="7.98" height="14.53"/><rect class="cls-6" x="987.25" y="489.69" width="7.98" height="14.53"/><rect class="cls-6" x="1001.39" y="489.69" width="7.98" height="14.53"/><rect class="cls-6" x="944.83" y="513.31" width="7.98" height="14.53"/><rect class="cls-6" x="958.97" y="513.31" width="7.98" height="14.53"/><rect class="cls-6" x="973.11" y="513.31" width="7.98" height="14.53"/><rect class="cls-6" x="987.25" y="513.31" width="7.98" height="14.53"/><rect class="cls-6" x="1001.39" y="513.31" width="7.98" height="14.53"/><rect class="cls-6" x="944.83" y="536.93" width="7.98" height="14.53"/><rect class="cls-6" x="958.97" y="536.93" width="7.98" height="14.53"/><rect class="cls-6" x="973.11" y="536.93" width="7.98" height="14.53"/><rect class="cls-6" x="987.25" y="536.93" width="7.98" height="14.53"/><rect class="cls-6" x="1001.39" y="536.93" width="7.98" height="14.53"/><rect class="cls-6" x="944.83" y="560.55" width="7.98" height="14.53"/><rect class="cls-6" x="958.97" y="560.55" width="7.98" height="14.53"/><rect class="cls-6" x="973.11" y="560.55" width="7.98" height="14.53"/><rect class="cls-6" x="987.25" y="560.55" width="7.98" height="14.53"/><rect class="cls-6" x="1001.39" y="560.55" width="7.98" height="14.53"/><rect class="cls-6" x="944.83" y="584.17" width="7.98" height="14.53"/><rect class="cls-6" x="958.97" y="584.17" width="7.98" height="14.53"/><rect class="cls-6" x="973.11" y="584.17" width="7.98" height="14.53"/><rect class="cls-6" x="987.25" y="584.17" width="7.98" height="14.53"/><rect class="cls-6" x="1001.39" y="584.17" width="7.98" height="14.53"/><rect class="cls-6" x="944.83" y="607.79" width="7.98" height="14.53"/><rect class="cls-6" x="958.97" y="607.79" width="7.98" height="14.53"/><rect class="cls-6" x="973.11" y="607.79" width="7.98" height="14.53"/><rect class="cls-6" x="987.25" y="607.79" width="7.98" height="14.53"/><rect class="cls-6" x="1001.39" y="607.79" width="7.98" height="14.53"/><rect class="cls-6" x="944.83" y="631.41" width="7.98" height="14.53"/><rect class="cls-6" x="958.97" y="631.41" width="7.98" height="14.53"/><rect class="cls-6" x="973.11" y="631.41" width="7.98" height="14.53"/><rect class="cls-6" x="987.25" y="631.41" width="7.98" height="14.53"/><rect class="cls-6" x="1001.39" y="631.41" width="7.98" height="14.53"/><rect class="cls-6" x="944.83" y="655.03" width="7.98" height="14.53"/><rect class="cls-6" x="958.97" y="655.03" width="7.98" height="14.53"/><rect class="cls-6" x="973.11" y="655.03" width="7.98" height="14.53"/><rect class="cls-6" x="987.25" y="655.03" width="7.98" height="14.53"/><rect class="cls-6" x="1001.39" y="655.03" width="7.98" height="14.53"/><rect class="cls-6" x="944.83" y="678.65" width="7.98" height="14.53"/><rect class="cls-6" x="958.97" y="678.65" width="7.98" height="14.53"/><rect class="cls-6" x="973.11" y="678.65" width="7.98" height="14.53"/><rect class="cls-6" x="987.25" y="678.65" width="7.98" height="14.53"/><rect class="cls-6" x="1001.39" y="678.65" width="7.98" height="14.53"/><polygon class="cls-5" points="1016.5 375.06 1016.5 700 1023.62 700 1023.62 693.18 1023.62 678.65 1023.62 669.56 1023.62 655.03 1023.62 645.95 1023.62 631.41 1023.62 622.32 1023.62 607.79 1023.62 598.7 1023.62 584.17 1023.62 575.09 1023.62 560.55 1023.62 551.46 1023.62 536.93 1023.62 527.84 1023.62 513.31 1023.62 504.22 1023.62 489.69 1023.62 480.6 1023.62 466.07 1023.62 456.98 1023.62 442.45 1023.62 433.36 1023.62 418.83 1023.62 409.74 1023.62 395.21 1023.62 385.91 1031.6 385.91 1031.6 395.21 1031.6 409.74 1031.6 418.83 1031.6 433.36 1031.6 442.45 1031.6 456.98 1031.6 466.07 1031.6 480.6 1031.6 489.69 1031.6 504.22 1031.6 513.31 1031.6 527.84 1031.6 536.93 1031.6 551.46 1031.6 560.55 1031.6 575.09 1031.6 584.17 1031.6 598.7 1031.6 607.79 1031.6 622.32 1031.6 631.41 1031.6 645.95 1031.6 655.03 1031.6 669.56 1031.6 678.65 1031.6 693.18 1031.6 700 1037.76 700 1037.76 693.18 1037.76 678.65 1037.76 669.56 1037.76 655.03 1037.76 645.95 1037.76 631.41 1037.76 622.32 1037.76 607.79 1037.76 598.7 1037.76 584.17 1037.76 575.09 1037.76 560.55 1037.76 551.46 1037.76 536.93 1037.76 527.84 1037.76 513.31 1037.76 504.22 1037.76 489.69 1037.76 480.6 1037.76 466.07 1037.76 456.98 1037.76 442.45 1037.76 433.36 1037.76 418.83 1037.76 409.74 1037.76 395.21 1037.76 385.91 1045.75 385.91 1045.75 395.21 1045.75 409.74 1045.75 418.83 1045.75 433.36 1045.75 442.45 1045.75 456.98 1045.75 466.07 1045.75 480.6 1045.75 489.69 1045.75 504.22 1045.75 513.31 1045.75 527.84 1045.75 536.93 1045.75 551.46 1045.75 560.55 1045.75 575.09 1045.75 584.17 1045.75 598.7 1045.75 607.79 1045.75 622.32 1045.75 631.41 1045.75 645.95 1045.75 655.03 1045.75 669.56 1045.75 678.65 1045.75 693.18 1045.75 700 1051.9 700 1051.9 693.18 1051.9 678.65 1051.9 669.56 1051.9 655.03 1051.9 645.95 1051.9 631.41 1051.9 622.32 1051.9 607.79 1051.9 598.7 1051.9 584.17 1051.9 575.09 1051.9 560.55 1051.9 551.46 1051.9 536.93 1051.9 527.84 1051.9 513.31 1051.9 504.22 1051.9 489.69 1051.9 480.6 1051.9 466.07 1051.9 456.98 1051.9 442.45 1051.9 433.36 1051.9 418.83 1051.9 409.74 1051.9 395.21 1051.9 385.91 1059.89 385.91 1059.89 395.21 1059.89 409.74 1059.89 418.83 1059.89 433.36 1059.89 442.45 1059.89 456.98 1059.89 466.07 1059.89 480.6 1059.89 489.69 1059.89 504.22 1059.89 513.31 1059.89 527.84 1059.89 536.93 1059.89 551.46 1059.89 560.55 1059.89 575.09 1059.89 584.17 1059.89 598.7 1059.89 607.79 1059.89 622.32 1059.89 631.41 1059.89 645.95 1059.89 655.03 1059.89 669.56 1059.89 678.65 1059.89 693.18 1059.89 700 1067.08 700 1067.08 375.06 1016.5 375.06"/><polygon class="cls-8" points="1067.08 375.06 1069.27 375.06 1069.27 367.69 1016.5 367.69 1016.5 375.06 1067.08 375.06"/><rect class="cls-8" x="1023.62" y="480.6" width="7.98" height="9.09"/><rect class="cls-8" x="1023.62" y="693.18" width="7.98" height="6.82"/><rect class="cls-8" x="1023.62" y="645.94" width="7.98" height="9.09"/><rect class="cls-8" x="1023.62" y="669.56" width="7.98" height="9.09"/><rect class="cls-8" x="1023.62" y="598.7" width="7.98" height="9.09"/><rect class="cls-8" x="1023.62" y="385.91" width="7.98" height="9.3"/><rect class="cls-8" x="1023.62" y="622.32" width="7.98" height="9.09"/><rect class="cls-8" x="1023.62" y="433.36" width="7.98" height="9.09"/><rect class="cls-8" x="1023.62" y="551.46" width="7.98" height="9.09"/><rect class="cls-8" x="1023.62" y="409.74" width="7.98" height="9.09"/><rect class="cls-8" x="1023.62" y="504.22" width="7.98" height="9.09"/><rect class="cls-8" x="1023.62" y="527.84" width="7.98" height="9.09"/><rect class="cls-8" x="1023.62" y="575.08" width="7.98" height="9.09"/><rect class="cls-8" x="1023.62" y="456.98" width="7.98" height="9.09"/><rect class="cls-8" x="1037.76" y="693.18" width="7.98" height="6.82"/><rect class="cls-8" x="1037.76" y="575.08" width="7.98" height="9.09"/><rect class="cls-8" x="1037.76" y="551.46" width="7.98" height="9.09"/><rect class="cls-8" x="1037.76" y="598.7" width="7.98" height="9.09"/><rect class="cls-8" x="1037.76" y="669.56" width="7.98" height="9.09"/><rect class="cls-8" x="1037.76" y="527.84" width="7.98" height="9.09"/><rect class="cls-8" x="1037.76" y="622.32" width="7.98" height="9.09"/><rect class="cls-8" x="1037.76" y="645.94" width="7.98" height="9.09"/><rect class="cls-8" x="1037.76" y="409.74" width="7.98" height="9.09"/><rect class="cls-8" x="1037.76" y="480.6" width="7.98" height="9.09"/><rect class="cls-8" x="1037.76" y="504.22" width="7.98" height="9.09"/><rect class="cls-8" x="1037.76" y="456.98" width="7.98" height="9.09"/><rect class="cls-8" x="1037.76" y="433.36" width="7.98" height="9.09"/><rect class="cls-8" x="1037.76" y="385.91" width="7.98" height="9.3"/><rect class="cls-8" x="1051.9" y="456.98" width="7.98" height="9.09"/><rect class="cls-8" x="1051.9" y="693.18" width="7.98" height="6.82"/><rect class="cls-8" x="1051.9" y="669.56" width="7.98" height="9.09"/><rect class="cls-8" x="1051.9" y="645.94" width="7.98" height="9.09"/><rect class="cls-8" x="1051.9" y="622.32" width="7.98" height="9.09"/><rect class="cls-8" x="1051.9" y="385.91" width="7.98" height="9.3"/><rect class="cls-8" x="1051.9" y="575.08" width="7.98" height="9.09"/><rect class="cls-8" x="1051.9" y="433.36" width="7.98" height="9.09"/><rect class="cls-8" x="1051.9" y="551.46" width="7.98" height="9.09"/><rect class="cls-8" x="1051.9" y="527.84" width="7.98" height="9.09"/><rect class="cls-8" x="1051.9" y="504.22" width="7.98" height="9.09"/><rect class="cls-8" x="1051.9" y="598.7" width="7.98" height="9.09"/><rect class="cls-8" x="1051.9" y="409.74" width="7.98" height="9.09"/><rect class="cls-8" x="1051.9" y="480.6" width="7.98" height="9.09"/><rect class="cls-5" x="1023.62" y="395.21" width="7.98" height="14.53"/><rect class="cls-5" x="1037.76" y="395.21" width="7.98" height="14.53"/><rect class="cls-5" x="1051.9" y="395.21" width="7.98" height="14.53"/><rect class="cls-5" x="1023.62" y="418.83" width="7.98" height="14.53"/><rect class="cls-5" x="1037.76" y="418.83" width="7.98" height="14.53"/><rect class="cls-5" x="1051.9" y="418.83" width="7.98" height="14.53"/><rect class="cls-5" x="1023.62" y="442.45" width="7.98" height="14.53"/><rect class="cls-5" x="1037.76" y="442.45" width="7.98" height="14.53"/><rect class="cls-5" x="1051.9" y="442.45" width="7.98" height="14.53"/><rect class="cls-5" x="1023.62" y="466.07" width="7.98" height="14.53"/><rect class="cls-5" x="1037.76" y="466.07" width="7.98" height="14.53"/><rect class="cls-5" x="1051.9" y="466.07" width="7.98" height="14.53"/><rect class="cls-5" x="1023.62" y="489.69" width="7.98" height="14.53"/><rect class="cls-5" x="1037.76" y="489.69" width="7.98" height="14.53"/><rect class="cls-5" x="1051.9" y="489.69" width="7.98" height="14.53"/><rect class="cls-5" x="1023.62" y="513.31" width="7.98" height="14.53"/><rect class="cls-5" x="1037.76" y="513.31" width="7.98" height="14.53"/><rect class="cls-5" x="1051.9" y="513.31" width="7.98" height="14.53"/><rect class="cls-5" x="1023.62" y="536.93" width="7.98" height="14.53"/><rect class="cls-5" x="1037.76" y="536.93" width="7.98" height="14.53"/><rect class="cls-5" x="1051.9" y="536.93" width="7.98" height="14.53"/><rect class="cls-5" x="1023.62" y="560.55" width="7.98" height="14.53"/><rect class="cls-5" x="1037.76" y="560.55" width="7.98" height="14.53"/><rect class="cls-5" x="1051.9" y="560.55" width="7.98" height="14.53"/><rect class="cls-5" x="1023.62" y="584.17" width="7.98" height="14.53"/><rect class="cls-5" x="1037.76" y="584.17" width="7.98" height="14.53"/><rect class="cls-5" x="1051.9" y="584.17" width="7.98" height="14.53"/><rect class="cls-5" x="1023.62" y="607.79" width="7.98" height="14.53"/><rect class="cls-5" x="1037.76" y="607.79" width="7.98" height="14.53"/><rect class="cls-5" x="1051.9" y="607.79" width="7.98" height="14.53"/><rect class="cls-5" x="1023.62" y="631.41" width="7.98" height="14.53"/><rect class="cls-5" x="1037.76" y="631.41" width="7.98" height="14.53"/><rect class="cls-5" x="1051.9" y="631.41" width="7.98" height="14.53"/><rect class="cls-5" x="1023.62" y="655.03" width="7.98" height="14.53"/><rect class="cls-5" x="1037.76" y="655.03" width="7.98" height="14.53"/><rect class="cls-5" x="1051.9" y="655.03" width="7.98" height="14.53"/><rect class="cls-5" x="1023.62" y="678.65" width="7.98" height="14.53"/><rect class="cls-5" x="1037.76" y="678.65" width="7.98" height="14.53"/><rect class="cls-5" x="1051.9" y="678.65" width="7.98" height="14.53"/><polygon class="cls-6" points="582.09 413.2 515.35 413.2 504.28 413.2 504.28 532.57 507.43 532.57 507.43 549.15 512.81 549.15 512.81 536.05 512.81 530.84 512.81 514.46 512.81 509.24 512.81 492.87 512.81 487.65 512.81 471.27 512.81 466.06 512.81 449.68 512.81 444.47 512.81 423.42 573.56 423.42 573.56 444.47 573.56 449.68 573.56 466.06 573.56 471.27 573.56 487.65 573.56 492.87 573.56 509.24 573.56 514.46 573.56 530.84 573.56 536.05 573.56 552.43 573.56 557.64 573.56 574.02 573.56 579.23 573.56 595.61 573.56 600.82 573.56 617.2 573.56 622.42 573.56 638.79 573.56 644.01 515.85 644.01 515.85 700 582.09 700 582.09 413.2"/><rect class="cls-8" x="515.35" y="393.63" width="66.74" height="19.57"/><rect class="cls-5" x="515.85" y="579.23" width="57.71" height="16.38"/><rect class="cls-5" x="512.81" y="449.68" width="60.74" height="16.38"/><rect class="cls-5" x="512.81" y="471.27" width="60.74" height="16.38"/><polygon class="cls-5" points="515.85 552.43 573.56 552.43 573.56 536.05 512.81 536.05 512.81 549.15 515.85 549.15 515.85 552.43"/><rect class="cls-5" x="515.85" y="557.64" width="57.71" height="16.38"/><rect class="cls-5" x="512.81" y="423.42" width="60.74" height="21.05"/><rect class="cls-5" x="512.81" y="492.87" width="60.74" height="16.38"/><rect class="cls-5" x="515.85" y="600.82" width="57.71" height="16.38"/><rect class="cls-5" x="512.81" y="514.46" width="60.74" height="16.38"/><rect class="cls-5" x="515.85" y="622.42" width="57.71" height="16.38"/><rect class="cls-4" x="512.81" y="444.47" width="60.74" height="5.21"/><rect class="cls-4" x="512.81" y="466.06" width="60.74" height="5.21"/><rect class="cls-4" x="512.81" y="487.65" width="60.74" height="5.21"/><rect class="cls-4" x="512.81" y="509.24" width="60.74" height="5.21"/><rect class="cls-4" x="512.81" y="530.84" width="60.74" height="5.21"/><rect class="cls-4" x="515.85" y="552.43" width="57.71" height="5.21"/><rect class="cls-4" x="515.85" y="574.02" width="57.71" height="5.21"/><rect class="cls-4" x="515.85" y="595.61" width="57.71" height="5.21"/><rect class="cls-4" x="515.85" y="617.2" width="57.71" height="5.21"/><rect class="cls-4" x="515.85" y="638.79" width="57.71" height="5.21"/><path class="cls-5" d="M630.82,413.2H582.09V700h48.73V413.2Zm-4.54,36.48V644H588.81V423.42h37.47v26.26Z"/><polygon class="cls-7" points="623.51 413.2 623.51 405.88 623.51 393.63 582.09 393.63 582.09 413.2 623.51 413.2"/><rect class="cls-8" x="588.81" y="579.23" width="37.47" height="16.38"/><rect class="cls-8" x="588.81" y="600.82" width="37.47" height="16.38"/><rect class="cls-8" x="588.81" y="622.42" width="37.47" height="16.38"/><rect class="cls-8" x="588.81" y="514.46" width="37.47" height="16.38"/><rect class="cls-8" x="588.81" y="557.64" width="37.47" height="16.38"/><rect class="cls-8" x="588.81" y="492.87" width="37.47" height="16.38"/><rect class="cls-8" x="588.81" y="536.05" width="37.47" height="16.38"/><rect class="cls-8" x="588.81" y="449.68" width="37.47" height="16.38"/><rect class="cls-8" x="588.81" y="471.27" width="37.47" height="16.38"/><rect class="cls-8" x="588.81" y="423.42" width="37.47" height="21.05"/><rect class="cls-4" x="588.81" y="444.47" width="37.47" height="5.21"/><rect class="cls-4" x="588.81" y="466.06" width="37.47" height="5.21"/><rect class="cls-4" x="588.81" y="487.65" width="37.47" height="5.21"/><rect class="cls-4" x="588.81" y="509.24" width="37.47" height="5.21"/><rect class="cls-4" x="588.81" y="530.84" width="37.47" height="5.21"/><rect class="cls-4" x="588.81" y="552.43" width="37.47" height="5.21"/><rect class="cls-4" x="588.81" y="574.02" width="37.47" height="5.21"/><rect class="cls-4" x="588.81" y="595.61" width="37.47" height="5.21"/><rect class="cls-4" x="588.81" y="617.2" width="37.47" height="5.21"/><rect class="cls-4" x="588.81" y="638.79" width="37.47" height="5.21"/><rect class="cls-5" x="1224.95" y="418.18" width="41.55" height="45.9"/><polygon class="cls-8" points="1268.46 464.07 1268.46 439.86 1292.85 439.86 1292.85 418.18 1266.5 418.18 1266.5 464.07 1268.46 464.07"/><polygon class="cls-5" points="1268.46 464.07 1276.2 464.07 1294.6 464.07 1294.6 439.86 1292.85 439.86 1268.46 439.86 1268.46 464.07"/><rect class="cls-8" x="1294.6" y="439.85" width="16.31" height="24.22"/><path class="cls-6" d="M1276.2,464.08H1209V700h67.19Zm-38.38,209.68h-21.13v-8.63h21.13Zm0-14.66h-21.13v-8.63h21.13Zm0-14.66h-21.13v-8.63h21.13Zm0-14.65h-21.13v-8.64h21.13Zm0-14.66h-21.13v-8.64h21.13Zm0-14.66h-21.13v-8.63h21.13Zm0-14.66h-21.13v-8.63h21.13Zm0-14.66h-21.13v-8.63h21.13Zm0-14.65h-21.13v-8.64h21.13Zm0-14.66h-21.13V533.2h21.13Zm0-14.66h-21.13v-8.63h21.13Zm0-14.66h-21.13v-8.63h21.13Zm0-14.66h-21.13v-8.63h21.13Zm0-14.65h-21.13v-8.64h21.13Zm27,190.55h-21.13v-8.63h21.13Zm0-14.66h-21.13v-8.63h21.13Zm0-14.66h-21.13v-8.63h21.13Zm0-14.65h-21.13v-8.64h21.13Zm0-14.66h-21.13v-8.64h21.13Zm0-14.66h-21.13v-8.63h21.13Zm0-14.66h-21.13v-8.63h21.13Zm0-14.66h-21.13v-8.63h21.13Zm0-14.65h-21.13v-8.64h21.13Zm0-14.66h-21.13V533.2h21.13Zm0-14.66h-21.13v-8.63h21.13Zm0-14.66h-21.13v-8.63h21.13Zm0-14.66h-21.13v-8.63h21.13Zm0-14.65h-21.13v-8.64h21.13Z"/><rect class="cls-4" x="1216.69" y="474.57" width="21.13" height="8.63"/><rect class="cls-4" x="1243.72" y="474.57" width="21.13" height="8.63"/><rect class="cls-4" x="1216.69" y="489.23" width="21.13" height="8.63"/><rect class="cls-4" x="1243.72" y="489.23" width="21.13" height="8.63"/><rect class="cls-4" x="1216.69" y="503.89" width="21.13" height="8.63"/><rect class="cls-4" x="1243.72" y="503.89" width="21.13" height="8.63"/><rect class="cls-4" x="1216.69" y="518.55" width="21.13" height="8.63"/><rect class="cls-4" x="1243.72" y="518.55" width="21.13" height="8.63"/><rect class="cls-4" x="1216.69" y="533.2" width="21.13" height="8.63"/><rect class="cls-4" x="1243.72" y="533.2" width="21.13" height="8.63"/><rect class="cls-4" x="1216.69" y="547.86" width="21.13" height="8.63"/><rect class="cls-4" x="1243.72" y="547.86" width="21.13" height="8.63"/><rect class="cls-4" x="1216.69" y="562.52" width="21.13" height="8.63"/><rect class="cls-4" x="1243.72" y="562.52" width="21.13" height="8.63"/><rect class="cls-4" x="1216.69" y="577.18" width="21.13" height="8.63"/><rect class="cls-4" x="1243.72" y="577.18" width="21.13" height="8.63"/><rect class="cls-4" x="1216.69" y="591.84" width="21.13" height="8.63"/><rect class="cls-4" x="1243.72" y="591.84" width="21.13" height="8.63"/><rect class="cls-4" x="1216.69" y="606.49" width="21.13" height="8.63"/><rect class="cls-4" x="1243.72" y="606.49" width="21.13" height="8.63"/><rect class="cls-4" x="1216.69" y="621.15" width="21.13" height="8.63"/><rect class="cls-4" x="1243.72" y="621.15" width="21.13" height="8.63"/><rect class="cls-4" x="1216.69" y="635.81" width="21.13" height="8.63"/><rect class="cls-4" x="1243.72" y="635.81" width="21.13" height="8.63"/><rect class="cls-4" x="1216.69" y="650.47" width="21.13" height="8.63"/><rect class="cls-4" x="1243.72" y="650.47" width="21.13" height="8.63"/><rect class="cls-4" x="1216.69" y="665.13" width="21.13" height="8.63"/><rect class="cls-4" x="1243.72" y="665.13" width="21.13" height="8.63"/><path class="cls-8" d="M1330.65,464.08H1276.2V700h54.45V464.08ZM1303,673.76h-17.35v-8.63H1303Zm0-14.66h-17.35v-8.63H1303Zm0-14.66h-17.35v-8.63H1303Zm0-14.65h-17.35v-8.64H1303Zm0-14.66h-17.35v-8.64H1303Zm0-14.66h-17.35v-8.63H1303Zm0-14.66h-17.35v-8.63H1303Zm0-14.66h-17.35v-8.63H1303Zm0-14.65h-17.35v-8.64H1303Zm0-14.66h-17.35V533.2H1303Zm0-14.66h-17.35v-8.63H1303Zm0-14.66h-17.35v-8.63H1303Zm0-14.66h-17.35v-8.63H1303Zm0-14.65h-17.35v-8.64H1303Zm22.19,190.55h-17.35v-8.63h17.35Zm0-14.66h-17.35v-8.63h17.35Zm0-14.66h-17.35v-8.63h17.35Zm0-14.65h-17.35v-8.64h17.35Zm0-14.66h-17.35v-8.64h17.35Zm0-14.66h-17.35v-8.63h17.35Zm0-14.66h-17.35v-8.63h17.35Zm0-14.66h-17.35v-8.63h17.35Zm0-14.65h-17.35v-8.64h17.35Zm0-14.66h-17.35V533.2h17.35Zm0-14.66h-17.35v-8.63h17.35Zm0-14.66h-17.35v-8.63h17.35Zm0-14.66h-17.35v-8.63h17.35Zm0-14.65h-17.35v-8.64h17.35Z"/><rect class="cls-6" x="1307.84" y="665.13" width="17.35" height="8.63"/><rect class="cls-6" x="1285.65" y="665.13" width="17.35" height="8.63"/><rect class="cls-6" x="1307.84" y="650.47" width="17.35" height="8.63"/><rect class="cls-6" x="1285.65" y="650.47" width="17.35" height="8.63"/><rect class="cls-6" x="1307.84" y="635.81" width="17.35" height="8.63"/><rect class="cls-6" x="1285.65" y="635.81" width="17.35" height="8.63"/><rect class="cls-6" x="1307.84" y="621.15" width="17.35" height="8.63"/><rect class="cls-6" x="1285.65" y="621.15" width="17.35" height="8.63"/><rect class="cls-6" x="1307.84" y="606.49" width="17.35" height="8.63"/><rect class="cls-6" x="1285.65" y="606.49" width="17.35" height="8.63"/><rect class="cls-6" x="1307.84" y="591.84" width="17.35" height="8.63"/><rect class="cls-6" x="1285.65" y="591.84" width="17.35" height="8.63"/><rect class="cls-6" x="1307.84" y="577.18" width="17.35" height="8.63"/><rect class="cls-6" x="1285.65" y="577.18" width="17.35" height="8.63"/><rect class="cls-6" x="1307.84" y="562.52" width="17.35" height="8.63"/><rect class="cls-6" x="1285.65" y="562.52" width="17.35" height="8.63"/><rect class="cls-6" x="1307.84" y="547.86" width="17.35" height="8.63"/><rect class="cls-6" x="1285.65" y="547.86" width="17.35" height="8.63"/><rect class="cls-6" x="1307.84" y="533.2" width="17.35" height="8.63"/><rect class="cls-6" x="1285.65" y="533.2" width="17.35" height="8.63"/><rect class="cls-6" x="1307.84" y="518.55" width="17.35" height="8.63"/><rect class="cls-6" x="1285.65" y="518.55" width="17.35" height="8.63"/><rect class="cls-6" x="1307.84" y="503.89" width="17.35" height="8.63"/><rect class="cls-6" x="1285.65" y="503.89" width="17.35" height="8.63"/><rect class="cls-6" x="1307.84" y="489.23" width="17.35" height="8.63"/><rect class="cls-6" x="1285.65" y="489.23" width="17.35" height="8.63"/><rect class="cls-6" x="1307.84" y="474.57" width="17.35" height="8.63"/><rect class="cls-6" x="1285.65" y="474.57" width="17.35" height="8.63"/><path class="cls-8" d="M665.46,549.15H639V700h79.26V549.15Zm0,148.47h-14v-9.75h14Zm0-20.83h-14V667h14Zm0-20.82h-14v-9.75h14Zm0-20.82h-14V625.4h14Zm0-20.83h-14v-9.75h14Zm0-20.82h-14v-9.75h14Zm0-20.82h-14v-9.75h14Zm20.18,124.94h-14v-9.75h14Zm0-20.83h-14V667h14Zm0-20.82h-14v-9.75h14Zm0-20.82h-14V625.4h14Zm0-20.83h-14v-9.75h14Zm0-20.82h-14v-9.75h14Zm0-20.82h-14v-9.75h14Zm20.12,124.94h-14v-9.75h14Zm0-20.83h-14V667h14Zm0-20.82h-14v-9.75h14Zm0-20.82h-14V625.4h14Zm0-20.83h-14v-9.75h14Zm0-20.82h-14v-9.75h14Zm-14-20.82v-9.75h14v9.75Z"/><rect class="cls-5" x="651.44" y="562.93" width="14.03" height="9.75"/><rect class="cls-5" x="651.44" y="583.75" width="14.03" height="9.75"/><rect class="cls-5" x="651.44" y="604.57" width="14.03" height="9.75"/><rect class="cls-5" x="651.44" y="625.4" width="14.03" height="9.75"/><rect class="cls-5" x="651.44" y="646.22" width="14.03" height="9.75"/><rect class="cls-5" x="651.44" y="667.04" width="14.03" height="9.75"/><rect class="cls-5" x="651.44" y="687.87" width="14.03" height="9.75"/><rect class="cls-5" x="671.61" y="562.93" width="14.03" height="9.75"/><rect class="cls-5" x="671.61" y="583.75" width="14.03" height="9.75"/><rect class="cls-5" x="671.61" y="604.57" width="14.03" height="9.75"/><rect class="cls-5" x="671.61" y="625.4" width="14.03" height="9.75"/><rect class="cls-5" x="671.61" y="646.22" width="14.03" height="9.75"/><rect class="cls-5" x="671.61" y="667.04" width="14.03" height="9.75"/><rect class="cls-5" x="671.61" y="687.87" width="14.03" height="9.75"/><rect class="cls-5" x="691.74" y="562.93" width="14.03" height="9.75"/><rect class="cls-5" x="691.74" y="583.75" width="14.03" height="9.75"/><rect class="cls-5" x="691.74" y="604.57" width="14.03" height="9.75"/><rect class="cls-5" x="691.74" y="625.4" width="14.03" height="9.75"/><rect class="cls-5" x="691.74" y="646.22" width="14.03" height="9.75"/><rect class="cls-5" x="691.74" y="667.04" width="14.03" height="9.75"/><rect class="cls-5" x="691.74" y="687.87" width="14.03" height="9.75"/><polygon class="cls-5" points="718.23 532.57 684.78 532.57 665.46 532.57 665.46 549.15 718.23 549.15 718.23 532.57"/><rect class="cls-6" x="684.78" y="522.31" width="33.45" height="10.26"/><path class="cls-7" d="M718.23,549.15V700h35.46V549.15Zm17.11,146.91H723.92v-9.75h11.42Zm0-20.82H723.92v-9.75h11.42Zm0-20.82H723.92v-9.75h11.42Zm0-20.83H723.92v-9.75h11.42Zm0-20.82H723.92V603h11.42Zm0-20.83H723.92V582.2h11.42Zm0-20.82H723.92v-9.75h11.42Zm16.38,124.94H740.3v-9.75h11.42Zm0-20.82H740.3v-9.75h11.42Zm0-20.82H740.3v-9.75h11.42Zm0-20.83H740.3v-9.75h11.42Zm0-20.82H740.3V603h11.42Zm0-20.83H740.3V582.2h11.42ZM740.3,571.12v-9.75h11.42v9.75Z"/><rect class="cls-8" x="740.3" y="686.31" width="11.42" height="9.75"/><rect class="cls-8" x="740.3" y="665.49" width="11.42" height="9.75"/><rect class="cls-8" x="740.3" y="644.67" width="11.42" height="9.75"/><rect class="cls-8" x="740.3" y="623.84" width="11.42" height="9.75"/><rect class="cls-8" x="740.3" y="603.02" width="11.42" height="9.75"/><rect class="cls-8" x="740.3" y="582.2" width="11.42" height="9.75"/><rect class="cls-8" x="740.3" y="561.37" width="11.42" height="9.75"/><rect class="cls-8" x="723.92" y="686.31" width="11.42" height="9.75"/><rect class="cls-8" x="723.92" y="665.49" width="11.42" height="9.75"/><rect class="cls-8" x="723.92" y="644.67" width="11.42" height="9.75"/><rect class="cls-8" x="723.92" y="623.84" width="11.42" height="9.75"/><rect class="cls-8" x="723.92" y="603.02" width="11.42" height="9.75"/><rect class="cls-8" x="723.92" y="582.2" width="11.42" height="9.75"/><rect class="cls-8" x="723.92" y="561.37" width="11.42" height="9.75"/><polygon class="cls-8" points="718.23 549.15 753.69 549.15 753.69 532.57 743.8 532.57 718.23 532.57 718.23 549.15"/><rect class="cls-5" x="718.23" y="522.31" width="25.57" height="10.26"/><rect class="cls-8" x="454.2" y="549.15" width="6.04" height="150.85"/><rect class="cls-5" x="454.2" y="532.57" width="6.04" height="16.58"/><rect class="cls-6" x="454.2" y="522.31" width="6.04" height="10.26"/><path class="cls-7" d="M515.85,638.79V549.15H460.24V700h55.61V638.79Zm-38.5,57.27H465.93v-9.75h11.42Zm0-20.82H465.93v-9.75h11.42Zm0-20.82H465.93v-9.75h11.42Zm0-20.83H465.93v-9.75h11.42Zm0-20.82H465.93V603h11.42Zm0-20.83H465.93V582.2h11.42Zm0-20.82H465.93v-9.75h11.42Zm16.38,124.94H482.32v-9.75h11.41Zm0-20.82H482.32v-9.75h11.41Zm0-20.82H482.32v-9.75h11.41Zm0-20.83H482.32v-9.75h11.41Zm0-20.82H482.32V603h11.41Zm0-20.83H482.32V582.2h11.41Zm0-20.82H482.32v-9.75h11.41Zm16.43,124.94H498.74v-9.75h11.42Zm0-20.82H498.74v-9.75h11.42Zm0-20.82H498.74v-9.75h11.42Zm0-20.83H498.74v-9.75h11.42Zm0-20.82H498.74V603h11.42Zm0-20.83H498.74V582.2h11.42Zm0-20.82H498.74v-9.75h11.42Z"/><rect class="cls-8" x="498.74" y="686.31" width="11.42" height="9.75"/><rect class="cls-8" x="498.74" y="665.49" width="11.42" height="9.75"/><rect class="cls-8" x="498.74" y="644.67" width="11.42" height="9.75"/><rect class="cls-8" x="498.74" y="623.84" width="11.42" height="9.75"/><rect class="cls-8" x="498.74" y="603.02" width="11.42" height="9.75"/><rect class="cls-8" x="498.74" y="582.2" width="11.42" height="9.75"/><rect class="cls-8" x="498.74" y="561.37" width="11.42" height="9.75"/><rect class="cls-8" x="482.32" y="686.31" width="11.42" height="9.75"/><rect class="cls-8" x="482.32" y="665.49" width="11.42" height="9.75"/><rect class="cls-8" x="482.32" y="644.67" width="11.42" height="9.75"/><rect class="cls-8" x="482.32" y="623.84" width="11.42" height="9.75"/><rect class="cls-8" x="482.32" y="603.02" width="11.42" height="9.75"/><rect class="cls-8" x="482.32" y="582.2" width="11.42" height="9.75"/><rect class="cls-8" x="482.32" y="561.37" width="11.42" height="9.75"/><rect class="cls-8" x="465.93" y="686.31" width="11.42" height="9.75"/><rect class="cls-8" x="465.93" y="665.49" width="11.42" height="9.75"/><rect class="cls-8" x="465.93" y="644.67" width="11.42" height="9.75"/><rect class="cls-8" x="465.93" y="623.84" width="11.42" height="9.75"/><rect class="cls-8" x="465.93" y="603.02" width="11.42" height="9.75"/><rect class="cls-8" x="465.93" y="582.2" width="11.42" height="9.75"/><rect class="cls-8" x="465.93" y="561.37" width="11.42" height="9.75"/><polygon class="cls-8" points="460.24 549.15 507.43 549.15 507.43 532.57 504.28 532.57 485.81 532.57 460.24 532.57 460.24 549.15"/><rect class="cls-5" x="460.24" y="522.31" width="25.57" height="10.26"/><path class="cls-8" d="M253.5,549.15H230.38V700h75.89V549.15Zm0,148.47h-14v-9.75h14Zm0-20.83h-14V667h14Zm0-20.82h-14v-9.75h14Zm0-20.82h-14V625.4h14Zm0-20.83h-14v-9.75h14Zm0-20.82h-14v-9.75h14Zm0-20.82h-14v-9.75h14Zm20.18,124.94h-14v-9.75h14Zm0-20.83h-14V667h14Zm0-20.82h-14v-9.75h14Zm0-20.82h-14V625.4h14Zm0-20.83h-14v-9.75h14Zm0-20.82h-14v-9.75h14Zm0-20.82h-14v-9.75h14ZM293.8,697.62h-14v-9.75h14Zm0-20.83h-14V667h14Zm0-20.82h-14v-9.75h14Zm0-20.82h-14V625.4h14Zm0-20.83h-14v-9.75h14Zm0-20.82h-14v-9.75h14Zm-14-20.82v-9.75h14v9.75Z"/><rect class="cls-5" x="239.48" y="562.93" width="14.03" height="9.75"/><rect class="cls-5" x="239.48" y="583.75" width="14.03" height="9.75"/><rect class="cls-5" x="239.48" y="604.57" width="14.03" height="9.75"/><rect class="cls-5" x="239.48" y="625.4" width="14.03" height="9.75"/><rect class="cls-5" x="239.48" y="646.22" width="14.03" height="9.75"/><rect class="cls-5" x="239.48" y="667.04" width="14.03" height="9.75"/><rect class="cls-5" x="239.48" y="687.87" width="14.03" height="9.75"/><rect class="cls-5" x="259.65" y="562.93" width="14.03" height="9.75"/><rect class="cls-5" x="259.65" y="583.75" width="14.03" height="9.75"/><rect class="cls-5" x="259.65" y="604.57" width="14.03" height="9.75"/><rect class="cls-5" x="259.65" y="625.4" width="14.03" height="9.75"/><rect class="cls-5" x="259.65" y="646.22" width="14.03" height="9.75"/><rect class="cls-5" x="259.65" y="667.04" width="14.03" height="9.75"/><rect class="cls-5" x="259.65" y="687.87" width="14.03" height="9.75"/><rect class="cls-5" x="279.78" y="562.93" width="14.03" height="9.75"/><rect class="cls-5" x="279.78" y="583.75" width="14.03" height="9.75"/><rect class="cls-5" x="279.78" y="604.57" width="14.03" height="9.75"/><rect class="cls-5" x="279.78" y="625.4" width="14.03" height="9.75"/><rect class="cls-5" x="279.78" y="646.22" width="14.03" height="9.75"/><rect class="cls-5" x="279.78" y="667.04" width="14.03" height="9.75"/><rect class="cls-5" x="279.78" y="687.87" width="14.03" height="9.75"/><polygon class="cls-5" points="306.27 532.57 272.81 532.57 253.5 532.57 253.5 549.15 306.27 549.15 306.27 532.57"/><rect class="cls-6" x="272.81" y="522.31" width="33.45" height="10.26"/><path class="cls-7" d="M328.34,696.06v-9.75h2.33V675.24h-2.33v-9.75h2.33V654.42h-2.33v-9.75h2.33V633.59h-2.33v-9.75h2.33V612.77h-2.33V603h2.33V591.94h-2.33V582.2h2.33V571.12h-2.33v-9.75h2.33V549.15h-24.4V700h24.4v-3.94Zm-5,0H312v-9.75h11.42Zm0-20.82H312v-9.75h11.42Zm0-20.82H312v-9.75h11.42Zm0-20.83H312v-9.75h11.42Zm0-20.82H312V603h11.42Zm0-20.83H312V582.2h11.42Zm0-20.82H312v-9.75h11.42Z"/><rect class="cls-8" x="328.34" y="686.31" width="2.33" height="9.75"/><rect class="cls-8" x="328.34" y="665.49" width="2.33" height="9.75"/><rect class="cls-8" x="328.34" y="644.67" width="2.33" height="9.75"/><rect class="cls-8" x="328.34" y="623.84" width="2.33" height="9.75"/><rect class="cls-8" x="328.34" y="603.02" width="2.33" height="9.75"/><rect class="cls-8" x="328.34" y="582.2" width="2.33" height="9.75"/><rect class="cls-8" x="328.34" y="561.37" width="2.33" height="9.75"/><rect class="cls-8" x="311.96" y="686.31" width="11.42" height="9.75"/><rect class="cls-8" x="311.96" y="665.49" width="11.42" height="9.75"/><rect class="cls-8" x="311.96" y="644.67" width="11.42" height="9.75"/><rect class="cls-8" x="311.96" y="623.84" width="11.42" height="9.75"/><rect class="cls-8" x="311.96" y="603.02" width="11.42" height="9.75"/><rect class="cls-8" x="311.96" y="582.2" width="11.42" height="9.75"/><rect class="cls-8" x="311.96" y="561.37" width="11.42" height="9.75"/><rect class="cls-8" x="306.27" y="532.57" width="24.4" height="16.58"/><rect class="cls-5" x="306.27" y="522.31" width="24.4" height="10.26"/><polygon class="cls-9" points="844.82 364.13 807.35 388.41 753.69 423.19 753.69 532.57 753.69 549.15 753.69 700 763.94 700 763.94 431.19 763.95 431.18 763.95 431.18 833.11 386.36 833.11 386.36 833.11 386.36 833.11 700 844.82 700 844.82 364.13"/><rect class="cls-9" x="778.55" y="456.26" width="10.91" height="15.85"/><rect class="cls-10" x="778.55" y="456.26" width="10.91" height="15.85"/><rect class="cls-9" x="798.09" y="600.73" width="3.3" height="15.85"/><rect class="cls-10" x="798.09" y="600.73" width="3.3" height="15.85"/><rect class="cls-9" x="778.55" y="564.61" width="10.91" height="15.85"/><rect class="cls-10" x="778.55" y="564.61" width="10.91" height="15.85"/><polygon class="cls-9" points="798.09 669.12 789.47 669.12 789.47 654.9 778.55 654.9 778.55 669.12 771.86 669.12 771.86 670.75 801.38 670.75 801.38 654.9 798.09 654.9 798.09 669.12"/><polygon class="cls-10" points="798.09 669.12 789.47 669.12 789.47 654.9 778.55 654.9 778.55 669.12 771.86 669.12 771.86 670.75 801.38 670.75 801.38 654.9 798.09 654.9 798.09 669.12"/><rect class="cls-9" x="771.86" y="691.02" width="29.52" height="8.98"/><rect class="cls-10" x="771.86" y="691.02" width="29.52" height="8.98"/><rect class="cls-9" x="798.09" y="636.84" width="3.3" height="15.85"/><rect class="cls-10" x="798.09" y="636.84" width="3.3" height="15.85"/><rect class="cls-9" x="798.09" y="618.78" width="3.3" height="15.85"/><rect class="cls-10" x="798.09" y="618.78" width="3.3" height="15.85"/><rect class="cls-9" x="798.09" y="582.67" width="3.3" height="15.85"/><rect class="cls-10" x="798.09" y="582.67" width="3.3" height="15.85"/><rect class="cls-9" x="798.09" y="456.26" width="3.3" height="15.85"/><rect class="cls-10" x="798.09" y="456.26" width="3.3" height="15.85"/><rect class="cls-9" x="798.09" y="474.32" width="3.3" height="15.85"/><rect class="cls-10" x="798.09" y="474.32" width="3.3" height="15.85"/><rect class="cls-9" x="798.09" y="492.38" width="3.3" height="15.85"/><rect class="cls-10" x="798.09" y="492.38" width="3.3" height="15.85"/><rect class="cls-9" x="778.55" y="618.78" width="10.91" height="15.85"/><rect class="cls-10" x="778.55" y="618.78" width="10.91" height="15.85"/><polygon class="cls-9" points="801.38 436 801.38 416.87 771.86 436 801.38 436"/><polygon class="cls-10" points="801.38 436 801.38 416.87 771.86 436 801.38 436"/><rect class="cls-9" x="771.86" y="438.2" width="29.52" height="15.85"/><rect class="cls-10" x="771.86" y="438.2" width="29.52" height="15.85"/><rect class="cls-9" x="798.09" y="546.55" width="3.3" height="15.85"/><rect class="cls-10" x="798.09" y="546.55" width="3.3" height="15.85"/><rect class="cls-9" x="798.09" y="510.43" width="3.3" height="15.85"/><rect class="cls-10" x="798.09" y="510.43" width="3.3" height="15.85"/><rect class="cls-9" x="798.09" y="564.61" width="3.3" height="15.85"/><rect class="cls-10" x="798.09" y="564.61" width="3.3" height="15.85"/><rect class="cls-9" x="778.55" y="582.67" width="10.91" height="15.85"/><rect class="cls-10" x="778.55" y="582.67" width="10.91" height="15.85"/><rect class="cls-9" x="798.09" y="528.49" width="3.3" height="15.85"/><rect class="cls-10" x="798.09" y="528.49" width="3.3" height="15.85"/><rect class="cls-9" x="778.55" y="600.73" width="10.91" height="15.85"/><rect class="cls-10" x="778.55" y="600.73" width="10.91" height="15.85"/><rect class="cls-9" x="778.55" y="528.49" width="10.91" height="15.85"/><rect class="cls-10" x="778.55" y="528.49" width="10.91" height="15.85"/><rect class="cls-9" x="778.55" y="546.55" width="10.91" height="15.85"/><rect class="cls-10" x="778.55" y="546.55" width="10.91" height="15.85"/><rect class="cls-9" x="778.55" y="510.43" width="10.91" height="15.85"/><rect class="cls-10" x="778.55" y="510.43" width="10.91" height="15.85"/><rect class="cls-9" x="778.55" y="492.38" width="10.91" height="15.85"/><rect class="cls-10" x="778.55" y="492.38" width="10.91" height="15.85"/><rect class="cls-9" x="778.55" y="474.32" width="10.91" height="15.85"/><rect class="cls-10" x="778.55" y="474.32" width="10.91" height="15.85"/><rect class="cls-9" x="778.55" y="636.84" width="10.91" height="15.85"/><rect class="cls-10" x="778.55" y="636.84" width="10.91" height="15.85"/><polygon class="cls-9" points="833.11 386.36 833.11 386.36 833.11 396.31 803.59 415.44 803.59 436 833.11 436 833.11 438.2 803.59 438.2 803.59 454.06 833.11 454.06 833.11 456.26 803.59 456.26 803.59 472.11 833.11 472.11 833.11 474.32 803.59 474.32 803.59 490.17 833.11 490.17 833.11 492.38 803.59 492.38 803.59 508.23 833.11 508.23 833.11 510.43 803.59 510.43 803.59 526.29 833.11 526.29 833.11 528.49 803.59 528.49 803.59 544.35 833.11 544.35 833.11 546.55 803.59 546.55 803.59 562.4 833.11 562.4 833.11 564.61 803.59 564.61 803.59 580.46 833.11 580.46 833.11 582.67 803.59 582.67 803.59 598.52 833.11 598.52 833.11 600.73 803.59 600.73 803.59 616.58 833.11 616.58 833.11 618.78 803.59 618.78 803.59 634.64 833.11 634.64 833.11 636.84 803.59 636.84 803.59 652.7 833.11 652.7 833.11 654.9 803.59 654.9 803.59 670.75 833.11 670.75 833.11 672.96 803.59 672.96 803.59 688.81 833.11 688.81 833.11 691.02 803.59 691.02 803.59 700 833.11 700 833.11 386.36"/><polygon class="cls-10" points="833.11 386.36 833.11 386.36 833.11 396.31 803.59 415.44 803.59 436 833.11 436 833.11 438.2 803.59 438.2 803.59 454.06 833.11 454.06 833.11 456.26 803.59 456.26 803.59 472.11 833.11 472.11 833.11 474.32 803.59 474.32 803.59 490.17 833.11 490.17 833.11 492.38 803.59 492.38 803.59 508.23 833.11 508.23 833.11 510.43 803.59 510.43 803.59 526.29 833.11 526.29 833.11 528.49 803.59 528.49 803.59 544.35 833.11 544.35 833.11 546.55 803.59 546.55 803.59 562.4 833.11 562.4 833.11 564.61 803.59 564.61 803.59 580.46 833.11 580.46 833.11 582.67 803.59 582.67 803.59 598.52 833.11 598.52 833.11 600.73 803.59 600.73 803.59 616.58 833.11 616.58 833.11 618.78 803.59 618.78 803.59 634.64 833.11 634.64 833.11 636.84 803.59 636.84 803.59 652.7 833.11 652.7 833.11 654.9 803.59 654.9 803.59 670.75 833.11 670.75 833.11 672.96 803.59 672.96 803.59 688.81 833.11 688.81 833.11 691.02 803.59 691.02 803.59 700 833.11 700 833.11 386.36"/><rect class="cls-9" x="771.86" y="672.96" width="29.52" height="15.85"/><rect class="cls-10" x="771.86" y="672.96" width="29.52" height="15.85"/><rect class="cls-9" x="763.94" y="431.19" width="0.01" height="268.81" transform="translate(-184.97 510.28) rotate(-33.18)"/><rect class="cls-10" x="763.94" y="431.19" width="0.01" height="268.81" transform="translate(-184.97 510.28) rotate(-33.18)"/><rect class="cls-9" x="771.86" y="436" width="29.52" height="2.2"/><rect class="cls-9" x="803.59" y="436" width="29.52" height="2.2"/><polygon class="cls-9" points="771.86 456.2 778.55 456.2 778.55 456.26 789.47 456.26 789.47 456.2 798.09 456.2 798.09 456.26 801.38 456.26 801.38 454.06 771.86 454.06 771.86 456.2"/><rect class="cls-9" x="803.59" y="454.05" width="29.52" height="2.2"/><rect class="cls-9" x="798.09" y="472.11" width="3.3" height="2.2"/><rect class="cls-9" x="803.59" y="472.11" width="29.52" height="2.2"/><rect class="cls-9" x="778.55" y="472.11" width="10.91" height="2.2"/><rect class="cls-9" x="803.59" y="490.17" width="29.52" height="2.2"/><rect class="cls-9" x="798.09" y="490.17" width="3.3" height="2.2"/><rect class="cls-9" x="778.55" y="490.17" width="10.91" height="2.2"/><rect class="cls-9" x="778.55" y="508.23" width="10.91" height="2.2"/><rect class="cls-9" x="803.59" y="508.23" width="29.52" height="2.2"/><rect class="cls-9" x="798.09" y="508.23" width="3.3" height="2.2"/><rect class="cls-9" x="803.59" y="526.29" width="29.52" height="2.2"/><rect class="cls-9" x="778.55" y="526.29" width="10.91" height="2.2"/><rect class="cls-9" x="798.09" y="526.29" width="3.3" height="2.2"/><rect class="cls-9" x="803.59" y="544.35" width="29.52" height="2.2"/><rect class="cls-9" x="798.09" y="544.35" width="3.3" height="2.2"/><rect class="cls-9" x="778.55" y="544.35" width="10.91" height="2.2"/><rect class="cls-9" x="803.59" y="562.41" width="29.52" height="2.2"/><rect class="cls-9" x="798.09" y="562.41" width="3.3" height="2.2"/><rect class="cls-9" x="778.55" y="562.41" width="10.91" height="2.2"/><rect class="cls-9" x="778.55" y="580.46" width="10.91" height="2.2"/><rect class="cls-9" x="803.59" y="580.46" width="29.52" height="2.2"/><rect class="cls-9" x="798.09" y="580.46" width="3.3" height="2.2"/><rect class="cls-9" x="798.09" y="598.52" width="3.3" height="2.2"/><rect class="cls-9" x="778.55" y="598.52" width="10.91" height="2.2"/><rect class="cls-9" x="803.59" y="598.52" width="29.52" height="2.2"/><rect class="cls-9" x="778.55" y="616.58" width="10.91" height="2.2"/><rect class="cls-9" x="803.59" y="616.58" width="29.52" height="2.2"/><rect class="cls-9" x="798.09" y="616.58" width="3.3" height="2.2"/><rect class="cls-9" x="803.59" y="634.64" width="29.52" height="2.2"/><rect class="cls-9" x="798.09" y="634.64" width="3.3" height="2.2"/><rect class="cls-9" x="778.55" y="634.64" width="10.91" height="2.2"/><rect class="cls-9" x="778.55" y="652.7" width="10.91" height="2.2"/><rect class="cls-9" x="803.59" y="652.7" width="29.52" height="2.2"/><rect class="cls-9" x="798.09" y="652.7" width="3.3" height="2.2"/><rect class="cls-9" x="803.59" y="670.76" width="29.52" height="2.2"/><rect class="cls-9" x="771.86" y="670.76" width="29.52" height="2.2"/><rect class="cls-9" x="803.59" y="688.81" width="29.52" height="2.2"/><rect class="cls-9" x="771.86" y="688.81" width="29.52" height="2.2"/><polygon class="cls-9" points="803.59 688.81 803.59 672.96 803.59 670.75 803.59 654.9 803.59 652.7 803.59 636.84 803.59 634.64 803.59 618.78 803.59 616.58 803.59 600.73 803.59 598.52 803.59 582.67 803.59 580.46 803.59 564.61 803.59 562.4 803.59 546.55 803.59 544.35 803.59 528.49 803.59 526.29 803.59 510.43 803.59 508.23 803.59 492.38 803.59 490.17 803.59 474.32 803.59 472.11 803.59 456.26 803.59 454.06 803.59 438.2 803.59 436 803.59 415.44 801.38 416.87 801.38 436 801.38 438.2 801.38 454.06 801.38 456.26 801.38 472.11 801.38 474.32 801.38 490.17 801.38 492.38 801.38 508.23 801.38 510.43 801.38 526.29 801.38 528.49 801.38 544.35 801.38 546.55 801.38 562.4 801.38 564.61 801.38 580.46 801.38 582.67 801.38 598.52 801.38 600.73 801.38 616.58 801.38 618.78 801.38 634.64 801.38 636.84 801.38 652.7 801.38 654.9 801.38 670.75 801.38 672.96 801.38 688.81 801.38 691.02 801.38 700 803.59 700 803.59 691.02 803.59 688.81"/><polygon class="cls-9" points="771.86 688.81 771.86 672.96 771.86 670.75 771.86 669.12 769.93 669.12 769.93 456.2 771.86 456.2 771.86 454.06 771.86 438.2 771.86 436 801.38 416.87 803.59 415.44 833.11 396.31 833.11 386.36 833.11 386.36 763.95 431.18 763.95 431.18 763.95 700 771.86 700 771.86 691.02 771.86 688.81"/><polygon class="cls-11" points="771.86 688.81 771.86 672.96 771.86 670.75 771.86 669.12 769.93 669.12 769.93 456.2 771.86 456.2 771.86 454.06 771.86 438.2 771.86 436 801.38 416.87 803.59 415.44 833.11 396.31 833.11 386.36 833.11 386.36 763.95 431.18 763.95 431.18 763.95 700 771.86 700 771.86 691.02 771.86 688.81"/><polygon class="cls-9" points="887.71 364.13 881.8 364.13 867.11 364.13 844.82 364.13 844.82 700 925.11 700 925.11 364.13 887.71 364.13"/><polygon class="cls-10" points="887.71 364.13 881.8 364.13 867.11 364.13 844.82 364.13 844.82 700 925.11 700 925.11 364.13 887.71 364.13"/><path class="cls-8" d="M412.43,455.76H330.67V700h81.76Zm-19,137.74V606H378.3V582.78h15.15V593.5Zm0,41.65v7.38H378.3v-23.2h15.15v15.82ZM378.3,509.67h15.15v23.2H378.3Zm15.15,59.75H378.3V546.23h15.15v23.19Zm0-96.3v23.2H378.3v-23.2Zm-30.83,206H347.47v-23.2h15.15Zm0-36.55H347.47v-23.2h15.15Zm0-36.56H347.47V582.78h15.15Zm0-36.55H347.47V546.23h15.15Zm0-36.55H347.47v-23.2h15.15Zm-15.15-36.55v-23.2h15.15v23.2ZM378.3,679.08v-23.2h15.15v23.2Z"/><path class="cls-7" d="M412.43,455.76V430.42H351v25.34Zm-23.49-3.91h-5.25V434.33h5.25Zm18.38-17.52v17.52h-5.25V434.33Zm-9.19,0v17.52h-5.25V434.33Zm-18.37,0v17.52h-5.25V434.33Zm-9.19,0v17.52h-5.25V434.33Zm-9.19,0v17.52h-5.25V434.33Z"/><rect class="cls-12" x="356.13" y="434.33" width="5.25" height="17.53"/><rect class="cls-12" x="365.32" y="434.33" width="5.25" height="17.53"/><rect class="cls-12" x="374.51" y="434.33" width="5.25" height="17.53"/><rect class="cls-12" x="383.69" y="434.33" width="5.25" height="17.53"/><rect class="cls-12" x="392.88" y="434.33" width="5.25" height="17.53"/><rect class="cls-12" x="402.07" y="434.33" width="5.25" height="17.53"/><path class="cls-8" d="M412.43,455.76h27.93V430.42H412.43ZM432,434.33h4.46v17.52H432Zm-3.35,0v17.52h-4.47V434.33Zm-7.82,0v17.52h-4.46V434.33Z"/><rect class="cls-13" x="416.35" y="434.33" width="4.47" height="17.53"/><rect class="cls-13" x="424.16" y="434.33" width="4.47" height="17.53"/><rect class="cls-13" x="431.98" y="434.33" width="4.47" height="17.53"/><path class="cls-7" d="M454.2,532.57V455.76H412.43V700H454.2V532.57ZM446.53,606h-8.71V582.78h8.71Zm0,36.56h-8.71v-23.2h8.71Zm0,36.55h-8.71v-23.2h8.71ZM420.1,509.67h8.71v23.2H420.1Zm17.72,59.75V546.23h8.71v23.19Zm8.71-36.55h-8.71v-23.2h8.71Zm0-59.75v23.2h-8.71v-23.2Zm-17.72,0v23.2H420.1v-23.2Zm0,206H420.1v-23.2h8.71Zm0-36.55H420.1v-23.2h8.71Zm0-36.56H420.1V582.78h8.71Zm-8.71-36.55V546.23h8.71v23.19Z"/><rect class="cls-7" x="362.67" y="417.57" width="1.88" height="12.84"/><rect class="cls-7" x="398.9" y="417.57" width="1.88" height="12.84"/><polygon class="cls-8" points="398.9 417.57 400.78 417.57 409.11 417.57 409.11 395.11 354.35 395.11 354.35 417.57 362.67 417.57 364.55 417.57 398.9 417.57"/><rect class="cls-8" x="347.47" y="473.12" width="15.15" height="23.2"/><rect class="cls-14" x="347.47" y="473.12" width="15.15" height="23.2"/><rect class="cls-8" x="378.3" y="473.12" width="15.15" height="23.2"/><rect class="cls-14" x="378.3" y="473.12" width="15.15" height="23.2"/><rect class="cls-8" x="347.47" y="509.67" width="15.15" height="23.2"/><rect class="cls-14" x="347.47" y="509.67" width="15.15" height="23.2"/><rect class="cls-8" x="378.3" y="509.67" width="15.15" height="23.2"/><rect class="cls-14" x="378.3" y="509.67" width="15.15" height="23.2"/><rect class="cls-8" x="347.47" y="546.23" width="15.15" height="23.2"/><rect class="cls-14" x="347.47" y="546.23" width="15.15" height="23.2"/><polygon class="cls-8" points="393.45 546.23 378.3 546.23 378.3 569.42 393.45 569.42 393.45 562.93 393.45 546.23"/><polygon class="cls-14" points="393.45 546.23 378.3 546.23 378.3 569.42 393.45 569.42 393.45 562.93 393.45 546.23"/><rect class="cls-8" x="347.47" y="582.78" width="15.15" height="23.2"/><rect class="cls-14" x="347.47" y="582.78" width="15.15" height="23.2"/><polygon class="cls-8" points="378.3 582.78 378.3 605.98 393.45 605.98 393.45 604.57 393.45 593.5 393.45 583.75 393.45 582.78 378.3 582.78"/><polygon class="cls-14" points="378.3 582.78 378.3 605.98 393.45 605.98 393.45 604.57 393.45 593.5 393.45 583.75 393.45 582.78 378.3 582.78"/><rect class="cls-8" x="347.47" y="619.33" width="15.15" height="23.2"/><rect class="cls-14" x="347.47" y="619.33" width="15.15" height="23.2"/><polygon class="cls-8" points="378.3 619.33 378.3 642.53 393.45 642.53 393.45 635.15 393.45 625.4 393.45 619.33 378.3 619.33"/><polygon class="cls-14" points="378.3 619.33 378.3 642.53 393.45 642.53 393.45 635.15 393.45 625.4 393.45 619.33 378.3 619.33"/><rect class="cls-8" x="347.47" y="655.88" width="15.15" height="23.2"/><rect class="cls-14" x="347.47" y="655.88" width="15.15" height="23.2"/><polygon class="cls-8" points="393.45 676.79 393.45 667.04 393.45 655.97 393.45 655.88 378.3 655.88 378.3 679.08 393.45 679.08 393.45 676.79"/><polygon class="cls-14" points="393.45 676.79 393.45 667.04 393.45 655.97 393.45 655.88 378.3 655.88 378.3 679.08 393.45 679.08 393.45 676.79"/><rect class="cls-7" x="420.1" y="473.12" width="8.71" height="23.2"/><rect class="cls-15" x="420.1" y="473.12" width="8.71" height="23.2"/><rect class="cls-7" x="437.82" y="473.12" width="8.71" height="23.2"/><rect class="cls-15" x="437.82" y="473.12" width="8.71" height="23.2"/><rect class="cls-7" x="420.1" y="509.67" width="8.71" height="23.2"/><rect class="cls-15" x="420.1" y="509.67" width="8.71" height="23.2"/><rect class="cls-7" x="437.82" y="509.67" width="8.71" height="23.2"/><rect class="cls-15" x="437.82" y="509.67" width="8.71" height="23.2"/><rect class="cls-7" x="420.1" y="546.23" width="8.71" height="23.2"/><rect class="cls-15" x="420.1" y="546.23" width="8.71" height="23.2"/><rect class="cls-7" x="437.82" y="546.23" width="8.71" height="23.2"/><rect class="cls-15" x="437.82" y="546.23" width="8.71" height="23.2"/><rect class="cls-7" x="420.1" y="582.78" width="8.71" height="23.2"/><rect class="cls-15" x="420.1" y="582.78" width="8.71" height="23.2"/><rect class="cls-7" x="437.82" y="582.78" width="8.71" height="23.2"/><rect class="cls-15" x="437.82" y="582.78" width="8.71" height="23.2"/><rect class="cls-7" x="420.1" y="619.33" width="8.71" height="23.2"/><rect class="cls-15" x="420.1" y="619.33" width="8.71" height="23.2"/><rect class="cls-7" x="437.82" y="619.33" width="8.71" height="23.2"/><rect class="cls-15" x="437.82" y="619.33" width="8.71" height="23.2"/><rect class="cls-7" x="420.1" y="655.88" width="8.71" height="23.2"/><rect class="cls-15" x="420.1" y="655.88" width="8.71" height="23.2"/><rect class="cls-7" x="437.82" y="655.88" width="8.71" height="23.2"/><rect class="cls-15" x="437.82" y="655.88" width="8.71" height="23.2"/><path class="cls-7" d="M230.38,517.88H164.52V700h65.86V517.88ZM179.77,661h-8.94v-35h8.94Zm0-47.71h-8.94v-35h8.94Zm0-47.72h-8.94v-35h8.94ZM194.53,661H185.6v-35h8.93Zm0-47.71H185.6v-35h8.93Zm0-47.72H185.6v-35h8.93ZM209.3,661h-8.94v-35h8.94Zm0-47.71h-8.94v-35h8.94Zm0-47.72h-8.94v-35h8.94ZM224.06,661h-8.93v-35h8.93Zm0-47.71h-8.93v-35h8.93Zm0-47.72h-8.93v-35h8.93Z"/><polygon class="cls-6" points="164.52 517.88 230.38 517.88 234.32 517.88 234.32 506.97 223.7 506.97 164.52 506.97 164.52 517.88"/><rect class="cls-8" x="164.52" y="489.93" width="59.18" height="17.03"/><rect class="cls-5" x="170.83" y="530.5" width="8.93" height="35.02"/><rect class="cls-5" x="170.83" y="578.21" width="8.93" height="35.02"/><rect class="cls-5" x="170.83" y="625.93" width="8.93" height="35.02"/><rect class="cls-5" x="185.6" y="530.5" width="8.93" height="35.02"/><rect class="cls-5" x="185.6" y="578.21" width="8.93" height="35.02"/><rect class="cls-5" x="185.6" y="625.93" width="8.93" height="35.02"/><rect class="cls-5" x="200.36" y="530.5" width="8.93" height="35.02"/><rect class="cls-5" x="200.36" y="578.21" width="8.93" height="35.02"/><rect class="cls-5" x="200.36" y="625.93" width="8.93" height="35.02"/><rect class="cls-5" x="215.13" y="530.5" width="8.93" height="35.02"/><rect class="cls-5" x="215.13" y="578.21" width="8.93" height="35.02"/><rect class="cls-5" x="215.13" y="625.93" width="8.93" height="35.02"/><path class="cls-8" d="M29.52,517.88V700h135V517.88ZM60.75,661H42.42v-35H60.75Zm0-47.71H42.42v-35H60.75Zm0-47.72H42.42v-35H60.75ZM91,661H72.71v-35H91Zm0-47.71H72.71v-35H91Zm0-47.72H72.71v-35H91ZM121.32,661H103v-35h18.32Zm0-47.71H103v-35h18.32Zm0-47.72H103v-35h18.32ZM151.61,661H133.29v-35h18.32Zm0-47.71H133.29v-35h18.32Zm-18.32-47.72v-35h18.32v35Z"/><rect class="cls-6" x="35.98" y="489.93" width="128.53" height="17.03"/><polygon class="cls-7" points="164.52 506.97 35.98 506.97 25.48 506.97 25.48 517.88 29.52 517.88 164.52 517.88 164.52 506.97"/><rect class="cls-5" x="42.42" y="530.5" width="18.32" height="35.02"/><rect class="cls-5" x="42.42" y="578.21" width="18.32" height="35.02"/><rect class="cls-5" x="42.42" y="625.93" width="18.32" height="35.02"/><rect class="cls-8" x="72.71" y="530.5" width="18.32" height="35.02"/><rect class="cls-16" x="72.71" y="530.5" width="18.32" height="35.02"/><rect class="cls-5" x="72.71" y="578.21" width="18.32" height="35.02"/><rect class="cls-5" x="72.71" y="625.93" width="18.32" height="35.02"/><rect class="cls-5" x="103" y="530.5" width="18.32" height="35.02"/><rect class="cls-5" x="103" y="578.21" width="18.32" height="35.02"/><rect class="cls-5" x="103" y="625.93" width="18.32" height="35.02"/><rect class="cls-8" x="133.29" y="530.5" width="18.32" height="35.02"/><rect class="cls-16" x="133.29" y="530.5" width="18.32" height="35.02"/><rect class="cls-5" x="133.29" y="578.21" width="18.32" height="35.02"/><rect class="cls-8" x="133.29" y="625.93" width="18.32" height="35.02"/><rect class="cls-16" x="133.29" y="625.93" width="18.32" height="35.02"/><rect class="cls-9" x="771.86" y="582.67" width="6.69" height="15.85"/><rect class="cls-10" x="771.86" y="582.67" width="6.69" height="15.85"/><rect class="cls-10" x="771.86" y="582.67" width="6.69" height="15.85"/><rect class="cls-9" x="771.86" y="510.43" width="6.69" height="15.85"/><rect class="cls-10" x="771.86" y="510.43" width="6.69" height="15.85"/><rect class="cls-10" x="771.86" y="510.43" width="6.69" height="15.85"/><rect class="cls-9" x="771.86" y="618.78" width="6.69" height="15.85"/><rect class="cls-10" x="771.86" y="618.78" width="6.69" height="15.85"/><rect class="cls-10" x="771.86" y="618.78" width="6.69" height="15.85"/><rect class="cls-9" x="771.86" y="636.84" width="6.69" height="15.85"/><rect class="cls-10" x="771.86" y="636.84" width="6.69" height="15.85"/><rect class="cls-10" x="771.86" y="636.84" width="6.69" height="15.85"/><rect class="cls-9" x="771.86" y="492.38" width="6.69" height="15.85"/><rect class="cls-10" x="771.86" y="492.38" width="6.69" height="15.85"/><rect class="cls-10" x="771.86" y="492.38" width="6.69" height="15.85"/><rect class="cls-9" x="771.86" y="546.55" width="6.69" height="15.85"/><rect class="cls-10" x="771.86" y="546.55" width="6.69" height="15.85"/><rect class="cls-10" x="771.86" y="546.55" width="6.69" height="15.85"/><rect class="cls-9" x="771.86" y="654.9" width="6.69" height="14.22"/><rect class="cls-10" x="771.86" y="654.9" width="6.69" height="14.22"/><rect class="cls-10" x="771.86" y="654.9" width="6.69" height="14.22"/><rect class="cls-9" x="771.86" y="564.61" width="6.69" height="15.85"/><rect class="cls-10" x="771.86" y="564.61" width="6.69" height="15.85"/><rect class="cls-10" x="771.86" y="564.61" width="6.69" height="15.85"/><rect class="cls-9" x="771.86" y="474.32" width="6.69" height="15.85"/><rect class="cls-10" x="771.86" y="474.32" width="6.69" height="15.85"/><rect class="cls-10" x="771.86" y="474.32" width="6.69" height="15.85"/><rect class="cls-9" x="771.86" y="528.49" width="6.69" height="15.85"/><rect class="cls-10" x="771.86" y="528.49" width="6.69" height="15.85"/><rect class="cls-10" x="771.86" y="528.49" width="6.69" height="15.85"/><rect class="cls-9" x="771.86" y="456.26" width="6.69" height="15.85"/><rect class="cls-10" x="771.86" y="456.26" width="6.69" height="15.85"/><rect class="cls-10" x="771.86" y="456.26" width="6.69" height="15.85"/><rect class="cls-9" x="771.86" y="600.73" width="6.69" height="15.85"/><rect class="cls-10" x="771.86" y="600.73" width="6.69" height="15.85"/><rect class="cls-10" x="771.86" y="600.73" width="6.69" height="15.85"/><rect class="cls-9" x="771.86" y="456.2" width="6.69" height="0.06"/><rect class="cls-10" x="771.86" y="456.2" width="6.69" height="0.06"/><rect class="cls-9" x="771.86" y="472.11" width="6.69" height="2.2"/><rect class="cls-10" x="771.86" y="472.11" width="6.69" height="2.2"/><rect class="cls-9" x="771.86" y="490.17" width="6.69" height="2.2"/><rect class="cls-10" x="771.86" y="490.17" width="6.69" height="2.2"/><rect class="cls-9" x="771.86" y="508.23" width="6.69" height="2.2"/><rect class="cls-10" x="771.86" y="508.23" width="6.69" height="2.2"/><rect class="cls-9" x="771.86" y="526.29" width="6.69" height="2.2"/><rect class="cls-10" x="771.86" y="526.29" width="6.69" height="2.2"/><rect class="cls-9" x="771.86" y="544.35" width="6.69" height="2.2"/><rect class="cls-10" x="771.86" y="544.35" width="6.69" height="2.2"/><rect class="cls-9" x="771.86" y="562.41" width="6.69" height="2.2"/><rect class="cls-10" x="771.86" y="562.41" width="6.69" height="2.2"/><rect class="cls-9" x="771.86" y="580.46" width="6.69" height="2.2"/><rect class="cls-10" x="771.86" y="580.46" width="6.69" height="2.2"/><rect class="cls-9" x="771.86" y="598.52" width="6.69" height="2.2"/><rect class="cls-10" x="771.86" y="598.52" width="6.69" height="2.2"/><rect class="cls-9" x="771.86" y="616.58" width="6.69" height="2.2"/><rect class="cls-10" x="771.86" y="616.58" width="6.69" height="2.2"/><rect class="cls-9" x="771.86" y="634.64" width="6.69" height="2.2"/><rect class="cls-10" x="771.86" y="634.64" width="6.69" height="2.2"/><rect class="cls-9" x="771.86" y="652.7" width="6.69" height="2.2"/><rect class="cls-10" x="771.86" y="652.7" width="6.69" height="2.2"/><polygon class="cls-9" points="771.86 652.7 771.86 636.84 771.86 634.64 771.86 618.78 771.86 616.58 771.86 600.73 771.86 598.52 771.86 582.67 771.86 580.46 771.86 564.61 771.86 562.4 771.86 546.55 771.86 544.35 771.86 528.49 771.86 526.29 771.86 510.43 771.86 508.23 771.86 492.38 771.86 490.17 771.86 474.32 771.86 472.11 771.86 456.26 771.86 456.2 769.93 456.2 769.93 669.12 771.86 669.12 771.86 654.9 771.86 652.7"/><polygon class="cls-11" points="771.86 652.7 771.86 636.84 771.86 634.64 771.86 618.78 771.86 616.58 771.86 600.73 771.86 598.52 771.86 582.67 771.86 580.46 771.86 564.61 771.86 562.4 771.86 546.55 771.86 544.35 771.86 528.49 771.86 526.29 771.86 510.43 771.86 508.23 771.86 492.38 771.86 490.17 771.86 474.32 771.86 472.11 771.86 456.26 771.86 456.2 769.93 456.2 769.93 669.12 771.86 669.12 771.86 654.9 771.86 652.7"/><polygon class="cls-10" points="771.86 652.7 771.86 636.84 771.86 634.64 771.86 618.78 771.86 616.58 771.86 600.73 771.86 598.52 771.86 582.67 771.86 580.46 771.86 564.61 771.86 562.4 771.86 546.55 771.86 544.35 771.86 528.49 771.86 526.29 771.86 510.43 771.86 508.23 771.86 492.38 771.86 490.17 771.86 474.32 771.86 472.11 771.86 456.26 771.86 456.2 769.93 456.2 769.93 669.12 771.86 669.12 771.86 654.9 771.86 652.7"/><rect class="cls-9" x="789.47" y="636.84" width="8.62" height="15.85"/><rect class="cls-10" x="789.47" y="636.84" width="8.62" height="15.85"/><rect class="cls-10" x="789.47" y="636.84" width="8.62" height="15.85"/><rect class="cls-9" x="789.47" y="564.61" width="8.62" height="15.85"/><rect class="cls-10" x="789.47" y="564.61" width="8.62" height="15.85"/><rect class="cls-10" x="789.47" y="564.61" width="8.62" height="15.85"/><rect class="cls-9" x="789.47" y="654.9" width="8.62" height="14.22"/><rect class="cls-10" x="789.47" y="654.9" width="8.62" height="14.22"/><rect class="cls-10" x="789.47" y="654.9" width="8.62" height="14.22"/><rect class="cls-9" x="789.47" y="456.26" width="8.62" height="15.85"/><rect class="cls-10" x="789.47" y="456.26" width="8.62" height="15.85"/><rect class="cls-10" x="789.47" y="456.26" width="8.62" height="15.85"/><rect class="cls-9" x="789.47" y="474.32" width="8.62" height="15.85"/><rect class="cls-10" x="789.47" y="474.32" width="8.62" height="15.85"/><rect class="cls-10" x="789.47" y="474.32" width="8.62" height="15.85"/><rect class="cls-9" x="789.47" y="528.49" width="8.62" height="15.85"/><rect class="cls-10" x="789.47" y="528.49" width="8.62" height="15.85"/><rect class="cls-10" x="789.47" y="528.49" width="8.62" height="15.85"/><rect class="cls-9" x="789.47" y="618.78" width="8.62" height="15.85"/><rect class="cls-10" x="789.47" y="618.78" width="8.62" height="15.85"/><rect class="cls-10" x="789.47" y="618.78" width="8.62" height="15.85"/><rect class="cls-9" x="789.47" y="492.38" width="8.62" height="15.85"/><rect class="cls-10" x="789.47" y="492.38" width="8.62" height="15.85"/><rect class="cls-10" x="789.47" y="492.38" width="8.62" height="15.85"/><rect class="cls-9" x="789.47" y="510.43" width="8.62" height="15.85"/><rect class="cls-10" x="789.47" y="510.43" width="8.62" height="15.85"/><rect class="cls-10" x="789.47" y="510.43" width="8.62" height="15.85"/><rect class="cls-9" x="789.47" y="582.67" width="8.62" height="15.85"/><rect class="cls-10" x="789.47" y="582.67" width="8.62" height="15.85"/><rect class="cls-10" x="789.47" y="582.67" width="8.62" height="15.85"/><rect class="cls-9" x="789.47" y="600.73" width="8.62" height="15.85"/><rect class="cls-10" x="789.47" y="600.73" width="8.62" height="15.85"/><rect class="cls-10" x="789.47" y="600.73" width="8.62" height="15.85"/><rect class="cls-9" x="789.47" y="546.55" width="8.62" height="15.85"/><rect class="cls-10" x="789.47" y="546.55" width="8.62" height="15.85"/><rect class="cls-10" x="789.47" y="546.55" width="8.62" height="15.85"/><rect class="cls-9" x="789.47" y="456.2" width="8.62" height="0.06"/><rect class="cls-10" x="789.47" y="456.2" width="8.62" height="0.06"/><rect class="cls-9" x="789.47" y="472.11" width="8.62" height="2.2"/><rect class="cls-10" x="789.47" y="472.11" width="8.62" height="2.2"/><rect class="cls-9" x="789.47" y="490.17" width="8.62" height="2.2"/><rect class="cls-10" x="789.47" y="490.17" width="8.62" height="2.2"/><rect class="cls-9" x="789.47" y="508.23" width="8.62" height="2.2"/><rect class="cls-10" x="789.47" y="508.23" width="8.62" height="2.2"/><rect class="cls-9" x="789.47" y="526.29" width="8.62" height="2.2"/><rect class="cls-10" x="789.47" y="526.29" width="8.62" height="2.2"/><rect class="cls-9" x="789.47" y="544.35" width="8.62" height="2.2"/><rect class="cls-10" x="789.47" y="544.35" width="8.62" height="2.2"/><rect class="cls-9" x="789.47" y="562.41" width="8.62" height="2.2"/><rect class="cls-10" x="789.47" y="562.41" width="8.62" height="2.2"/><rect class="cls-9" x="789.47" y="580.46" width="8.62" height="2.2"/><rect class="cls-10" x="789.47" y="580.46" width="8.62" height="2.2"/><rect class="cls-9" x="789.47" y="598.52" width="8.62" height="2.2"/><rect class="cls-10" x="789.47" y="598.52" width="8.62" height="2.2"/><rect class="cls-9" x="789.47" y="616.58" width="8.62" height="2.2"/><rect class="cls-10" x="789.47" y="616.58" width="8.62" height="2.2"/><rect class="cls-9" x="789.47" y="634.64" width="8.62" height="2.2"/><rect class="cls-10" x="789.47" y="634.64" width="8.62" height="2.2"/><rect class="cls-9" x="789.47" y="652.7" width="8.62" height="2.2"/><rect class="cls-10" x="789.47" y="652.7" width="8.62" height="2.2"/></g></g></svg>