<svg xmlns="http://www.w3.org/2000/svg" viewBox="0 0 259.08 46.07" xmlns:v="https://vecta.io/nano"><g fill="#fff"><circle cx="171.82" cy="43.38" r="2.69"/><circle cx="143.63" cy="43.38" r="2.69"/><circle cx="115.45" cy="43.38" r="2.69"/><use href="#B"/><circle cx="59.07" cy="43.38" r="2.69"/><use href="#C"/><circle cx="2.69" cy="43.38" r="2.69"/><circle cx="171.82" cy="23.03" r="2.69"/><circle cx="143.63" cy="23.03" r="2.69"/><circle cx="115.45" cy="23.03" r="2.69"/><use href="#D"/><circle cx="59.07" cy="23.03" r="2.69"/><use href="#E"/><circle cx="2.69" cy="23.03" r="2.69"/><circle cx="171.82" cy="2.69" r="2.69"/><circle cx="143.63" cy="2.69" r="2.69"/><circle cx="115.45" cy="2.69" r="2.69"/><use href="#D" y="-20.31"/><circle cx="59.07" cy="2.69" r="2.69"/><use href="#F"/><circle cx="2.69" cy="2.69" r="2.69"/><circle cx="256.39" cy="43.38" r="2.69"/><use href="#G"/><circle cx="200.01" cy="43.38" r="2.69"/><circle cx="256.39" cy="23.03" r="2.69"/><use href="#H"/><circle cx="200.01" cy="23.03" r="2.69"/><circle cx="256.39" cy="2.69" r="2.69"/><use href="#H" y="-20.31"/><circle cx="200.01" cy="2.69" r="2.69"/></g><g fill="#333"><circle cx="171.82" cy="43.38" r="2.69"/><circle cx="143.63" cy="43.38" r="2.69"/><circle cx="115.45" cy="43.38" r="2.69"/><use href="#B"/><circle cx="59.07" cy="43.38" r="2.69"/><use href="#C"/><circle cx="2.69" cy="43.38" r="2.69"/><circle cx="171.82" cy="23.03" r="2.69"/><circle cx="143.63" cy="23.03" r="2.69"/><circle cx="115.45" cy="23.03" r="2.69"/><use href="#D"/><circle cx="59.07" cy="23.03" r="2.69"/><use href="#E"/><circle cx="2.69" cy="23.03" r="2.69"/><circle cx="171.82" cy="2.69" r="2.69"/><circle cx="143.63" cy="2.69" r="2.69"/><circle cx="115.45" cy="2.69" r="2.69"/><use href="#D" y="-20.31"/><circle cx="59.07" cy="2.69" r="2.69"/><use href="#F"/><circle cx="2.69" cy="2.69" r="2.69"/><circle cx="256.39" cy="43.38" r="2.69"/><use href="#G"/><circle cx="200.01" cy="43.38" r="2.69"/><circle cx="256.39" cy="23.03" r="2.69"/><use href="#H"/><circle cx="200.01" cy="23.03" r="2.69"/><circle cx="256.39" cy="2.69" r="2.69"/><use href="#H" y="-20.31"/><circle cx="200.01" cy="2.69" r="2.69"/></g><defs ><path id="B" d="M84.56 43.38a2.7 2.7 0 1 1 2.7 2.69 2.7 2.7 0 0 1-2.7-2.69z"/><path id="C" d="M28.19 43.38a2.7 2.7 0 1 1 2.69 2.69 2.69 2.69 0 0 1-2.69-2.69z"/><path id="D" d="M84.56 23a2.7 2.7 0 1 1 2.7 2.7 2.7 2.7 0 0 1-2.7-2.7z"/><path id="E" d="M28.19,23a2.7,2.7,0,1,1,2.69,2.7A2.69,2.69,0,0,1,28.19,23Z"/><path id="F" d="M28.19 2.69a2.7 2.7 0 1 1 2.69 2.7 2.69 2.69 0 0 1-2.69-2.7z"/><path id="G" d="M225.51 43.38a2.69 2.69 0 1 1 2.69 2.69 2.69 2.69 0 0 1-2.69-2.69z"/><path id="H" d="M225.51 23a2.69 2.69 0 1 1 2.69 2.7 2.69 2.69 0 0 1-2.69-2.7z"/></defs></svg>