<svg xmlns="http://www.w3.org/2000/svg" viewBox="0 0 1366 744.78" xmlns:v="https://vecta.io/nano"><style><![CDATA[.S{fill:#dcdcdc}.T{opacity:.3}.U{fill:#c8c8c8}.V{fill:#ececec}.W{fill:#a8a8a8}.X{opacity:.2}.Y{fill:#ffc800}]]></style><defs><linearGradient id="A" x1="683" y1="703" x2="683" gradientUnits="userSpaceOnUse"><stop offset="0" stop-color="#fff"/><stop offset=".4" stop-color="#e4e9eb"/><stop offset="1" stop-color="#c0cbcf"/></linearGradient><clipPath id="B"><path d="M11.9 343.47h1345.37v356.77H11.9z" fill="none"/></clipPath><path id="C" d="M1089.86 412.82h12.72v13.1h-12.72z"/><path id="D" d="M1134.99 715.07h-12.72v-13.1h12.72z"/><path id="E" d="M1191.44 715.07h-10.51v-13.1h10.51z"/><path id="F" d="M1178 715.07h-10.51v-13.1H1178z"/><path id="G" d="M1154.17 412.82h10.51v13.1h-10.51z"/><path id="H" d="M944.83 385.91h7.98v358.87h-7.98z"/><path id="I" d="M944.83 395.21h7.98v14.53h-7.98z"/><path id="J" d="M944.83 702.27h7.98v42.51h-7.98z"/><path id="K" d="M512.81 444.47h60.74v5.21h-60.74z"/><path id="L" d="M588.81 444.47h37.47v5.21h-37.47z"/><path id="M" d="M1216.69 474.57h21.13v8.63h-21.13z"/><path id="N" d="M1325.2 673.76h-17.35v-8.63h17.35z"/><path id="O" d="M1303 673.76h-17.35v-8.63H1303z"/><path id="P" d="M638.97 549.15h79.26v159.13h-79.26z"/><path id="Q" d="M651.44 562.93h14.03v9.75h-14.03z"/><path id="R" d="M684.78 522.31h33.45v10.26h-33.45z"/><path id="S" d="M718.23 549.15h55.61v159.13h-55.61z"/><path id="T" d="M768.14 696.06h-11.42v-9.75h11.42z"/><path id="U" d="M751.72 696.06H740.3v-9.75h11.42z"/><path id="V" d="M718.23 532.57h47.18v16.58h-47.18z"/><path id="W" d="M718.23 522.31h25.57v10.26h-25.57z"/><path id="X" d="M833.11 709.08h-69.17V431.19l69.17-44.83v322.72z"/><path id="Y" d="M771.86 436h61.24v2.2h-61.24z"/><path id="Z" d="M833.11 386.36v9.95L771.86 436v273.08h-7.91v-277.9l69.16-44.82z"/><path id="a" d="M844.82 364.13h80.29v344.95h-80.29z"/><path id="b" d="M356.13 434.33h5.25v17.53h-5.25z"/><path id="c" d="M416.35 434.33h4.47v17.53h-4.47z"/><path id="d" d="M347.47 473.12h15.15v23.2h-15.15z"/><path id="e" d="M378.3 473.12h15.15v23.2H378.3z"/><path id="f" d="M420.1 473.12h8.71v23.2h-8.71z"/><path id="g" d="M170.83 530.5h8.93v35.02h-8.93z"/><path id="h" d="M42.42 530.5h18.32v35.02H42.42z"/><path id="i" d="M72.71 530.5h18.32v35.02H72.71z"/><path id="j" d="M103 530.5h18.32v35.02H103z"/><path id="k" d="M133.29 530.5h18.32v35.02h-18.32z"/></defs><path d="M0 0h1366v703H0z" fill="url(#A)"/><path d="M695.21 407.94a24.17 24.17 0 0 0-8.66 1.6 39.39 39.39 0 0 0-62-3.13A29.42 29.42 0 0 0 585 417.2a19.71 19.71 0 0 0-32.48 15h166.95a24.26 24.26 0 0 0-24.26-24.26zm-371.6-34.88a24.17 24.17 0 0 0-7.83 1.3 45.5 45.5 0 0 0-74.8-5.74 30.81 30.81 0 0 0-42.42 28.56h149.17a24.12 24.12 0 0 0-24.12-24.12zm561.08-9.13a24.34 24.34 0 0 0-14.9 5.09A45.76 45.76 0 0 0 794 358.17a35.08 35.08 0 0 0-52.84 30.24h168a24.48 24.48 0 0 0-24.47-24.48zm-449.34 89.65a33.92 33.92 0 0 0-8.17 1 53.66 53.66 0 0 0-90.39 9.1 26.83 26.83 0 0 0-39.06 23.9h171.62a34 34 0 0 0-34-34z" fill="#fff"/><g clip-path="url(#B)"><path d="M1079.7 401.67h65.45v343.11h-65.45z" class="S"/><g class="V"><use href="#C"/><path d="M1106.14 412.82h12.72v13.1h-12.72zm-16.28 22.24h12.72v13.1h-12.72zm16.28 0h12.72v13.1h-12.72zm-16.28 22.24h12.72v13.1h-12.72zm16.28 0h12.72v13.1h-12.72zm-16.28 22.24h12.72v13.1h-12.72zm16.28 0h12.72v13.1h-12.72zm-16.28 22.25h12.72v13.1h-12.72zm16.28 0h12.72v13.1h-12.72zm-16.28 22.24h12.72v13.1h-12.72zm16.28 0h12.72v13.1h-12.72zm-16.28 22.24h12.72v13.1h-12.72zm16.28 0h12.72v13.1h-12.72zm-16.28 22.24h12.72v13.1h-12.72zm16.28 0h12.72v13.1h-12.72zm-16.28 22.25h12.72v13.1h-12.72zm16.28 0h12.72v13.1h-12.72zM1089.86 613h12.72v13.1h-12.72zm16.28 0h12.72v13.1h-12.72zm-16.28 22.24h12.72v13.1h-12.72zm16.28 0h12.72v13.1h-12.72zm-16.28 22.24h12.72v13.1h-12.72zm16.28 0h12.72v13.1h-12.72zm-16.28 22.25h12.72v13.1h-12.72zm16.28 0h12.72v13.1h-12.72zm-16.28 22.24h12.72v13.1h-12.72z"/><use href="#D"/><path d="M1134.99 692.82h-12.72v-13.1h12.72zm0-22.23h-12.72v-13.1h12.72zm0-22.25h-12.72v-13.1h12.72zm0-22.24h-12.72V613h12.72zm0-22.25h-12.72v-13.1h12.72zm0-22.23h-12.72v-13.1h12.72zm0-22.25h-12.72v-13.1h12.72zm0-22.24h-12.72v-13.1h12.72zm0-22.25h-12.72v-13.1h12.72zm0-22.23h-12.72v-13.1h12.72zm0-22.25h-12.72v-13.1h12.72zm0-22.24h-12.72v-13.1h12.72zm0-22.25h-12.72v-13.1h12.72zm-28.85 276.06h12.72v13.1h-12.72z"/></g><path d="M1145.15 401.67h51.61v343.11h-51.61z" class="W"/><g class="U"><use href="#E"/><use href="#F"/><path d="M1191.44 692.82h-10.51v-13.1h10.51zm-13.44 0h-10.51v-13.1H1178zm13.44-22.23h-10.51v-13.1h10.51zm-13.44 0h-10.51v-13.1H1178zm13.44-22.25h-10.51v-13.1h10.51zm-13.44 0h-10.51v-13.1H1178zm13.44-22.24h-10.51V613h10.51zm-13.44 0h-10.51V613H1178zm13.44-22.25h-10.51v-13.1h10.51zm-13.44 0h-10.51v-13.1H1178zm13.44-22.23h-10.51v-13.1h10.51zm-13.44 0h-10.51v-13.1H1178zm13.44-22.25h-10.51v-13.1h10.51zm-13.44 0h-10.51v-13.1H1178zm13.44-22.24h-10.51v-13.1h10.51zm-13.44 0h-10.51v-13.1H1178zm13.44-22.25h-10.51v-13.1h10.51zm-13.44 0h-10.51v-13.1H1178zm13.44-22.23h-10.51v-13.1h10.51zm-13.44 0h-10.51v-13.1H1178zm13.44-22.25h-10.51v-13.1h10.51zm-13.44 0h-10.51v-13.1H1178zm13.44-22.24h-10.51v-13.1h10.51zm-13.44 0h-10.51v-13.1H1178zm13.44-22.25h-10.51v-13.1h10.51z"/><use href="#G"/><path d="M1154.17 435.06h10.51v13.1h-10.51zm0 22.24h10.51v13.1h-10.51zm0 22.24h10.51v13.1h-10.51zm0 22.25h10.51v13.1h-10.51zm0 22.24h10.51v13.1h-10.51zm0 22.24h10.51v13.1h-10.51zm0 22.24h10.51v13.1h-10.51zm0 22.25h10.51v13.1h-10.51zm0 22.24h10.51v13.1h-10.51zm0 22.24h10.51v13.1h-10.51zm0 22.24h10.51v13.1h-10.51zm0 22.25h10.51v13.1h-10.51zm0 22.24h10.51v13.1h-10.51zM1178 425.91h-10.51v-13.1H1178z"/></g><path d="M937.7 375.06h78.8v369.72h-78.8z" class="V"/><path d="M935.81 367.69h80.69v7.36h-80.69z" class="U"/><g fill="#fff"><use href="#H"/><path d="M958.97 385.91h7.98v358.87h-7.98zm14.14 0h7.98v358.87h-7.98zm14.14 0h7.98v358.87h-7.98zm14.14 0h7.98v358.87h-7.98z"/></g><g class="V"><use href="#I"/><path d="M958.97 395.21h7.98v14.53h-7.98zm14.14 0h7.98v14.53h-7.98zm14.14 0h7.98v14.53h-7.98zm14.14 0h7.98v14.53h-7.98zm-56.56 23.62h7.98v14.53h-7.98zm14.14 0h7.98v14.53h-7.98zm14.14 0h7.98v14.53h-7.98zm14.14 0h7.98v14.53h-7.98zm14.14 0h7.98v14.53h-7.98zm-56.56 23.62h7.98v14.53h-7.98zm14.14 0h7.98v14.53h-7.98zm14.14 0h7.98v14.53h-7.98zm14.14 0h7.98v14.53h-7.98zm14.14 0h7.98v14.53h-7.98zm-56.56 23.62h7.98v14.53h-7.98zm14.14 0h7.98v14.53h-7.98zm14.14 0h7.98v14.53h-7.98zm14.14 0h7.98v14.53h-7.98zm14.14 0h7.98v14.53h-7.98zm-56.56 23.62h7.98v14.53h-7.98zm14.14 0h7.98v14.53h-7.98zm14.14 0h7.98v14.53h-7.98zm14.14 0h7.98v14.53h-7.98zm14.14 0h7.98v14.53h-7.98zm-56.56 23.62h7.98v14.53h-7.98zm14.14 0h7.98v14.53h-7.98zm14.14 0h7.98v14.53h-7.98zm14.14 0h7.98v14.53h-7.98zm14.14 0h7.98v14.53h-7.98zm-56.56 23.62h7.98v14.53h-7.98zm14.14 0h7.98v14.53h-7.98zm14.14 0h7.98v14.53h-7.98zm14.14 0h7.98v14.53h-7.98zm14.14 0h7.98v14.53h-7.98zm-56.56 23.62h7.98v14.53h-7.98zm14.14 0h7.98v14.53h-7.98zm14.14 0h7.98v14.53h-7.98zm14.14 0h7.98v14.53h-7.98zm14.14 0h7.98v14.53h-7.98zm-56.56 23.62h7.98v14.53h-7.98zm14.14 0h7.98v14.53h-7.98zm14.14 0h7.98v14.53h-7.98zm14.14 0h7.98v14.53h-7.98zm14.14 0h7.98v14.53h-7.98zm-56.56 23.62h7.98v14.53h-7.98zm14.14 0h7.98v14.53h-7.98zm14.14 0h7.98v14.53h-7.98zm14.14 0h7.98v14.53h-7.98zm14.14 0h7.98v14.53h-7.98zm-56.56 23.62h7.98v14.53h-7.98zm14.14 0h7.98v14.53h-7.98zm14.14 0h7.98v14.53h-7.98zm14.14 0h7.98v14.53h-7.98zm14.14 0h7.98v14.53h-7.98zm-56.56 23.62h7.98v14.53h-7.98zm14.14 0h7.98v14.53h-7.98zm14.14 0h7.98v14.53h-7.98zm14.14 0h7.98v14.53h-7.98zm14.14 0h7.98v14.53h-7.98zm-56.56 23.62h7.98v14.53h-7.98zm14.14 0h7.98v14.53h-7.98zm14.14 0h7.98v14.53h-7.98zm14.14 0h7.98v14.53h-7.98zm14.14 0h7.98v14.53h-7.98z"/><use href="#J"/><path d="M958.97 702.27h7.98v42.51h-7.98zm14.14 0h7.98v42.51h-7.98zm14.14 0h7.98v42.51h-7.98zm14.14 0h7.98v42.51h-7.98z"/></g><path d="M1016.5 375.06h50.59v369.72h-50.59z" class="S"/><g class="U"><path d="M1016.5 367.69h52.78v7.36h-52.78zm7.12 18.22h7.98v358.87h-7.98zm14.14 0h7.98v358.87h-7.98zm14.14 0h7.98v358.87h-7.98z"/></g><g class="S"><path d="M1023.62 395.21h7.98v14.53h-7.98zm14.14 0h7.98v14.53h-7.98zm14.14 0h7.98v14.53h-7.98zm-28.28 23.62h7.98v14.53h-7.98zm14.14 0h7.98v14.53h-7.98zm14.14 0h7.98v14.53h-7.98zm-28.28 23.62h7.98v14.53h-7.98zm14.14 0h7.98v14.53h-7.98zm14.14 0h7.98v14.53h-7.98zm-28.28 23.62h7.98v14.53h-7.98zm14.14 0h7.98v14.53h-7.98zm14.14 0h7.98v14.53h-7.98zm-28.28 23.62h7.98v14.53h-7.98zm14.14 0h7.98v14.53h-7.98zm14.14 0h7.98v14.53h-7.98zm-28.28 23.62h7.98v14.53h-7.98zm14.14 0h7.98v14.53h-7.98zm14.14 0h7.98v14.53h-7.98zm-28.28 23.62h7.98v14.53h-7.98zm14.14 0h7.98v14.53h-7.98zm14.14 0h7.98v14.53h-7.98zm-28.28 23.62h7.98v14.53h-7.98zm14.14 0h7.98v14.53h-7.98zm14.14 0h7.98v14.53h-7.98zm-28.28 23.62h7.98v14.53h-7.98zm14.14 0h7.98v14.53h-7.98zm14.14 0h7.98v14.53h-7.98zm-28.28 23.62h7.98v14.53h-7.98zm14.14 0h7.98v14.53h-7.98zm14.14 0h7.98v14.53h-7.98zm-28.28 23.62h7.98v14.53h-7.98zm14.14 0h7.98v14.53h-7.98zm14.14 0h7.98v14.53h-7.98zm-28.28 23.62h7.98v14.53h-7.98zm14.14 0h7.98v14.53h-7.98zm14.14 0h7.98v14.53h-7.98zm-28.28 23.62h7.98v14.53h-7.98zm14.14 0h7.98v14.53h-7.98zm14.14 0h7.98v14.53h-7.98zm-28.28 23.62h7.98v42.51h-7.98zm14.14 0h7.98v42.51h-7.98zm14.14 0h7.98v42.51h-7.98z"/></g><path d="M504.28 413.2h77.81v295.08h-77.81z" class="V"/><path d="M515.35 393.63h66.74v19.57h-66.74z" class="U"/><path d="M512.81 423.42h60.74v220.59h-60.74z" class="S"/><g fill="#fff"><use href="#K"/><path d="M512.81 466.06h60.74v5.21h-60.74zm0 21.59h60.74v5.21h-60.74zm0 21.59h60.74v5.21h-60.74zm0 21.6h60.74v5.21h-60.74zm0 21.59h60.74v5.21h-60.74zm0 21.59h60.74v5.21h-60.74zm0 21.59h60.74v5.21h-60.74zm0 21.59h60.74v5.21h-60.74zm0 21.59h60.74V644h-60.74z"/></g><path d="M582.09 413.2h48.73v295.08h-48.73z" class="S"/><path d="M582.09 393.63h41.42v19.57h-41.42z" class="W"/><path d="M588.81 423.42h37.47v220.59h-37.47z" class="U"/><g fill="#fff"><use href="#L"/><path d="M588.81 466.06h37.47v5.21h-37.47zm0 21.59h37.47v5.21h-37.47zm0 21.59h37.47v5.21h-37.47zm0 21.6h37.47v5.21h-37.47zm0 21.59h37.47v5.21h-37.47zm0 21.59h37.47v5.21h-37.47zm0 21.59h37.47v5.21h-37.47zm0 21.59h37.47v5.21h-37.47zm0 21.59h37.47V644h-37.47z"/></g><path d="M1224.95 418.18h41.55v49.09h-41.55z" class="S"/><path d="M1266.5 418.18h26.35v50.89h-26.35z" class="U"/><path d="M1268.46 439.85h26.15v29.21h-26.15z" class="S"/><path d="M1294.6 439.85h16.31v29.21h-16.31z" class="U"/><path d="M1209.01 464.08h67.19v244.21h-67.19z" class="V"/><g fill="#fff"><use href="#M"/><path d="M1243.72 474.57h21.13v8.63h-21.13zm-27.03 14.66h21.13v8.63h-21.13zm27.03 0h21.13v8.63h-21.13zm-27.03 14.66h21.13v8.63h-21.13zm27.03 0h21.13v8.63h-21.13zm-27.03 14.66h21.13v8.63h-21.13zm27.03 0h21.13v8.63h-21.13zm-27.03 14.65h21.13v8.63h-21.13zm27.03 0h21.13v8.63h-21.13zm-27.03 14.66h21.13v8.63h-21.13zm27.03 0h21.13v8.63h-21.13zm-27.03 14.66h21.13v8.63h-21.13zm27.03 0h21.13v8.63h-21.13zm-27.03 14.66h21.13v8.63h-21.13zm27.03 0h21.13v8.63h-21.13zm-27.03 14.66h21.13v8.63h-21.13zm27.03 0h21.13v8.63h-21.13zm-27.03 14.65h21.13v8.63h-21.13zm27.03 0h21.13v8.63h-21.13zm-27.03 14.66h21.13v8.63h-21.13zm27.03 0h21.13v8.63h-21.13zm-27.03 14.66h21.13v8.63h-21.13zm27.03 0h21.13v8.63h-21.13zm-27.03 14.66h21.13v8.63h-21.13zm27.03 0h21.13v8.63h-21.13zm-27.03 14.66h21.13v8.63h-21.13zm27.03 0h21.13v8.63h-21.13z"/></g><path d="M1276.2 464.08h54.45v244.21h-54.45z" class="U"/><g class="V"><use href="#N"/><use href="#O"/><path d="M1325.2 659.1h-17.35v-8.63h17.35zm-22.2 0h-17.35v-8.63H1303zm22.2-14.66h-17.35v-8.63h17.35zm-22.2 0h-17.35v-8.63H1303zm22.2-14.65h-17.35v-8.63h17.35zm-22.2 0h-17.35v-8.63H1303zm22.2-14.66h-17.35v-8.63h17.35zm-22.2 0h-17.35v-8.63H1303zm22.2-14.66h-17.35v-8.63h17.35zm-22.2 0h-17.35v-8.63H1303zm22.2-14.66h-17.35v-8.63h17.35zm-22.2 0h-17.35v-8.63H1303zm22.2-14.65h-17.35v-8.63h17.35zm-22.2 0h-17.35v-8.63H1303zm22.2-14.66h-17.35v-8.63h17.35zm-22.2 0h-17.35v-8.63H1303zm22.2-14.66h-17.35v-8.63h17.35zm-22.2 0h-17.35v-8.63H1303zm22.2-14.66h-17.35v-8.63h17.35zm-22.2 0h-17.35v-8.63H1303zm22.2-14.66h-17.35v-8.63h17.35zm-22.2 0h-17.35v-8.63H1303zm22.2-14.65h-17.35v-8.63h17.35zm-22.2 0h-17.35v-8.63H1303zm22.2-14.66h-17.35v-8.63h17.35zm-22.2 0h-17.35v-8.63H1303z"/></g><use href="#P" class="U"/><g class="S"><use href="#Q"/><path d="M651.44 583.75h14.03v9.75h-14.03zm0 20.82h14.03v9.75h-14.03zm0 20.83h14.03v9.75h-14.03zm0 20.82h14.03v9.75h-14.03zm0 20.82h14.03v9.75h-14.03zm0 20.83h14.03v9.75h-14.03zm20.17-124.94h14.03v9.75h-14.03zm0 20.82h14.03v9.75h-14.03zm0 20.82h14.03v9.75h-14.03zm0 20.83h14.03v9.75h-14.03zm0 20.82h14.03v9.75h-14.03zm0 20.82h14.03v9.75h-14.03zm0 20.83h14.03v9.75h-14.03zm20.13-124.94h14.03v9.75h-14.03zm0 20.82h14.03v9.75h-14.03zm0 20.82h14.03v9.75h-14.03zm0 20.83h14.03v9.75h-14.03zm0 20.82h14.03v9.75h-14.03zm0 20.82h14.03v9.75h-14.03zm0 20.83h14.03v9.75h-14.03zm-26.28-155.3h52.77v16.58h-52.77z"/></g><use href="#R" class="V"/><use href="#S" class="W"/><g class="U"><use href="#T"/><path d="M768.14 675.24h-11.42v-9.75h11.42zm0-20.83h-11.42v-9.75h11.42zm0-20.82h-11.42v-9.75h11.42zm0-20.82h-11.42v-9.75h11.42zm0-20.83h-11.42v-9.75h11.42zm0-20.82h-11.42v-9.75h11.42z"/><use href="#U"/><path d="M751.72 675.24H740.3v-9.75h11.42zm0-20.83H740.3v-9.75h11.42zm0-20.82H740.3v-9.75h11.42zm0-20.82H740.3v-9.75h11.42zm0-20.83H740.3v-9.75h11.42zm0-20.82H740.3v-9.75h11.42zm-16.38 124.94h-11.42v-9.75h11.42zm0-20.82h-11.42v-9.75h11.42zm0-20.83h-11.42v-9.75h11.42zm0-20.82h-11.42v-9.75h11.42zm0-20.82h-11.42v-9.75h11.42zm0-20.83h-11.42v-9.75h11.42zm0-20.82h-11.42v-9.75h11.42z"/><use href="#V"/></g><use href="#W" class="S"/><path d="M380.99 549.15h79.26v159.13h-79.26z" class="U"/><g class="S"><path d="M393.45 562.93h14.03v9.75h-14.03zm0 20.82h14.03v9.75h-14.03zm0 20.82h14.03v9.75h-14.03zm0 20.83h14.03v9.75h-14.03zm0 20.82h14.03v9.75h-14.03zm0 20.82h14.03v9.75h-14.03zm0 20.83h14.03v9.75h-14.03zm20.18-124.94h14.03v9.75h-14.03zm0 20.82h14.03v9.75h-14.03zm0 20.82h14.03v9.75h-14.03zm0 20.83h14.03v9.75h-14.03zm0 20.82h14.03v9.75h-14.03zm0 20.82h14.03v9.75h-14.03zm0 20.83h14.03v9.75h-14.03zm20.12-124.94h14.03v9.75h-14.03zm0 20.82h14.03v9.75h-14.03zm0 20.82h14.03v9.75h-14.03zm0 20.83h14.03v9.75h-14.03zm0 20.82h14.03v9.75h-14.03zm0 20.82h14.03v9.75h-14.03zm0 20.83h14.03v9.75h-14.03zm-26.27-155.3h52.77v16.58h-52.77z"/></g><path d="M426.79 522.31h33.45v10.26h-33.45z" class="V"/><path d="M460.24 549.15h55.61v159.13h-55.61z" class="W"/><g class="U"><path d="M510.16 696.06h-11.42v-9.75h11.42zm0-20.82h-11.42v-9.75h11.42zm0-20.83h-11.42v-9.75h11.42zm0-20.82h-11.42v-9.75h11.42zm0-20.82h-11.42v-9.75h11.42zm0-20.83h-11.42v-9.75h11.42zm0-20.82h-11.42v-9.75h11.42zm-16.43 124.94h-11.42v-9.75h11.42zm0-20.82h-11.42v-9.75h11.42zm0-20.83h-11.42v-9.75h11.42zm0-20.82h-11.42v-9.75h11.42zm0-20.82h-11.42v-9.75h11.42zm0-20.83h-11.42v-9.75h11.42zm0-20.82h-11.42v-9.75h11.42zm-16.37 124.94h-11.42v-9.75h11.42zm0-20.82h-11.42v-9.75h11.42zm0-20.83h-11.42v-9.75h11.42zm0-20.82h-11.42v-9.75h11.42zm0-20.82h-11.42v-9.75h11.42zm0-20.83h-11.42v-9.75h11.42zm0-20.82h-11.42v-9.75h11.42zm-17.12-38.55h47.18v16.58h-47.18z"/></g><path d="M460.24 522.31h25.57v10.26h-25.57z" class="S"/><path d="M227.01 549.15h79.26v159.13h-79.26z" class="U"/><g class="S"><path d="M239.48 562.93h14.03v9.75h-14.03zm0 20.82h14.03v9.75h-14.03zm0 20.82h14.03v9.75h-14.03zm0 20.83h14.03v9.75h-14.03zm0 20.82h14.03v9.75h-14.03zm0 20.82h14.03v9.75h-14.03zm0 20.83h14.03v9.75h-14.03zm20.17-124.94h14.03v9.75h-14.03zm0 20.82h14.03v9.75h-14.03zm0 20.82h14.03v9.75h-14.03zm0 20.83h14.03v9.75h-14.03zm0 20.82h14.03v9.75h-14.03zm0 20.82h14.03v9.75h-14.03zm0 20.83h14.03v9.75h-14.03zm20.13-124.94h14.03v9.75h-14.03zm0 20.82h14.03v9.75h-14.03zm0 20.82h14.03v9.75h-14.03zm0 20.83h14.03v9.75h-14.03zm0 20.82h14.03v9.75h-14.03zm0 20.82h14.03v9.75h-14.03zm0 20.83h14.03v9.75h-14.03zm-26.28-155.3h52.77v16.58H253.5z"/></g><path d="M272.81 522.31h33.45v10.26h-33.45z" class="V"/><path d="M306.27 549.15h55.61v159.13h-55.61z" class="W"/><g class="U"><path d="M356.19 696.06h-11.42v-9.75h11.42zm0-20.82h-11.42v-9.75h11.42zm0-20.83h-11.42v-9.75h11.42zm0-20.82h-11.42v-9.75h11.42zm0-20.82h-11.42v-9.75h11.42zm0-20.83h-11.42v-9.75h11.42zm0-20.82h-11.42v-9.75h11.42zm-16.43 124.94h-11.42v-9.75h11.42zm0-20.82h-11.42v-9.75h11.42zm0-20.83h-11.42v-9.75h11.42zm0-20.82h-11.42v-9.75h11.42zm0-20.82h-11.42v-9.75h11.42zm0-20.83h-11.42v-9.75h11.42zm0-20.82h-11.42v-9.75h11.42zm-16.39 124.94h-11.42v-9.75h11.42zm0-20.82h-11.42v-9.75h11.42zm0-20.83h-11.42v-9.75h11.42zm0-20.82h-11.42v-9.75h11.42zm0-20.82h-11.42v-9.75h11.42zm0-20.83h-11.42v-9.75h11.42zm0-20.82h-11.42v-9.75h11.42zm-17.1-38.55h47.18v16.58h-47.18z"/></g><path d="M306.27 522.31h25.57v10.26h-25.57z" class="S"/><g class="Y"><path d="M844.82 709.08h-91.13V423.19l91.13-59.06v344.95z"/><use href="#X"/></g><use href="#X" class="X"/><g class="Y"><use href="#Y"/><path d="M771.86 454.05h61.24v2.2h-61.24zm0 18.06h61.24v2.2h-61.24zm0 18.06h61.24v2.2h-61.24zm0 18.06h61.24v2.2h-61.24zm0 18.06h61.24v2.2h-61.24zm0 18.06h61.24v2.2h-61.24zm0 18.06h61.24v2.2h-61.24zm0 18.05h61.24v2.2h-61.24zm0 18.06h61.24v2.2h-61.24zm0 18.06h61.24v2.2h-61.24zm0 18.06h61.24v2.2h-61.24zm0 18.06h61.24v2.2h-61.24zm0 18.06h61.24v2.2h-61.24zm0 18.05h61.24v2.2h-61.24zm0 18.06h61.24v2.2h-61.24z"/><path d="M801.38 709.08V415.02h2.2v294.06z"/><use href="#Z"/></g><use href="#Z" opacity=".1"/><use href="#a" class="Y"/><use href="#a" class="X"/><path d="M330.67 455.76h82.07v251.99h-82.07z" class="U"/><path d="M351.02 430.42h61.41v25.35h-61.41z" class="W"/><g fill="#505050" class="X"><use href="#b"/><path d="M365.32 434.33h5.25v17.53h-5.25zm9.19 0h5.25v17.53h-5.25zm9.18 0h5.25v17.53h-5.25zm9.19 0h5.25v17.53h-5.25zm9.19 0h5.25v17.53h-5.25z"/></g><path d="M412.43 430.42h27.92v25.35h-27.92z" class="U"/><g fill="#3e3e3e" class="X"><use href="#c"/><path d="M424.16 434.33h4.47v17.53h-4.47zm7.82 0h4.47v17.53h-4.47z"/></g><g class="W"><path d="M412.43 455.76h41.77v251.99h-41.77zm-49.76-38.19h1.88v12.84h-1.88zm36.23 0h1.88v12.84h-1.88z"/></g><path d="M354.35 395.11h54.76v22.46h-54.76z" class="U"/><g fill="#292929"><use href="#d" opacity=".35"/><use href="#e" opacity=".35"/><path d="M347.47 509.67h15.15v23.2h-15.15zm30.83 0h15.15v23.2H378.3zm-30.83 36.56h15.15v23.2h-15.15zm30.83 0h15.15v23.2H378.3zm-30.83 36.55h15.15v23.2h-15.15zm30.83 0h15.15v23.2H378.3zm-30.83 36.55h15.15v23.2h-15.15zm30.83 0h15.15v23.2H378.3zm-30.83 36.55h15.15v23.2h-15.15zm30.83 0h15.15v23.2H378.3z" opacity=".35"/><use href="#f" opacity=".15"/><path d="M437.82 473.12h8.71v23.2h-8.71zm-17.72 36.55h8.71v23.2h-8.71zm17.72 0h8.71v23.2h-8.71zm-17.72 36.56h8.71v23.2h-8.71zm17.72 0h8.71v23.2h-8.71zm-17.72 36.55h8.71v23.2h-8.71zm17.72 0h8.71v23.2h-8.71zm-17.72 36.55h8.71v23.2h-8.71zm17.72 0h8.71v23.2h-8.71zm-17.72 36.55h8.71v23.2h-8.71zm17.72 0h8.71v23.2h-8.71z" opacity=".15"/></g><path d="M164.52 517.88h65.86v189.87h-65.86z" class="W"/><path d="M234.31 517.88h-69.8v-10.91h69.8z" class="V"/><path d="M223.69 506.97h-59.18v-17.03h59.18z" class="U"/><g class="T S"><use href="#g"/></g><g class="T S"><path d="M170.83 578.21h8.93v35.02h-8.93z"/></g><g class="T S"><path d="M170.83 625.93h8.93v35.02h-8.93z"/></g><g class="T S"><path d="M185.6 530.5h8.93v35.02h-8.93z"/></g><g class="T S"><path d="M185.6 578.21h8.93v35.02h-8.93z"/></g><g class="T S"><path d="M185.6 625.93h8.93v35.02h-8.93z"/></g><g class="T S"><path d="M200.36 530.5h8.93v35.02h-8.93z"/></g><g class="T S"><path d="M200.36 578.21h8.93v35.02h-8.93z"/></g><g class="T S"><path d="M200.36 625.93h8.93v35.02h-8.93z"/></g><g class="T S"><path d="M215.13 530.5h8.93v35.02h-8.93z"/></g><g class="T S"><path d="M215.13 578.21h8.93v35.02h-8.93z"/></g><g class="T S"><path d="M215.13 625.93h8.93v35.02h-8.93z"/></g><path d="M29.52 517.88h135v189.87h-135z" class="U"/><path d="M35.98 489.93h128.53v17.03H35.98z" class="V"/><path d="M25.48 506.97h139.04v10.91H25.48z" class="W"/><g class="T S"><use href="#h"/></g><g class="T S"><path d="M42.42 578.21h18.32v35.02H42.42z"/></g><g class="T S"><path d="M42.42 625.93h18.32v35.02H42.42z"/></g><use href="#i" class="S T"/><g class="T S"><path d="M72.71 578.21h18.32v35.02H72.71z"/></g><g class="T S"><path d="M72.71 625.93h18.32v35.02H72.71z"/></g><g class="T S"><use href="#j"/></g><g class="T S"><path d="M103 578.21h18.32v35.02H103z"/></g><g class="T S"><path d="M103 625.93h18.32v35.02H103z"/></g><use href="#k" class="S T"/><g class="T S"><path d="M133.29 578.21h18.32v35.02h-18.32z"/></g><path d="M133.29 625.93h18.32v35.02h-18.32z" class="S T"/></g><path d="M769.93 669.12V456.2h8.62v212.92zm19.54 0V456.2h8.62v212.92z" class="X"/></svg>