<svg xmlns="http://www.w3.org/2000/svg" viewBox="0 0 164.46 164.46"><defs><style>.cls-1{fill:#f2f2f2;}</style></defs><g id="Capa_2" data-name="Capa 2"><g id="Layer_1" data-name="Layer 1"><rect width="164.46" height="164.46"/><path class="cls-1" d="M37.51,49.09A5.09,5.09,0,0,1,36.78,52a3.58,3.58,0,0,1-2,1.44,5.08,5.08,0,0,1,1,1.72,6.66,6.66,0,0,1,.34,2.19,6.58,6.58,0,0,1-.41,2.37,4.79,4.79,0,0,1-1.2,1.81,5.25,5.25,0,0,1-2,1.17,8.4,8.4,0,0,1-2.71.4H28.23a1.17,1.17,0,0,0-.85.31.94.94,0,0,0-.32.74.92.92,0,0,0,.28.71,1,1,0,0,0,.72.27h5.87a4,4,0,0,1,1.51.3,3.73,3.73,0,0,1,1.23.89,4.35,4.35,0,0,1,.84,1.4,5.24,5.24,0,0,1,.3,1.83,5.18,5.18,0,0,1-.43,2.14,4.94,4.94,0,0,1-1.17,1.66,5.43,5.43,0,0,1-1.75,1.06,6.23,6.23,0,0,1-2.13.36H26.08a3.71,3.71,0,0,1-1.45-.28,3.41,3.41,0,0,1-1.19-.81,3.69,3.69,0,0,1-.8-1.23,4,4,0,0,1-.29-1.55,3.5,3.5,0,0,1,.61-2.1,4.49,4.49,0,0,1,1.55-1.35,3,3,0,0,1-1-1,3,3,0,0,1-.37-1.53,2.63,2.63,0,0,1,.19-1,3.09,3.09,0,0,1,.54-.84,3.48,3.48,0,0,1,.8-.66,6,6,0,0,1,1-.46A4.73,4.73,0,0,1,24.09,60a6.51,6.51,0,0,1-.51-2.66A6.58,6.58,0,0,1,24,55a4.84,4.84,0,0,1,1.19-1.83,5.69,5.69,0,0,1,2-1.18,8.91,8.91,0,0,1,4.22-.29,4.76,4.76,0,0,1,1.31.37,3.93,3.93,0,0,0,.8-.77,4,4,0,0,0,.5-.82,4.12,4.12,0,0,0,.27-.76,2.49,2.49,0,0,0,.09-.58ZM27.8,68.71a1.29,1.29,0,0,0-.6.12,1.54,1.54,0,0,0-.49.34,1.56,1.56,0,0,0-.34.48,1.69,1.69,0,0,0-.12.6,1.59,1.59,0,0,0,.44,1.16,1.57,1.57,0,0,0,1.11.43h4.34a1.87,1.87,0,0,0,1.24-.43,1.47,1.47,0,0,0,.51-1.16,1.42,1.42,0,0,0-.46-1.13,1.63,1.63,0,0,0-1.12-.41Zm2-14.31a2.15,2.15,0,0,0-1.8.77,3.42,3.42,0,0,0-.6,2.15,3.32,3.32,0,0,0,.6,2.12,2.15,2.15,0,0,0,1.8.77,2.13,2.13,0,0,0,1.81-.77,3.34,3.34,0,0,0,.6-2.12,3.5,3.5,0,0,0-.6-2.15A2.13,2.13,0,0,0,29.84,54.4Z"/><path class="cls-1" d="M47.56,51.54a3.41,3.41,0,0,1,.66.05l.52.09c.17,0,.3.09.43.13v3.73H47.78a4,4,0,0,0-1.2.18,2.45,2.45,0,0,0-1,.64,3.25,3.25,0,0,0-.7,1.2,6,6,0,0,0-.26,1.88v9.45H40.75v-17H44l.46,2.47h.18c.11-.36.26-.7.4-1a4.13,4.13,0,0,1,.59-.92,3.06,3.06,0,0,1,.83-.65A2.55,2.55,0,0,1,47.56,51.54Z"/><path class="cls-1" d="M64.6,68.89H61.39L61,66.79h-.19a8.41,8.41,0,0,1-.76,1,4.26,4.26,0,0,1-1,.78,4.79,4.79,0,0,1-2.57.75A5.54,5.54,0,0,1,54.71,69a3.48,3.48,0,0,1-1.42-.93,4.27,4.27,0,0,1-.93-1.7A8.46,8.46,0,0,1,52,63.82V51.93h3.87V62.77a3.6,3.6,0,0,0,.58,2.32,2,2,0,0,0,1.65.67,2.21,2.21,0,0,0,1-.26,2.85,2.85,0,0,0,.83-.68,3.68,3.68,0,0,0,.56-1.06,4.16,4.16,0,0,0,.21-1.33V51.93h3.87v17Z"/><path class="cls-1" d="M76.75,51.54a4.84,4.84,0,0,1,2.27.52,4.65,4.65,0,0,1,1.72,1.62,8.3,8.3,0,0,1,1.09,2.77,17.68,17.68,0,0,1,.39,4,17.06,17.06,0,0,1-.41,4,9.07,9.07,0,0,1-1.1,2.76A4.31,4.31,0,0,1,77,69.3a4.68,4.68,0,0,1-2.29-.56,3.42,3.42,0,0,1-1.48-1.58H73v7.33H69.15V51.93h3.21l.39,2.1h.16a4.74,4.74,0,0,1,1.65-1.87A4,4,0,0,1,76.75,51.54Zm-1.16,3.51a2,2,0,0,0-2,1.22A8.42,8.42,0,0,0,73,59.78V61a8.71,8.71,0,0,0,.59,3.56,2.22,2.22,0,0,0,4,0A8.34,8.34,0,0,0,78.17,61V59.78a8.35,8.35,0,0,0-.59-3.51A2,2,0,0,0,75.59,55.05Z"/><path class="cls-1" d="M92.59,51.54a6.09,6.09,0,0,1,5.08,2.14c1.13,1.44,1.69,3.67,1.69,6.73s-.56,5.29-1.69,6.73a7.07,7.07,0,0,1-10.17,0c-1.12-1.44-1.69-3.69-1.69-6.73s.57-5.29,1.69-6.73A6.09,6.09,0,0,1,92.59,51.54Zm0,3.25a2.19,2.19,0,0,0-2.13,1.29,9.08,9.08,0,0,0-.61,3.72V61a8.85,8.85,0,0,0,.62,3.73,2.4,2.4,0,0,0,4.25,0A8.67,8.67,0,0,0,95.35,61V59.8a8.64,8.64,0,0,0-.63-3.71A2.19,2.19,0,0,0,92.59,54.79Z"/><path class="cls-1" d="M28,85.85h2.44v3.26H28v9.45A1.21,1.21,0,0,0,29.3,100h1.09v2.86a3.61,3.61,0,0,1-.49.15l-.6.12-.63.1-.6,0a4.3,4.3,0,0,1-1.94-.39,3.38,3.38,0,0,1-1.23-1,4.49,4.49,0,0,1-.65-1.46,7.77,7.77,0,0,1-.18-1.67V89.11H22.35V85.85h1.72l.59-4.78H28Z"/><path class="cls-1" d="M39.36,85.45A5.28,5.28,0,0,1,44,87.6c1,1.44,1.54,3.67,1.54,6.73v1H36.88a11.88,11.88,0,0,0,.17,2,5.65,5.65,0,0,0,.46,1.5,2.08,2.08,0,0,0,2,1.24,1.82,1.82,0,0,0,1.58-.85,4.14,4.14,0,0,0,.59-2.38h3.83a8,8,0,0,1-.46,2.85,5.33,5.33,0,0,1-1.25,2,4.9,4.9,0,0,1-1.9,1.17,7.39,7.39,0,0,1-2.39.39,5.89,5.89,0,0,1-5-2.16q-1.69-2.16-1.7-6.73c0-3,.57-5.29,1.69-6.72A5.68,5.68,0,0,1,39.36,85.45Zm0,3.17a1.89,1.89,0,0,0-1.79,1,6.57,6.57,0,0,0-.65,2.87h4.5a6.51,6.51,0,0,0-.5-2.87A1.62,1.62,0,0,0,39.36,88.62Z"/><path class="cls-1" d="M57.41,85.45a5.58,5.58,0,0,1,1.81.29,3.48,3.48,0,0,1,1.42.93,4.22,4.22,0,0,1,.93,1.69,8.46,8.46,0,0,1,.35,2.54v11.92H58.05V92a3.53,3.53,0,0,0-.6-2.32A2.11,2.11,0,0,0,55.8,89a2.2,2.2,0,0,0-1,.25,2.8,2.8,0,0,0-.85.73A3.92,3.92,0,0,0,53.35,91a4.44,4.44,0,0,0-.2,1.32v10.47H49.29v-17H52.5l.4,2.1h.18a8.11,8.11,0,0,1,.76-1,4.26,4.26,0,0,1,1-.78A4.94,4.94,0,0,1,56,85.66,4.71,4.71,0,0,1,57.41,85.45Z"/><path class="cls-1" d="M79.05,102.81H75.83l-.39-2.1h-.16a4.57,4.57,0,0,1-1.63,1.85,4,4,0,0,1-2.21.63,5,5,0,0,1-2.27-.53A4.49,4.49,0,0,1,67.45,101a8.52,8.52,0,0,1-1.09-2.77,17.83,17.83,0,0,1-.38-4,17.17,17.17,0,0,1,.4-4,8.86,8.86,0,0,1,1.11-2.75A4.56,4.56,0,0,1,69.15,86a4.24,4.24,0,0,1,2.09-.52,4.74,4.74,0,0,1,2.3.55A3.38,3.38,0,0,1,75,87.55h.17V79.48h3.87ZM72.61,89a2,2,0,0,0-2,1.23A8.23,8.23,0,0,0,70,93.7v1.23a8.22,8.22,0,0,0,.59,3.52,2.22,2.22,0,0,0,4,0,8.22,8.22,0,0,0,.59-3.52V93.78a13.85,13.85,0,0,0-.14-2,5,5,0,0,0-.46-1.51,2.26,2.26,0,0,0-.8-.94A2.1,2.1,0,0,0,72.61,89Z"/><path class="cls-1" d="M89.32,85.45a5.28,5.28,0,0,1,4.6,2.15c1,1.44,1.54,3.67,1.54,6.73v1H86.84a11.88,11.88,0,0,0,.17,2,5.65,5.65,0,0,0,.46,1.5,2.26,2.26,0,0,0,.8.92,2.17,2.17,0,0,0,1.2.32,1.82,1.82,0,0,0,1.58-.85,4.14,4.14,0,0,0,.59-2.38h3.83A8.2,8.2,0,0,1,95,99.68a5.47,5.47,0,0,1-1.26,2,4.9,4.9,0,0,1-1.9,1.17,7.35,7.35,0,0,1-2.39.39,5.91,5.91,0,0,1-5-2.16q-1.7-2.16-1.69-6.73c0-3,.56-5.29,1.68-6.72A5.66,5.66,0,0,1,89.32,85.45Zm0,3.17a1.89,1.89,0,0,0-1.79,1,6.57,6.57,0,0,0-.65,2.87h4.5a6.68,6.68,0,0,0-.49-2.87A1.65,1.65,0,0,0,89.32,88.62Z"/><path class="cls-1" d="M107.36,85.45a5.58,5.58,0,0,1,1.81.29,3.48,3.48,0,0,1,1.42.93,4.35,4.35,0,0,1,.93,1.69,8.51,8.51,0,0,1,.33,2.54v11.92H108V92a3.59,3.59,0,0,0-.6-2.32,2.11,2.11,0,0,0-1.65-.68,2.23,2.23,0,0,0-1,.25,2.69,2.69,0,0,0-.85.73A3.66,3.66,0,0,0,103.3,91a4.14,4.14,0,0,0-.2,1.32v10.47H99.24v-17h3.21l.4,2.1H103a9.3,9.3,0,0,1,.76-1,4.26,4.26,0,0,1,1-.78,4.94,4.94,0,0,1,1.18-.56A4.85,4.85,0,0,1,107.36,85.45Z"/><path class="cls-1" d="M127,87.46l-6.6,12.1h6.84v3.26H115.19v-1.64l6.59-12.07h-6.21V85.85H127Z"/><path class="cls-1" d="M136.34,85.45a5.28,5.28,0,0,1,4.6,2.15c1,1.44,1.53,3.67,1.53,6.73v1h-8.61a13.1,13.1,0,0,0,.16,2,6.05,6.05,0,0,0,.45,1.5,2.34,2.34,0,0,0,.8.92,2.17,2.17,0,0,0,1.2.32,1.84,1.84,0,0,0,1.59-.85,4.15,4.15,0,0,0,.58-2.38h3.83a8,8,0,0,1-.45,2.85,5.46,5.46,0,0,1-1.25,2,5,5,0,0,1-1.92,1.17,7.35,7.35,0,0,1-2.39.39,5.91,5.91,0,0,1-5-2.16q-1.69-2.16-1.69-6.73c0-3,.56-5.29,1.68-6.72A5.78,5.78,0,0,1,136.34,85.45Zm0,3.17a1.87,1.87,0,0,0-1.78,1,6.57,6.57,0,0,0-.65,2.87h4.5a6.51,6.51,0,0,0-.5-2.87A1.64,1.64,0,0,0,136.34,88.62Z"/><path class="cls-1" d="M25.46,117.91a3.57,3.57,0,0,1,1.21.19,2.41,2.41,0,0,1,.93.6,2.82,2.82,0,0,1,.58,1,4.78,4.78,0,0,1,.21,1.51h-2a2.77,2.77,0,0,0-.24-1.31.8.8,0,0,0-.73-.42.88.88,0,0,0-.86.63,5.11,5.11,0,0,0-.25,1.83v.61a5.17,5.17,0,0,0,.26,1.84.94.94,0,0,0,.92.63.78.78,0,0,0,.74-.43,3,3,0,0,0,.22-1.31h1.89a4.85,4.85,0,0,1-.2,1.51,2.75,2.75,0,0,1-.57,1,2.3,2.3,0,0,1-.9.6,3.4,3.4,0,0,1-1.18.19,3.6,3.6,0,0,1-1.42-.26,2.41,2.41,0,0,1-1-.8,3.66,3.66,0,0,1-.58-1.37,8.58,8.58,0,0,1-.19-2,5.75,5.75,0,0,1,.77-3.32A2.73,2.73,0,0,1,25.46,117.91Z"/><path class="cls-1" d="M33.43,117.91A3,3,0,0,1,35.94,119a7,7,0,0,1,0,6.63,3,3,0,0,1-2.51,1.07,3,3,0,0,1-2.5-1.07,7,7,0,0,1,0-6.63A3,3,0,0,1,33.43,117.91Zm0,1.6a1.08,1.08,0,0,0-1,.64,4.39,4.39,0,0,0-.3,1.83v.6a4.41,4.41,0,0,0,.3,1.84,1.18,1.18,0,0,0,2.1,0,4.39,4.39,0,0,0,.31-1.84V122a4.37,4.37,0,0,0-.31-1.83A1.07,1.07,0,0,0,33.43,119.51Z"/><path class="cls-1" d="M46.59,117.91a2.49,2.49,0,0,1,.83.13,1.47,1.47,0,0,1,.65.46,2,2,0,0,1,.43.82,4.29,4.29,0,0,1,.16,1.28v5.87H46.75v-5.34a2.18,2.18,0,0,0-.23-1.15.8.8,0,0,0-.71-.33.87.87,0,0,0-.44.11,1.36,1.36,0,0,0-.37.31,1.53,1.53,0,0,0-.26.49,2.08,2.08,0,0,0-.09.63v5.28H42.77v-5.34a2.07,2.07,0,0,0-.24-1.15.83.83,0,0,0-.72-.33.93.93,0,0,0-.46.12,1.28,1.28,0,0,0-.36.34,1.92,1.92,0,0,0-.24.52,2.43,2.43,0,0,0-.09.68v5.16H38.75V118.1h1.59l.19,1h.09a3,3,0,0,1,.35-.47,2.74,2.74,0,0,1,.45-.39A2.35,2.35,0,0,1,42,118a1.91,1.91,0,0,1,.64-.1,2,2,0,0,1,1.09.28,1.8,1.8,0,0,1,.72,1,4,4,0,0,1,.37-.47,2.34,2.34,0,0,1,.49-.39,2.74,2.74,0,0,1,.6-.27A2.39,2.39,0,0,1,46.59,117.91Z"/><path class="cls-1" d="M57.06,126.47H55.47l-.19-1h-.09a4.12,4.12,0,0,1-.38.47,2,2,0,0,1-.47.39,2.58,2.58,0,0,1-.58.27,2.5,2.5,0,0,1-.69.1,2.56,2.56,0,0,1-.89-.15,1.56,1.56,0,0,1-.7-.46,2.14,2.14,0,0,1-.46-.83,4.15,4.15,0,0,1-.17-1.25V118.1h1.91v5.35a1.78,1.78,0,0,0,.28,1.14,1,1,0,0,0,.82.33,1.14,1.14,0,0,0,.52-.12,1.36,1.36,0,0,0,.41-.34,1.73,1.73,0,0,0,.28-.52,2.07,2.07,0,0,0,.1-.66V118.1h1.9v8.37Z"/><path class="cls-1" d="M63.29,117.91a2.81,2.81,0,0,1,.89.14,1.65,1.65,0,0,1,.7.46,2.14,2.14,0,0,1,.46.83,4.2,4.2,0,0,1,.16,1.26v5.87H63.6v-5.34a1.75,1.75,0,0,0-.29-1.15,1,1,0,0,0-.81-.33,1.11,1.11,0,0,0-.52.12,1.22,1.22,0,0,0-.42.36,1.56,1.56,0,0,0-.27.53,2.07,2.07,0,0,0-.1.66v5.16H59.28V118.1h1.59l.19,1h.09a4.12,4.12,0,0,1,.38-.47,2.22,2.22,0,0,1,.47-.39,2.58,2.58,0,0,1,.58-.27A2.39,2.39,0,0,1,63.29,117.91Z"/><path class="cls-1" d="M69.64,116.7h-1.9V115h1.9Zm0,9.77h-1.9V118.1h1.9Z"/><path class="cls-1" d="M74.73,117.91a3.61,3.61,0,0,1,1.21.19,2.3,2.3,0,0,1,.92.6,2.7,2.7,0,0,1,.59,1,4.78,4.78,0,0,1,.21,1.51h-2a2.64,2.64,0,0,0-.25-1.31.78.78,0,0,0-.72-.42.88.88,0,0,0-.86.63,5.07,5.07,0,0,0-.26,1.83v.61a4.92,4.92,0,0,0,.27,1.84.93.93,0,0,0,.91.63.77.77,0,0,0,.74-.43,3,3,0,0,0,.23-1.31h1.89a5.16,5.16,0,0,1-.2,1.51,2.89,2.89,0,0,1-.57,1,2.27,2.27,0,0,1-.91.6,3.36,3.36,0,0,1-1.18.19,3.58,3.58,0,0,1-1.41-.26,2.41,2.41,0,0,1-1-.8,3.67,3.67,0,0,1-.59-1.37,9.25,9.25,0,0,1-.18-2,5.75,5.75,0,0,1,.77-3.32A2.74,2.74,0,0,1,74.73,117.91Z"/><path class="cls-1" d="M82.16,117.91a3.09,3.09,0,0,1,2.15.65,2.38,2.38,0,0,1,.7,1.82v4.12a.54.54,0,0,0,.14.43.41.41,0,0,0,.3.13h.39v1.35a2.5,2.5,0,0,1-.42.18,2.78,2.78,0,0,1-.71.08,1.53,1.53,0,0,1-1-.3,1.62,1.62,0,0,1-.52-.8h-.08a4.29,4.29,0,0,1-.38.45,1.89,1.89,0,0,1-1,.58,3.29,3.29,0,0,1-.74.08,2.41,2.41,0,0,1-.66-.1,1.87,1.87,0,0,1-.68-.36,2.06,2.06,0,0,1-.54-.72,2.84,2.84,0,0,1-.22-1.19,3,3,0,0,1,.31-1.41,2.37,2.37,0,0,1,.86-.89,3.57,3.57,0,0,1,1.31-.48,9.58,9.58,0,0,1,1.68-.14v-.89a2.59,2.59,0,0,0,0-.41.83.83,0,0,0-.13-.32.73.73,0,0,0-.26-.23,1.13,1.13,0,0,0-.45-.08,1.36,1.36,0,0,0-.49.08.85.85,0,0,0-.3.21.66.66,0,0,0-.16.28,1.18,1.18,0,0,0-.05.31v.24H79.35a.44.44,0,0,1,0-.16v-.19a2.1,2.1,0,0,1,.2-1,2,2,0,0,1,.57-.74,2.6,2.6,0,0,1,.89-.47A3.9,3.9,0,0,1,82.16,117.91Zm.93,4.85a5.55,5.55,0,0,0-.82.06,2.87,2.87,0,0,0-.7.22,1.25,1.25,0,0,0-.49.42,1.07,1.07,0,0,0-.19.66,1,1,0,0,0,.22.69.91.91,0,0,0,.71.26,1.08,1.08,0,0,0,1-.55,2,2,0,0,0,.22-.58,3.13,3.13,0,0,0,.08-.7Z"/><path class="cls-1" d="M90.2,117.91a3.53,3.53,0,0,1,1.21.19,2.27,2.27,0,0,1,.93.6,2.83,2.83,0,0,1,.59,1,4.8,4.8,0,0,1,.2,1.51h-2a2.77,2.77,0,0,0-.24-1.31.79.79,0,0,0-.73-.42.89.89,0,0,0-.86.63,5.11,5.11,0,0,0-.25,1.83v.61a4.92,4.92,0,0,0,.27,1.84.93.93,0,0,0,.91.63.77.77,0,0,0,.74-.43,3,3,0,0,0,.22-1.31h1.9a5.16,5.16,0,0,1-.2,1.51,2.9,2.9,0,0,1-.58,1,2.3,2.3,0,0,1-.9.6,3.36,3.36,0,0,1-1.18.19,3.64,3.64,0,0,1-1.42-.26,2.48,2.48,0,0,1-1-.8,3.83,3.83,0,0,1-.58-1.37,8.58,8.58,0,0,1-.19-2,5.66,5.66,0,0,1,.78-3.32A2.71,2.71,0,0,1,90.2,117.91Z"/><path class="cls-1" d="M97,116.7h-1.9V115H97Zm0,9.77h-1.9V118.1H97Z"/><path class="cls-1" d="M102.28,117.91a3,3,0,0,1,2.51,1.06,7,7,0,0,1,0,6.63,3.47,3.47,0,0,1-5,0,7,7,0,0,1,0-6.63A3,3,0,0,1,102.28,117.91Zm0,1.6a1.06,1.06,0,0,0-1,.64,4.22,4.22,0,0,0-.31,1.83v.6a4.24,4.24,0,0,0,.31,1.84,1.07,1.07,0,0,0,1,.64,1.08,1.08,0,0,0,1-.64,4.24,4.24,0,0,0,.31-1.84V122a4.22,4.22,0,0,0-.31-1.83A1.07,1.07,0,0,0,102.28,119.51Z"/><path class="cls-1" d="M111.61,117.91a2.81,2.81,0,0,1,.89.14,1.65,1.65,0,0,1,.7.46,2.14,2.14,0,0,1,.46.83,4.17,4.17,0,0,1,.17,1.26v5.87h-1.9v-5.34a1.74,1.74,0,0,0-.3-1.15,1,1,0,0,0-.81-.33,1.14,1.14,0,0,0-.52.12,1.32,1.32,0,0,0-.42.36,1.76,1.76,0,0,0-.27.53,2.07,2.07,0,0,0-.1.66v5.16H107.6V118.1h1.59l.19,1h.09a4.12,4.12,0,0,1,.38-.47,2.5,2.5,0,0,1,.47-.39,2.8,2.8,0,0,1,.58-.27A2.39,2.39,0,0,1,111.61,117.91Z"/><path class="cls-1" d="M118.89,117.91a2.59,2.59,0,0,1,2.27,1.06,5.8,5.8,0,0,1,.76,3.31v.49h-4.25a7.09,7.09,0,0,0,.08,1,3.25,3.25,0,0,0,.22.74,1.1,1.1,0,0,0,.4.45,1,1,0,0,0,.59.16.89.89,0,0,0,.78-.42,2.06,2.06,0,0,0,.29-1.17h1.89a3.74,3.74,0,0,1-.23,1.4,2.72,2.72,0,0,1-.61,1,2.45,2.45,0,0,1-.94.57,3.48,3.48,0,0,1-1.18.2,2.91,2.91,0,0,1-2.45-1.07,7,7,0,0,1,0-6.63A2.82,2.82,0,0,1,118.89,117.91Zm0,1.56a.93.93,0,0,0-.88.5,3.19,3.19,0,0,0-.32,1.41h2.22a3.31,3.31,0,0,0-.24-1.41A.81.81,0,0,0,118.89,119.47Z"/><path class="cls-1" d="M126.57,117.91a3.59,3.59,0,0,1,1.11.16,2.7,2.7,0,0,1,.9.44,2.21,2.21,0,0,1,.61.72,2.12,2.12,0,0,1,.22,1,1.66,1.66,0,0,1,0,.24,1.09,1.09,0,0,1,0,.13h-1.94a1.12,1.12,0,0,0-.25-.82.9.9,0,0,0-.69-.26,1.06,1.06,0,0,0-.71.22.72.72,0,0,0-.28.6.67.67,0,0,0,.18.49,1.31,1.31,0,0,0,.46.3,4.52,4.52,0,0,0,.65.21l.75.2a6.09,6.09,0,0,1,.75.28,2.31,2.31,0,0,1,.66.44,2.23,2.23,0,0,1,.46.71,2.79,2.79,0,0,1,.17,1,3.27,3.27,0,0,1-.23,1.29,2.18,2.18,0,0,1-.66.83,2.77,2.77,0,0,1-1,.46,5.42,5.42,0,0,1-1.24.13,3.89,3.89,0,0,1-1.29-.19,2.64,2.64,0,0,1-1-.54,2.17,2.17,0,0,1-.59-.84,2.75,2.75,0,0,1-.2-1.09v-.13s0,0,0-.06h1.94v.11a1.3,1.3,0,0,0,.11.56,1,1,0,0,0,.27.36,1.07,1.07,0,0,0,.36.2,1.4,1.4,0,0,0,.41.06,1.69,1.69,0,0,0,.38,0,1.14,1.14,0,0,0,.36-.15.78.78,0,0,0,.26-.28.94.94,0,0,0-.07-1,1.49,1.49,0,0,0-.46-.34,4.43,4.43,0,0,0-.65-.24l-.76-.21a7.61,7.61,0,0,1-.75-.28,2.37,2.37,0,0,1-.65-.43,2,2,0,0,1-.46-.69,2.68,2.68,0,0,1-.18-1,2.46,2.46,0,0,1,.24-1.12,2.39,2.39,0,0,1,.64-.8,2.64,2.64,0,0,1,1-.47A3.28,3.28,0,0,1,126.57,117.91Z"/></g></g></svg>